G75*
G70*
%OFA0B0*%
%FSLAX24Y24*%
%IPPOS*%
%LPD*%
%AMOC8*
5,1,8,0,0,1.08239X$1,22.5*
%
%ADD10C,0.0000*%
%ADD11C,0.0030*%
%ADD12C,0.0080*%
%ADD13C,0.0040*%
%ADD14C,0.0060*%
%ADD15C,0.0070*%
%ADD16C,0.0230*%
%ADD17C,0.0160*%
%ADD18C,0.0050*%
%ADD19C,0.0090*%
%ADD20R,0.0167X0.0128*%
%ADD21R,0.0138X0.0138*%
%ADD22C,0.0020*%
%ADD23R,0.0800X0.0200*%
%ADD24C,0.0100*%
%ADD25C,0.0120*%
%ADD26C,0.0240*%
%ADD27R,0.0320X0.0460*%
%ADD28C,0.0010*%
D10*
X000796Y001857D02*
X000796Y035553D01*
X040766Y035553D01*
X040766Y001857D01*
X000796Y001857D01*
X011313Y006132D02*
X011315Y006167D01*
X011321Y006202D01*
X011331Y006236D01*
X011344Y006269D01*
X011361Y006300D01*
X011382Y006328D01*
X011405Y006355D01*
X011432Y006378D01*
X011460Y006399D01*
X011491Y006416D01*
X011524Y006429D01*
X011558Y006439D01*
X011593Y006445D01*
X011628Y006447D01*
X011663Y006445D01*
X011698Y006439D01*
X011732Y006429D01*
X011765Y006416D01*
X011796Y006399D01*
X011824Y006378D01*
X011851Y006355D01*
X011874Y006328D01*
X011895Y006300D01*
X011912Y006269D01*
X011925Y006236D01*
X011935Y006202D01*
X011941Y006167D01*
X011943Y006132D01*
X011941Y006097D01*
X011935Y006062D01*
X011925Y006028D01*
X011912Y005995D01*
X011895Y005964D01*
X011874Y005936D01*
X011851Y005909D01*
X011824Y005886D01*
X011796Y005865D01*
X011765Y005848D01*
X011732Y005835D01*
X011698Y005825D01*
X011663Y005819D01*
X011628Y005817D01*
X011593Y005819D01*
X011558Y005825D01*
X011524Y005835D01*
X011491Y005848D01*
X011460Y005865D01*
X011432Y005886D01*
X011405Y005909D01*
X011382Y005936D01*
X011361Y005964D01*
X011344Y005995D01*
X011331Y006028D01*
X011321Y006062D01*
X011315Y006097D01*
X011313Y006132D01*
X011410Y014398D02*
X011412Y014427D01*
X011418Y014455D01*
X011427Y014483D01*
X011440Y014509D01*
X011457Y014532D01*
X011476Y014554D01*
X011498Y014573D01*
X011523Y014588D01*
X011549Y014601D01*
X011577Y014609D01*
X011605Y014614D01*
X011634Y014615D01*
X011663Y014612D01*
X011691Y014605D01*
X011718Y014595D01*
X011744Y014581D01*
X011767Y014564D01*
X011788Y014544D01*
X011806Y014521D01*
X011821Y014496D01*
X011832Y014469D01*
X011840Y014441D01*
X011844Y014412D01*
X011844Y014384D01*
X011840Y014355D01*
X011832Y014327D01*
X011821Y014300D01*
X011806Y014275D01*
X011788Y014252D01*
X011767Y014232D01*
X011744Y014215D01*
X011718Y014201D01*
X011691Y014191D01*
X011663Y014184D01*
X011634Y014181D01*
X011605Y014182D01*
X011577Y014187D01*
X011549Y014195D01*
X011523Y014208D01*
X011498Y014223D01*
X011476Y014242D01*
X011457Y014264D01*
X011440Y014287D01*
X011427Y014313D01*
X011418Y014341D01*
X011412Y014369D01*
X011410Y014398D01*
X002504Y025089D02*
X002506Y025115D01*
X002512Y025141D01*
X002522Y025166D01*
X002535Y025189D01*
X002551Y025209D01*
X002571Y025227D01*
X002593Y025242D01*
X002616Y025254D01*
X002642Y025262D01*
X002668Y025266D01*
X002694Y025266D01*
X002720Y025262D01*
X002746Y025254D01*
X002770Y025242D01*
X002791Y025227D01*
X002811Y025209D01*
X002827Y025189D01*
X002840Y025166D01*
X002850Y025141D01*
X002856Y025115D01*
X002858Y025089D01*
X002856Y025063D01*
X002850Y025037D01*
X002840Y025012D01*
X002827Y024989D01*
X002811Y024969D01*
X002791Y024951D01*
X002769Y024936D01*
X002746Y024924D01*
X002720Y024916D01*
X002694Y024912D01*
X002668Y024912D01*
X002642Y024916D01*
X002616Y024924D01*
X002592Y024936D01*
X002571Y024951D01*
X002551Y024969D01*
X002535Y024989D01*
X002522Y025012D01*
X002512Y025037D01*
X002506Y025063D01*
X002504Y025089D01*
X002504Y026821D02*
X002506Y026847D01*
X002512Y026873D01*
X002522Y026898D01*
X002535Y026921D01*
X002551Y026941D01*
X002571Y026959D01*
X002593Y026974D01*
X002616Y026986D01*
X002642Y026994D01*
X002668Y026998D01*
X002694Y026998D01*
X002720Y026994D01*
X002746Y026986D01*
X002770Y026974D01*
X002791Y026959D01*
X002811Y026941D01*
X002827Y026921D01*
X002840Y026898D01*
X002850Y026873D01*
X002856Y026847D01*
X002858Y026821D01*
X002856Y026795D01*
X002850Y026769D01*
X002840Y026744D01*
X002827Y026721D01*
X002811Y026701D01*
X002791Y026683D01*
X002769Y026668D01*
X002746Y026656D01*
X002720Y026648D01*
X002694Y026644D01*
X002668Y026644D01*
X002642Y026648D01*
X002616Y026656D01*
X002592Y026668D01*
X002571Y026683D01*
X002551Y026701D01*
X002535Y026721D01*
X002522Y026744D01*
X002512Y026769D01*
X002506Y026795D01*
X002504Y026821D01*
X002090Y033955D02*
X002092Y034003D01*
X002098Y034051D01*
X002108Y034098D01*
X002121Y034144D01*
X002139Y034189D01*
X002159Y034233D01*
X002184Y034275D01*
X002212Y034314D01*
X002242Y034351D01*
X002276Y034385D01*
X002313Y034417D01*
X002351Y034446D01*
X002392Y034471D01*
X002435Y034493D01*
X002480Y034511D01*
X002526Y034525D01*
X002573Y034536D01*
X002621Y034543D01*
X002669Y034546D01*
X002717Y034545D01*
X002765Y034540D01*
X002813Y034531D01*
X002859Y034519D01*
X002904Y034502D01*
X002948Y034482D01*
X002990Y034459D01*
X003030Y034432D01*
X003068Y034402D01*
X003103Y034369D01*
X003135Y034333D01*
X003165Y034295D01*
X003191Y034254D01*
X003213Y034211D01*
X003233Y034167D01*
X003248Y034122D01*
X003260Y034075D01*
X003268Y034027D01*
X003272Y033979D01*
X003272Y033931D01*
X003268Y033883D01*
X003260Y033835D01*
X003248Y033788D01*
X003233Y033743D01*
X003213Y033699D01*
X003191Y033656D01*
X003165Y033615D01*
X003135Y033577D01*
X003103Y033541D01*
X003068Y033508D01*
X003030Y033478D01*
X002990Y033451D01*
X002948Y033428D01*
X002904Y033408D01*
X002859Y033391D01*
X002813Y033379D01*
X002765Y033370D01*
X002717Y033365D01*
X002669Y033364D01*
X002621Y033367D01*
X002573Y033374D01*
X002526Y033385D01*
X002480Y033399D01*
X002435Y033417D01*
X002392Y033439D01*
X002351Y033464D01*
X002313Y033493D01*
X002276Y033525D01*
X002242Y033559D01*
X002212Y033596D01*
X002184Y033635D01*
X002159Y033677D01*
X002139Y033721D01*
X002121Y033766D01*
X002108Y033812D01*
X002098Y033859D01*
X002092Y033907D01*
X002090Y033955D01*
X031091Y003205D02*
X031093Y003255D01*
X031099Y003305D01*
X031109Y003354D01*
X031122Y003403D01*
X031140Y003450D01*
X031161Y003496D01*
X031185Y003539D01*
X031213Y003581D01*
X031244Y003621D01*
X031278Y003658D01*
X031315Y003692D01*
X031355Y003723D01*
X031397Y003751D01*
X031440Y003775D01*
X031486Y003796D01*
X031533Y003814D01*
X031582Y003827D01*
X031631Y003837D01*
X031681Y003843D01*
X031731Y003845D01*
X031781Y003843D01*
X031831Y003837D01*
X031880Y003827D01*
X031929Y003814D01*
X031976Y003796D01*
X032022Y003775D01*
X032065Y003751D01*
X032107Y003723D01*
X032147Y003692D01*
X032184Y003658D01*
X032218Y003621D01*
X032249Y003581D01*
X032277Y003539D01*
X032301Y003496D01*
X032322Y003450D01*
X032340Y003403D01*
X032353Y003354D01*
X032363Y003305D01*
X032369Y003255D01*
X032371Y003205D01*
X032369Y003155D01*
X032363Y003105D01*
X032353Y003056D01*
X032340Y003007D01*
X032322Y002960D01*
X032301Y002914D01*
X032277Y002871D01*
X032249Y002829D01*
X032218Y002789D01*
X032184Y002752D01*
X032147Y002718D01*
X032107Y002687D01*
X032065Y002659D01*
X032022Y002635D01*
X031976Y002614D01*
X031929Y002596D01*
X031880Y002583D01*
X031831Y002573D01*
X031781Y002567D01*
X031731Y002565D01*
X031681Y002567D01*
X031631Y002573D01*
X031582Y002583D01*
X031533Y002596D01*
X031486Y002614D01*
X031440Y002635D01*
X031397Y002659D01*
X031355Y002687D01*
X031315Y002718D01*
X031278Y002752D01*
X031244Y002789D01*
X031213Y002829D01*
X031185Y002871D01*
X031161Y002914D01*
X031140Y002960D01*
X031122Y003007D01*
X031109Y003056D01*
X031099Y003105D01*
X031093Y003155D01*
X031091Y003205D01*
X035591Y003205D02*
X035593Y003255D01*
X035599Y003305D01*
X035609Y003354D01*
X035622Y003403D01*
X035640Y003450D01*
X035661Y003496D01*
X035685Y003539D01*
X035713Y003581D01*
X035744Y003621D01*
X035778Y003658D01*
X035815Y003692D01*
X035855Y003723D01*
X035897Y003751D01*
X035940Y003775D01*
X035986Y003796D01*
X036033Y003814D01*
X036082Y003827D01*
X036131Y003837D01*
X036181Y003843D01*
X036231Y003845D01*
X036281Y003843D01*
X036331Y003837D01*
X036380Y003827D01*
X036429Y003814D01*
X036476Y003796D01*
X036522Y003775D01*
X036565Y003751D01*
X036607Y003723D01*
X036647Y003692D01*
X036684Y003658D01*
X036718Y003621D01*
X036749Y003581D01*
X036777Y003539D01*
X036801Y003496D01*
X036822Y003450D01*
X036840Y003403D01*
X036853Y003354D01*
X036863Y003305D01*
X036869Y003255D01*
X036871Y003205D01*
X036869Y003155D01*
X036863Y003105D01*
X036853Y003056D01*
X036840Y003007D01*
X036822Y002960D01*
X036801Y002914D01*
X036777Y002871D01*
X036749Y002829D01*
X036718Y002789D01*
X036684Y002752D01*
X036647Y002718D01*
X036607Y002687D01*
X036565Y002659D01*
X036522Y002635D01*
X036476Y002614D01*
X036429Y002596D01*
X036380Y002583D01*
X036331Y002573D01*
X036281Y002567D01*
X036231Y002565D01*
X036181Y002567D01*
X036131Y002573D01*
X036082Y002583D01*
X036033Y002596D01*
X035986Y002614D01*
X035940Y002635D01*
X035897Y002659D01*
X035855Y002687D01*
X035815Y002718D01*
X035778Y002752D01*
X035744Y002789D01*
X035713Y002829D01*
X035685Y002871D01*
X035661Y002914D01*
X035640Y002960D01*
X035622Y003007D01*
X035609Y003056D01*
X035599Y003105D01*
X035593Y003155D01*
X035591Y003205D01*
X038590Y003455D02*
X038592Y003503D01*
X038598Y003551D01*
X038608Y003598D01*
X038621Y003644D01*
X038639Y003689D01*
X038659Y003733D01*
X038684Y003775D01*
X038712Y003814D01*
X038742Y003851D01*
X038776Y003885D01*
X038813Y003917D01*
X038851Y003946D01*
X038892Y003971D01*
X038935Y003993D01*
X038980Y004011D01*
X039026Y004025D01*
X039073Y004036D01*
X039121Y004043D01*
X039169Y004046D01*
X039217Y004045D01*
X039265Y004040D01*
X039313Y004031D01*
X039359Y004019D01*
X039404Y004002D01*
X039448Y003982D01*
X039490Y003959D01*
X039530Y003932D01*
X039568Y003902D01*
X039603Y003869D01*
X039635Y003833D01*
X039665Y003795D01*
X039691Y003754D01*
X039713Y003711D01*
X039733Y003667D01*
X039748Y003622D01*
X039760Y003575D01*
X039768Y003527D01*
X039772Y003479D01*
X039772Y003431D01*
X039768Y003383D01*
X039760Y003335D01*
X039748Y003288D01*
X039733Y003243D01*
X039713Y003199D01*
X039691Y003156D01*
X039665Y003115D01*
X039635Y003077D01*
X039603Y003041D01*
X039568Y003008D01*
X039530Y002978D01*
X039490Y002951D01*
X039448Y002928D01*
X039404Y002908D01*
X039359Y002891D01*
X039313Y002879D01*
X039265Y002870D01*
X039217Y002865D01*
X039169Y002864D01*
X039121Y002867D01*
X039073Y002874D01*
X039026Y002885D01*
X038980Y002899D01*
X038935Y002917D01*
X038892Y002939D01*
X038851Y002964D01*
X038813Y002993D01*
X038776Y003025D01*
X038742Y003059D01*
X038712Y003096D01*
X038684Y003135D01*
X038659Y003177D01*
X038639Y003221D01*
X038621Y003266D01*
X038608Y003312D01*
X038598Y003359D01*
X038592Y003407D01*
X038590Y003455D01*
X037089Y013014D02*
X037091Y013062D01*
X037097Y013110D01*
X037107Y013157D01*
X037120Y013203D01*
X037138Y013248D01*
X037158Y013292D01*
X037183Y013334D01*
X037211Y013373D01*
X037241Y013410D01*
X037275Y013444D01*
X037312Y013476D01*
X037350Y013505D01*
X037391Y013530D01*
X037434Y013552D01*
X037479Y013570D01*
X037525Y013584D01*
X037572Y013595D01*
X037620Y013602D01*
X037668Y013605D01*
X037716Y013604D01*
X037764Y013599D01*
X037812Y013590D01*
X037858Y013578D01*
X037903Y013561D01*
X037947Y013541D01*
X037989Y013518D01*
X038029Y013491D01*
X038067Y013461D01*
X038102Y013428D01*
X038134Y013392D01*
X038164Y013354D01*
X038190Y013313D01*
X038212Y013270D01*
X038232Y013226D01*
X038247Y013181D01*
X038259Y013134D01*
X038267Y013086D01*
X038271Y013038D01*
X038271Y012990D01*
X038267Y012942D01*
X038259Y012894D01*
X038247Y012847D01*
X038232Y012802D01*
X038212Y012758D01*
X038190Y012715D01*
X038164Y012674D01*
X038134Y012636D01*
X038102Y012600D01*
X038067Y012567D01*
X038029Y012537D01*
X037989Y012510D01*
X037947Y012487D01*
X037903Y012467D01*
X037858Y012450D01*
X037812Y012438D01*
X037764Y012429D01*
X037716Y012424D01*
X037668Y012423D01*
X037620Y012426D01*
X037572Y012433D01*
X037525Y012444D01*
X037479Y012458D01*
X037434Y012476D01*
X037391Y012498D01*
X037350Y012523D01*
X037312Y012552D01*
X037275Y012584D01*
X037241Y012618D01*
X037211Y012655D01*
X037183Y012694D01*
X037158Y012736D01*
X037138Y012780D01*
X037120Y012825D01*
X037107Y012871D01*
X037097Y012918D01*
X037091Y012966D01*
X037089Y013014D01*
X037089Y031597D02*
X037091Y031645D01*
X037097Y031693D01*
X037107Y031740D01*
X037120Y031786D01*
X037138Y031831D01*
X037158Y031875D01*
X037183Y031917D01*
X037211Y031956D01*
X037241Y031993D01*
X037275Y032027D01*
X037312Y032059D01*
X037350Y032088D01*
X037391Y032113D01*
X037434Y032135D01*
X037479Y032153D01*
X037525Y032167D01*
X037572Y032178D01*
X037620Y032185D01*
X037668Y032188D01*
X037716Y032187D01*
X037764Y032182D01*
X037812Y032173D01*
X037858Y032161D01*
X037903Y032144D01*
X037947Y032124D01*
X037989Y032101D01*
X038029Y032074D01*
X038067Y032044D01*
X038102Y032011D01*
X038134Y031975D01*
X038164Y031937D01*
X038190Y031896D01*
X038212Y031853D01*
X038232Y031809D01*
X038247Y031764D01*
X038259Y031717D01*
X038267Y031669D01*
X038271Y031621D01*
X038271Y031573D01*
X038267Y031525D01*
X038259Y031477D01*
X038247Y031430D01*
X038232Y031385D01*
X038212Y031341D01*
X038190Y031298D01*
X038164Y031257D01*
X038134Y031219D01*
X038102Y031183D01*
X038067Y031150D01*
X038029Y031120D01*
X037989Y031093D01*
X037947Y031070D01*
X037903Y031050D01*
X037858Y031033D01*
X037812Y031021D01*
X037764Y031012D01*
X037716Y031007D01*
X037668Y031006D01*
X037620Y031009D01*
X037572Y031016D01*
X037525Y031027D01*
X037479Y031041D01*
X037434Y031059D01*
X037391Y031081D01*
X037350Y031106D01*
X037312Y031135D01*
X037275Y031167D01*
X037241Y031201D01*
X037211Y031238D01*
X037183Y031277D01*
X037158Y031319D01*
X037138Y031363D01*
X037120Y031408D01*
X037107Y031454D01*
X037097Y031501D01*
X037091Y031549D01*
X037089Y031597D01*
X038590Y033955D02*
X038592Y034003D01*
X038598Y034051D01*
X038608Y034098D01*
X038621Y034144D01*
X038639Y034189D01*
X038659Y034233D01*
X038684Y034275D01*
X038712Y034314D01*
X038742Y034351D01*
X038776Y034385D01*
X038813Y034417D01*
X038851Y034446D01*
X038892Y034471D01*
X038935Y034493D01*
X038980Y034511D01*
X039026Y034525D01*
X039073Y034536D01*
X039121Y034543D01*
X039169Y034546D01*
X039217Y034545D01*
X039265Y034540D01*
X039313Y034531D01*
X039359Y034519D01*
X039404Y034502D01*
X039448Y034482D01*
X039490Y034459D01*
X039530Y034432D01*
X039568Y034402D01*
X039603Y034369D01*
X039635Y034333D01*
X039665Y034295D01*
X039691Y034254D01*
X039713Y034211D01*
X039733Y034167D01*
X039748Y034122D01*
X039760Y034075D01*
X039768Y034027D01*
X039772Y033979D01*
X039772Y033931D01*
X039768Y033883D01*
X039760Y033835D01*
X039748Y033788D01*
X039733Y033743D01*
X039713Y033699D01*
X039691Y033656D01*
X039665Y033615D01*
X039635Y033577D01*
X039603Y033541D01*
X039568Y033508D01*
X039530Y033478D01*
X039490Y033451D01*
X039448Y033428D01*
X039404Y033408D01*
X039359Y033391D01*
X039313Y033379D01*
X039265Y033370D01*
X039217Y033365D01*
X039169Y033364D01*
X039121Y033367D01*
X039073Y033374D01*
X039026Y033385D01*
X038980Y033399D01*
X038935Y033417D01*
X038892Y033439D01*
X038851Y033464D01*
X038813Y033493D01*
X038776Y033525D01*
X038742Y033559D01*
X038712Y033596D01*
X038684Y033635D01*
X038659Y033677D01*
X038639Y033721D01*
X038621Y033766D01*
X038608Y033812D01*
X038598Y033859D01*
X038592Y033907D01*
X038590Y033955D01*
D11*
X029441Y021946D02*
X029318Y021823D01*
X029197Y021823D02*
X029135Y021761D01*
X029197Y021700D01*
X029197Y021638D01*
X029135Y021576D01*
X029011Y021576D01*
X028950Y021638D01*
X028828Y021638D02*
X028767Y021576D01*
X028643Y021576D01*
X028581Y021638D01*
X028581Y021885D01*
X028643Y021946D01*
X028767Y021946D01*
X028828Y021885D01*
X028950Y021885D02*
X029011Y021946D01*
X029135Y021946D01*
X029197Y021885D01*
X029197Y021823D01*
X029135Y021761D02*
X029073Y021761D01*
X029318Y021576D02*
X029565Y021576D01*
X029441Y021576D02*
X029441Y021946D01*
X024611Y021539D02*
X024611Y021292D01*
X024364Y021539D01*
X024302Y021539D01*
X024240Y021477D01*
X024240Y021354D01*
X024302Y021292D01*
X024302Y021170D02*
X024240Y021109D01*
X024240Y020985D01*
X024302Y020924D01*
X024302Y020802D02*
X024240Y020740D01*
X024240Y020617D01*
X024302Y020555D01*
X024549Y020555D01*
X024611Y020617D01*
X024611Y020740D01*
X024549Y020802D01*
X024611Y020924D02*
X024364Y021170D01*
X024302Y021170D01*
X024611Y021170D02*
X024611Y020924D01*
X023861Y020924D02*
X023614Y021170D01*
X023552Y021170D01*
X023490Y021109D01*
X023490Y020985D01*
X023552Y020924D01*
X023552Y020802D02*
X023490Y020740D01*
X023490Y020617D01*
X023552Y020555D01*
X023799Y020555D01*
X023861Y020617D01*
X023861Y020740D01*
X023799Y020802D01*
X023861Y020924D02*
X023861Y021170D01*
X023861Y021292D02*
X023861Y021539D01*
X023861Y021415D02*
X023490Y021415D01*
X023614Y021292D01*
X022961Y021254D02*
X022899Y021192D01*
X022652Y021439D01*
X022899Y021439D01*
X022961Y021377D01*
X022961Y021254D01*
X022899Y021192D02*
X022652Y021192D01*
X022590Y021254D01*
X022590Y021377D01*
X022652Y021439D01*
X022311Y021377D02*
X022311Y021254D01*
X022249Y021192D01*
X022311Y021070D02*
X022311Y020824D01*
X022311Y020947D02*
X021940Y020947D01*
X022064Y020824D01*
X022002Y020702D02*
X021940Y020640D01*
X021940Y020517D01*
X022002Y020455D01*
X022249Y020455D01*
X022311Y020517D01*
X022311Y020640D01*
X022249Y020702D01*
X022590Y020640D02*
X022590Y020517D01*
X022652Y020455D01*
X022899Y020455D01*
X022961Y020517D01*
X022961Y020640D01*
X022899Y020702D01*
X022961Y020824D02*
X022714Y021070D01*
X022652Y021070D01*
X022590Y021009D01*
X022590Y020885D01*
X022652Y020824D01*
X022652Y020702D02*
X022590Y020640D01*
X022961Y020824D02*
X022961Y021070D01*
X022311Y021377D02*
X022249Y021439D01*
X022002Y021439D01*
X021940Y021377D01*
X021940Y021254D01*
X022002Y021192D01*
X022064Y021192D01*
X022125Y021254D01*
X022125Y021439D01*
X021899Y019239D02*
X021837Y019239D01*
X021775Y019177D01*
X021775Y018992D01*
X021899Y018992D01*
X021961Y019054D01*
X021961Y019177D01*
X021899Y019239D01*
X021652Y019115D02*
X021590Y019239D01*
X021652Y019115D02*
X021775Y018992D01*
X021714Y018870D02*
X021775Y018809D01*
X021837Y018870D01*
X021899Y018870D01*
X021961Y018809D01*
X021961Y018685D01*
X021899Y018624D01*
X021899Y018502D02*
X021961Y018440D01*
X021961Y018317D01*
X021899Y018255D01*
X021652Y018255D01*
X021590Y018317D01*
X021590Y018440D01*
X021652Y018502D01*
X021652Y018624D02*
X021590Y018685D01*
X021590Y018809D01*
X021652Y018870D01*
X021714Y018870D01*
X021775Y018809D02*
X021775Y018747D01*
X026062Y015541D02*
X026208Y015541D01*
X026256Y015492D01*
X026256Y015395D01*
X026208Y015347D01*
X026062Y015347D01*
X026062Y015250D02*
X026062Y015541D01*
X026159Y015347D02*
X026256Y015250D01*
X026357Y015250D02*
X026551Y015250D01*
X026454Y015250D02*
X026454Y015541D01*
X026357Y015444D01*
X026652Y015492D02*
X026700Y015541D01*
X026797Y015541D01*
X026845Y015492D01*
X026845Y015444D01*
X026652Y015250D01*
X026845Y015250D01*
X029312Y015250D02*
X029312Y015541D01*
X029458Y015541D01*
X029506Y015492D01*
X029506Y015395D01*
X029458Y015347D01*
X029312Y015347D01*
X029409Y015347D02*
X029506Y015250D01*
X029607Y015250D02*
X029801Y015250D01*
X029704Y015250D02*
X029704Y015541D01*
X029607Y015444D01*
X029902Y015444D02*
X029999Y015541D01*
X029999Y015250D01*
X030095Y015250D02*
X029902Y015250D01*
X033146Y012911D02*
X033146Y012620D01*
X033146Y012717D02*
X033292Y012717D01*
X033340Y012765D01*
X033340Y012862D01*
X033292Y012911D01*
X033146Y012911D01*
X033243Y012717D02*
X033340Y012620D01*
X033441Y012620D02*
X033635Y012620D01*
X033538Y012620D02*
X033538Y012911D01*
X033441Y012814D01*
X033736Y012862D02*
X033784Y012911D01*
X033881Y012911D01*
X033929Y012862D01*
X033736Y012669D01*
X033784Y012620D01*
X033881Y012620D01*
X033929Y012669D01*
X033929Y012862D01*
X033736Y012862D02*
X033736Y012669D01*
X030890Y010273D02*
X030828Y010335D01*
X030705Y010335D01*
X030643Y010273D01*
X030643Y010211D01*
X030705Y010150D01*
X030890Y010150D01*
X030890Y010273D02*
X030890Y010026D01*
X030828Y009964D01*
X030705Y009964D01*
X030643Y010026D01*
X030536Y009980D02*
X030440Y009883D01*
X030440Y009931D02*
X030440Y009786D01*
X030536Y009786D02*
X030246Y009786D01*
X030246Y009931D01*
X030295Y009980D01*
X030391Y009980D01*
X030440Y009931D01*
X030522Y009964D02*
X030275Y009964D01*
X030522Y010211D01*
X030522Y010273D01*
X030460Y010335D01*
X030336Y010335D01*
X030275Y010273D01*
X030246Y010178D02*
X030536Y010178D01*
X030536Y010274D02*
X030536Y010081D01*
X030343Y010081D02*
X030246Y010178D01*
X030153Y010273D02*
X030092Y010335D01*
X029968Y010335D01*
X029906Y010273D01*
X029906Y010026D01*
X029968Y009964D01*
X030092Y009964D01*
X030153Y010026D01*
X030391Y010376D02*
X030391Y010521D01*
X030440Y010569D01*
X030488Y010569D01*
X030536Y010521D01*
X030536Y010424D01*
X030488Y010376D01*
X030391Y010376D01*
X030295Y010472D01*
X030246Y010569D01*
X028511Y010520D02*
X028511Y010274D01*
X028264Y010520D01*
X028202Y010520D01*
X028140Y010459D01*
X028140Y010335D01*
X028202Y010274D01*
X028202Y010152D02*
X028140Y010090D01*
X028140Y009967D01*
X028202Y009905D01*
X028449Y009905D01*
X028511Y009967D01*
X028511Y010090D01*
X028449Y010152D01*
X028449Y010642D02*
X028387Y010642D01*
X028325Y010704D01*
X028325Y010827D01*
X028387Y010889D01*
X028449Y010889D01*
X028511Y010827D01*
X028511Y010704D01*
X028449Y010642D01*
X028325Y010704D02*
X028264Y010642D01*
X028202Y010642D01*
X028140Y010704D01*
X028140Y010827D01*
X028202Y010889D01*
X028264Y010889D01*
X028325Y010827D01*
X024690Y009583D02*
X024690Y009521D01*
X024628Y009460D01*
X024505Y009460D01*
X024443Y009521D01*
X024443Y009583D01*
X024505Y009645D01*
X024628Y009645D01*
X024690Y009583D01*
X024628Y009460D02*
X024690Y009398D01*
X024690Y009336D01*
X024628Y009274D01*
X024505Y009274D01*
X024443Y009336D01*
X024443Y009398D01*
X024505Y009460D01*
X024322Y009521D02*
X024260Y009460D01*
X024322Y009398D01*
X024322Y009336D01*
X024260Y009274D01*
X024136Y009274D01*
X024075Y009336D01*
X023953Y009336D02*
X023892Y009274D01*
X023768Y009274D01*
X023706Y009336D01*
X023706Y009583D01*
X023768Y009645D01*
X023892Y009645D01*
X023953Y009583D01*
X024075Y009583D02*
X024136Y009645D01*
X024260Y009645D01*
X024322Y009583D01*
X024322Y009521D01*
X024260Y009460D02*
X024198Y009460D01*
X022699Y007789D02*
X022761Y007727D01*
X022761Y007604D01*
X022699Y007542D01*
X022699Y007420D02*
X022761Y007359D01*
X022761Y007235D01*
X022699Y007174D01*
X022699Y007052D02*
X022761Y006990D01*
X022761Y006867D01*
X022699Y006805D01*
X022452Y006805D01*
X022390Y006867D01*
X022390Y006990D01*
X022452Y007052D01*
X022452Y007174D02*
X022390Y007235D01*
X022390Y007359D01*
X022452Y007420D01*
X022514Y007420D01*
X022575Y007359D01*
X022637Y007420D01*
X022699Y007420D01*
X022575Y007359D02*
X022575Y007297D01*
X022575Y007542D02*
X022514Y007665D01*
X022514Y007727D01*
X022575Y007789D01*
X022699Y007789D01*
X022575Y007542D02*
X022390Y007542D01*
X022390Y007789D01*
X022053Y006396D02*
X021868Y006211D01*
X022115Y006211D01*
X022053Y006026D02*
X022053Y006396D01*
X021747Y006335D02*
X021747Y006273D01*
X021685Y006211D01*
X021747Y006150D01*
X021747Y006088D01*
X021685Y006026D01*
X021561Y006026D01*
X021500Y006088D01*
X021378Y006088D02*
X021317Y006026D01*
X021193Y006026D01*
X021131Y006088D01*
X021131Y006335D01*
X021193Y006396D01*
X021317Y006396D01*
X021378Y006335D01*
X021500Y006335D02*
X021561Y006396D01*
X021685Y006396D01*
X021747Y006335D01*
X021685Y006211D02*
X021623Y006211D01*
X023325Y005951D02*
X023572Y005951D01*
X023693Y005951D02*
X023693Y005580D01*
X023940Y005580D01*
X024061Y005580D02*
X024061Y005951D01*
X024185Y005827D01*
X024308Y005951D01*
X024308Y005580D01*
X024430Y005580D02*
X024430Y005951D01*
X024615Y005951D01*
X024677Y005889D01*
X024677Y005765D01*
X024615Y005704D01*
X024430Y005704D01*
X024798Y005765D02*
X024983Y005765D01*
X025045Y005704D01*
X025045Y005642D01*
X024983Y005580D01*
X024798Y005580D01*
X024798Y005951D01*
X024983Y005951D01*
X025045Y005889D01*
X025045Y005827D01*
X024983Y005765D01*
X025030Y006726D02*
X025153Y006726D01*
X025215Y006788D01*
X025215Y007035D01*
X025153Y007096D01*
X025030Y007096D01*
X024968Y007035D01*
X024968Y006973D01*
X025030Y006911D01*
X025215Y006911D01*
X025030Y006726D02*
X024968Y006788D01*
X024847Y006788D02*
X024785Y006726D01*
X024661Y006726D01*
X024600Y006788D01*
X024478Y006788D02*
X024417Y006726D01*
X024293Y006726D01*
X024231Y006788D01*
X024231Y007035D01*
X024293Y007096D01*
X024417Y007096D01*
X024478Y007035D01*
X024600Y007035D02*
X024661Y007096D01*
X024785Y007096D01*
X024847Y007035D01*
X024847Y006973D01*
X024785Y006911D01*
X024847Y006850D01*
X024847Y006788D01*
X024785Y006911D02*
X024723Y006911D01*
X023940Y005951D02*
X023693Y005951D01*
X023693Y005765D02*
X023817Y005765D01*
X023448Y005580D02*
X023448Y005951D01*
X026275Y006001D02*
X026522Y006001D01*
X026643Y006001D02*
X026643Y005630D01*
X026890Y005630D01*
X027011Y005630D02*
X027011Y006001D01*
X027135Y005877D01*
X027258Y006001D01*
X027258Y005630D01*
X027380Y005630D02*
X027380Y006001D01*
X027565Y006001D01*
X027627Y005939D01*
X027627Y005815D01*
X027565Y005754D01*
X027380Y005754D01*
X027748Y005815D02*
X027995Y005815D01*
X027995Y005877D02*
X027995Y005630D01*
X027748Y005630D02*
X027748Y005877D01*
X027872Y006001D01*
X027995Y005877D01*
X028381Y006238D02*
X028443Y006176D01*
X028567Y006176D01*
X028628Y006238D01*
X028750Y006238D02*
X028811Y006176D01*
X028935Y006176D01*
X028997Y006238D01*
X028997Y006300D01*
X028935Y006361D01*
X028873Y006361D01*
X028935Y006361D02*
X028997Y006423D01*
X028997Y006485D01*
X028935Y006546D01*
X028811Y006546D01*
X028750Y006485D01*
X028628Y006485D02*
X028567Y006546D01*
X028443Y006546D01*
X028381Y006485D01*
X028381Y006238D01*
X029118Y006238D02*
X029118Y006176D01*
X029118Y006238D02*
X029365Y006485D01*
X029365Y006546D01*
X029118Y006546D01*
X026890Y006001D02*
X026643Y006001D01*
X026643Y005815D02*
X026767Y005815D01*
X026398Y005630D02*
X026398Y006001D01*
X019011Y007267D02*
X018949Y007205D01*
X018702Y007205D01*
X018640Y007267D01*
X018640Y007390D01*
X018702Y007452D01*
X018702Y007574D02*
X018640Y007635D01*
X018640Y007759D01*
X018702Y007820D01*
X018764Y007820D01*
X018825Y007759D01*
X018887Y007820D01*
X018949Y007820D01*
X019011Y007759D01*
X019011Y007635D01*
X018949Y007574D01*
X018949Y007452D02*
X019011Y007390D01*
X019011Y007267D01*
X018825Y007697D02*
X018825Y007759D01*
X018702Y007942D02*
X018640Y008004D01*
X018640Y008127D01*
X018702Y008189D01*
X018764Y008189D01*
X019011Y007942D01*
X019011Y008189D01*
X018203Y006346D02*
X018080Y006346D01*
X018018Y006285D01*
X017897Y006285D02*
X017897Y006223D01*
X017835Y006161D01*
X017897Y006100D01*
X017897Y006038D01*
X017835Y005976D01*
X017711Y005976D01*
X017650Y006038D01*
X017528Y006038D02*
X017467Y005976D01*
X017343Y005976D01*
X017281Y006038D01*
X017281Y006285D01*
X017343Y006346D01*
X017467Y006346D01*
X017528Y006285D01*
X017650Y006285D02*
X017711Y006346D01*
X017835Y006346D01*
X017897Y006285D01*
X017835Y006161D02*
X017773Y006161D01*
X018018Y006038D02*
X018080Y005976D01*
X018203Y005976D01*
X018265Y006038D01*
X018265Y006100D01*
X018203Y006161D01*
X018141Y006161D01*
X018203Y006161D02*
X018265Y006223D01*
X018265Y006285D01*
X018203Y006346D01*
X012264Y006171D02*
X012264Y006074D01*
X012216Y006026D01*
X012119Y006074D02*
X012119Y006219D01*
X012216Y006219D02*
X012022Y006219D01*
X011974Y006171D01*
X011974Y006074D01*
X012022Y006026D01*
X012071Y006026D01*
X012119Y006074D01*
X012264Y006171D02*
X012216Y006219D01*
X012236Y006976D02*
X012236Y007169D01*
X012236Y007072D02*
X011946Y007072D01*
X012043Y006976D01*
X011995Y007976D02*
X011946Y008024D01*
X011946Y008121D01*
X011995Y008169D01*
X012043Y008169D01*
X012236Y007976D01*
X012236Y008169D01*
X012188Y008976D02*
X012236Y009024D01*
X012236Y009121D01*
X012188Y009169D01*
X012140Y009169D01*
X012091Y009121D01*
X012091Y009072D01*
X012091Y009121D02*
X012043Y009169D01*
X011995Y009169D01*
X011946Y009121D01*
X011946Y009024D01*
X011995Y008976D01*
X012091Y009976D02*
X012091Y010169D01*
X012236Y010121D02*
X011946Y010121D01*
X012091Y009976D01*
X012091Y010926D02*
X011946Y010926D01*
X011946Y011119D01*
X012043Y011071D02*
X012091Y011119D01*
X012188Y011119D01*
X012236Y011071D01*
X012236Y010974D01*
X012188Y010926D01*
X012091Y010926D02*
X012043Y011022D01*
X012043Y011071D01*
X012091Y011926D02*
X012091Y012071D01*
X012140Y012119D01*
X012188Y012119D01*
X012236Y012071D01*
X012236Y011974D01*
X012188Y011926D01*
X012091Y011926D01*
X011995Y012022D01*
X011946Y012119D01*
X011946Y012876D02*
X011946Y013069D01*
X011995Y013069D01*
X012188Y012876D01*
X012236Y012876D01*
X012188Y013576D02*
X012140Y013576D01*
X012091Y013624D01*
X012091Y013721D01*
X012140Y013769D01*
X012188Y013769D01*
X012236Y013721D01*
X012236Y013624D01*
X012188Y013576D01*
X012091Y013624D02*
X012043Y013576D01*
X011995Y013576D01*
X011946Y013624D01*
X011946Y013721D01*
X011995Y013769D01*
X012043Y013769D01*
X012091Y013721D01*
X012081Y014650D02*
X012081Y014941D01*
X012226Y014941D01*
X012275Y014892D01*
X012275Y014795D01*
X012226Y014747D01*
X012081Y014747D01*
X011980Y014650D02*
X011980Y014941D01*
X011786Y014941D02*
X011786Y014650D01*
X011883Y014747D01*
X011980Y014650D01*
X014122Y019775D02*
X014060Y019837D01*
X014060Y019960D01*
X014122Y020022D01*
X014184Y020144D02*
X014060Y020267D01*
X014431Y020267D01*
X014431Y020144D02*
X014431Y020390D01*
X014369Y020512D02*
X014431Y020574D01*
X014431Y020697D01*
X014369Y020759D01*
X014307Y020759D01*
X014245Y020697D01*
X014245Y020635D01*
X014245Y020697D02*
X014184Y020759D01*
X014122Y020759D01*
X014060Y020697D01*
X014060Y020574D01*
X014122Y020512D01*
X014369Y020022D02*
X014431Y019960D01*
X014431Y019837D01*
X014369Y019775D01*
X014122Y019775D01*
X014900Y019917D02*
X014962Y019855D01*
X015209Y019855D01*
X015271Y019917D01*
X015271Y020040D01*
X015209Y020102D01*
X015085Y020224D02*
X015085Y020470D01*
X014900Y020409D02*
X015085Y020224D01*
X014962Y020102D02*
X014900Y020040D01*
X014900Y019917D01*
X014900Y020409D02*
X015271Y020409D01*
X015513Y024966D02*
X015637Y024966D01*
X015698Y025028D01*
X015820Y025028D02*
X015881Y024966D01*
X016005Y024966D01*
X016067Y025028D01*
X016067Y025275D01*
X016005Y025336D01*
X015881Y025336D01*
X015820Y025275D01*
X015820Y025213D01*
X015881Y025151D01*
X016067Y025151D01*
X015698Y025275D02*
X015637Y025336D01*
X015513Y025336D01*
X015451Y025275D01*
X015451Y025028D01*
X015513Y024966D01*
X015580Y026016D02*
X015827Y026016D01*
X015703Y026016D02*
X015703Y026386D01*
X015580Y026263D01*
X015458Y026325D02*
X015397Y026386D01*
X015273Y026386D01*
X015211Y026325D01*
X015211Y026078D01*
X015273Y026016D01*
X015397Y026016D01*
X015458Y026078D01*
X015948Y026078D02*
X016010Y026016D01*
X016133Y026016D01*
X016195Y026078D01*
X016195Y026201D01*
X016133Y026263D01*
X016071Y026263D01*
X015948Y026201D01*
X015948Y026386D01*
X016195Y026386D01*
X020541Y025245D02*
X020541Y024998D01*
X020603Y024936D01*
X020727Y024936D01*
X020788Y024998D01*
X020910Y024998D02*
X020910Y024936D01*
X020910Y024998D02*
X021157Y025245D01*
X021157Y025306D01*
X020910Y025306D01*
X020788Y025245D02*
X020727Y025306D01*
X020603Y025306D01*
X020541Y025245D01*
X023452Y025342D02*
X023514Y025280D01*
X023761Y025280D01*
X023822Y025342D01*
X023822Y025465D01*
X023761Y025527D01*
X023822Y025649D02*
X023822Y025895D01*
X023822Y025772D02*
X023452Y025772D01*
X023575Y025649D01*
X023514Y025527D02*
X023452Y025465D01*
X023452Y025342D01*
X023637Y026017D02*
X023637Y026264D01*
X023822Y026202D02*
X023452Y026202D01*
X023637Y026017D01*
X007866Y028470D02*
X007866Y028615D01*
X007818Y028664D01*
X007770Y028664D01*
X007721Y028615D01*
X007721Y028470D01*
X007576Y028470D02*
X007576Y028615D01*
X007625Y028664D01*
X007673Y028664D01*
X007721Y028615D01*
X007866Y028470D02*
X007576Y028470D01*
X007576Y028765D02*
X007866Y028765D01*
X007866Y028958D01*
X007866Y029060D02*
X007576Y029060D01*
X007721Y029108D02*
X007866Y029253D01*
X007770Y029060D02*
X007576Y029253D01*
X003285Y030720D02*
X003092Y030720D01*
X003285Y030914D01*
X003285Y030962D01*
X003237Y031011D01*
X003140Y031011D01*
X003092Y030962D01*
X002991Y030962D02*
X002991Y030865D01*
X002942Y030817D01*
X002797Y030817D01*
X002797Y030720D02*
X002797Y031011D01*
X002942Y031011D01*
X002991Y030962D01*
X002894Y030817D02*
X002991Y030720D01*
X001929Y023811D02*
X001929Y023520D01*
X001736Y023811D01*
X001736Y023520D01*
X001635Y023520D02*
X001538Y023617D01*
X001586Y023617D02*
X001441Y023617D01*
X001441Y023520D02*
X001441Y023811D01*
X001586Y023811D01*
X001635Y023762D01*
X001635Y023665D01*
X001586Y023617D01*
X001340Y023665D02*
X001243Y023665D01*
X001340Y023665D02*
X001340Y023569D01*
X001292Y023520D01*
X001195Y023520D01*
X001146Y023569D01*
X001146Y023762D01*
X001195Y023811D01*
X001292Y023811D01*
X001340Y023762D01*
X003676Y023049D02*
X003725Y023000D01*
X003773Y023000D01*
X003822Y023049D01*
X003822Y023291D01*
X003870Y023291D02*
X003773Y023291D01*
X003971Y023291D02*
X004165Y023291D01*
X004068Y023291D02*
X004068Y023000D01*
X004266Y023000D02*
X004266Y023194D01*
X004362Y023291D01*
X004459Y023194D01*
X004459Y023000D01*
X004560Y023049D02*
X004560Y023242D01*
X004609Y023291D01*
X004705Y023291D01*
X004754Y023242D01*
X004754Y023145D02*
X004657Y023145D01*
X004754Y023145D02*
X004754Y023049D01*
X004705Y023000D01*
X004609Y023000D01*
X004560Y023049D01*
X004459Y023145D02*
X004266Y023145D01*
X004276Y022771D02*
X004422Y022771D01*
X004470Y022722D01*
X004470Y022625D01*
X004422Y022577D01*
X004276Y022577D01*
X004276Y022480D02*
X004276Y022771D01*
X004571Y022674D02*
X004619Y022674D01*
X004619Y022480D01*
X004571Y022480D02*
X004668Y022480D01*
X004767Y022480D02*
X004767Y022674D01*
X004913Y022674D01*
X004961Y022625D01*
X004961Y022480D01*
X005062Y022480D02*
X005256Y022480D01*
X005159Y022480D02*
X005159Y022771D01*
X005062Y022674D01*
X004619Y022771D02*
X004619Y022819D01*
X004570Y020891D02*
X004816Y020891D01*
X004693Y020891D02*
X004693Y020520D01*
X004448Y020520D02*
X004201Y020520D01*
X004201Y020891D01*
X004448Y020891D01*
X004325Y020705D02*
X004201Y020705D01*
X004080Y020644D02*
X004080Y020582D01*
X004018Y020520D01*
X003895Y020520D01*
X003833Y020582D01*
X003712Y020520D02*
X003465Y020520D01*
X003465Y020891D01*
X003712Y020891D01*
X003833Y020829D02*
X003833Y020767D01*
X003895Y020705D01*
X004018Y020705D01*
X004080Y020644D01*
X004080Y020829D02*
X004018Y020891D01*
X003895Y020891D01*
X003833Y020829D01*
X003588Y020705D02*
X003465Y020705D01*
X003343Y020705D02*
X003282Y020644D01*
X003096Y020644D01*
X003096Y020520D02*
X003096Y020891D01*
X003282Y020891D01*
X003343Y020829D01*
X003343Y020705D01*
X003220Y020644D02*
X003343Y020520D01*
D12*
X002996Y024459D02*
X002170Y024459D01*
X003981Y024735D02*
X003981Y025089D01*
X003981Y026821D02*
X003981Y027176D01*
X002996Y027451D02*
X002170Y027451D01*
X006311Y027315D02*
X006311Y027235D01*
X006632Y027235D01*
X006827Y027235D02*
X006827Y027716D01*
X006987Y027556D01*
X007147Y027716D01*
X007147Y027235D01*
X007343Y027235D02*
X007503Y027235D01*
X007423Y027235D02*
X007423Y027716D01*
X007343Y027716D02*
X007503Y027716D01*
X007686Y027716D02*
X008007Y027235D01*
X008007Y027716D01*
X007686Y027716D02*
X007686Y027235D01*
X006632Y027636D02*
X006311Y027315D01*
X006311Y027716D02*
X006632Y027716D01*
X006632Y027636D01*
X011941Y027656D02*
X012262Y027656D01*
X012262Y027576D01*
X011941Y027255D01*
X011941Y027175D01*
X012262Y027175D01*
X012457Y027175D02*
X012457Y027656D01*
X012617Y027496D01*
X012777Y027656D01*
X012777Y027175D01*
X012973Y027175D02*
X012973Y027496D01*
X013133Y027656D01*
X013293Y027496D01*
X013293Y027175D01*
X013488Y027175D02*
X013809Y027656D01*
X013488Y027656D02*
X013809Y027175D01*
X013293Y027415D02*
X012973Y027415D01*
X016553Y024280D02*
X016553Y020571D01*
X020266Y020571D01*
X020266Y024280D01*
X016553Y024280D01*
X018595Y027375D02*
X019068Y027375D01*
X019816Y027887D02*
X019816Y028123D01*
X019068Y028635D02*
X018595Y028635D01*
X017847Y028123D02*
X017847Y027887D01*
X024801Y022467D02*
X026061Y022467D01*
X026061Y021443D02*
X024801Y021443D01*
X028266Y015896D02*
X028573Y015896D01*
X028419Y015896D02*
X028419Y014975D01*
X028266Y014975D02*
X028573Y014975D01*
X028880Y014975D02*
X029494Y015589D01*
X029494Y015743D01*
X029340Y015896D01*
X029033Y015896D01*
X028880Y015743D01*
X028880Y014975D02*
X029494Y014975D01*
X029801Y015129D02*
X029954Y014975D01*
X030261Y014975D01*
X030414Y015129D01*
X029801Y015129D02*
X029801Y015743D01*
X029954Y015896D01*
X030261Y015896D01*
X030414Y015743D01*
X035791Y015823D02*
X035791Y015516D01*
X035944Y015363D01*
X035944Y015056D02*
X035791Y014903D01*
X035791Y014596D01*
X035944Y014442D01*
X036558Y014442D01*
X036711Y014596D01*
X036711Y014903D01*
X036558Y015056D01*
X036558Y015363D02*
X036711Y015516D01*
X036711Y015823D01*
X036558Y015977D01*
X036405Y015977D01*
X036251Y015823D01*
X036251Y015670D01*
X036251Y015823D02*
X036098Y015977D01*
X035944Y015977D01*
X035791Y015823D01*
X035791Y016284D02*
X035791Y016744D01*
X035944Y016898D01*
X036098Y016898D01*
X036251Y016744D01*
X036251Y016284D01*
X036251Y016744D02*
X036405Y016898D01*
X036558Y016898D01*
X036711Y016744D01*
X036711Y016284D01*
X035791Y016284D01*
X035944Y017204D02*
X035791Y017358D01*
X035791Y017665D01*
X035944Y017818D01*
X036558Y017204D01*
X036711Y017358D01*
X036711Y017665D01*
X036558Y017818D01*
X035944Y017818D01*
X035944Y018125D02*
X035791Y018279D01*
X035791Y018586D01*
X035944Y018739D01*
X036098Y018739D01*
X036711Y018125D01*
X036711Y018739D01*
X036558Y019046D02*
X036711Y019199D01*
X036711Y019506D01*
X036558Y019660D01*
X036251Y019660D01*
X036098Y019506D01*
X036098Y019353D01*
X036251Y019046D01*
X035791Y019046D01*
X035791Y019660D01*
X036251Y019967D02*
X036251Y020427D01*
X036405Y020581D01*
X036558Y020581D01*
X036711Y020427D01*
X036711Y020120D01*
X036558Y019967D01*
X036251Y019967D01*
X035944Y020274D01*
X035791Y020581D01*
X036251Y021808D02*
X036558Y021808D01*
X036711Y021962D01*
X036711Y022269D01*
X036558Y022422D01*
X036251Y022422D01*
X036098Y022269D01*
X036098Y021962D01*
X036251Y021808D01*
X036098Y022729D02*
X036098Y023189D01*
X036251Y023343D01*
X036711Y023343D01*
X036711Y022729D02*
X036098Y022729D01*
X036098Y024570D02*
X036098Y025031D01*
X036251Y025184D01*
X036558Y025184D01*
X036711Y025031D01*
X036711Y024570D01*
X035791Y024570D01*
X036251Y025491D02*
X036558Y025491D01*
X036711Y025645D01*
X036711Y025952D01*
X036558Y026105D01*
X036251Y026105D01*
X036098Y025952D01*
X036098Y025645D01*
X036251Y025491D01*
X036558Y026412D02*
X036405Y026565D01*
X036405Y027026D01*
X036251Y027026D02*
X036711Y027026D01*
X036711Y026565D01*
X036558Y026412D01*
X036098Y026565D02*
X036098Y026872D01*
X036251Y027026D01*
X036098Y027333D02*
X036711Y027333D01*
X036405Y027333D02*
X036098Y027640D01*
X036098Y027793D01*
X036251Y028100D02*
X036098Y028253D01*
X036098Y028714D01*
X035791Y028714D02*
X036711Y028714D01*
X036711Y028253D01*
X036558Y028100D01*
X036251Y028100D01*
X036251Y029021D02*
X035637Y029021D01*
X035637Y029328D02*
X036251Y029328D01*
X036558Y029328D02*
X036711Y029328D01*
X036711Y029021D02*
X036558Y029021D01*
X038551Y033955D02*
X038553Y034005D01*
X038559Y034055D01*
X038569Y034104D01*
X038583Y034152D01*
X038600Y034199D01*
X038621Y034244D01*
X038646Y034288D01*
X038674Y034329D01*
X038706Y034368D01*
X038740Y034405D01*
X038777Y034439D01*
X038817Y034469D01*
X038859Y034496D01*
X038903Y034520D01*
X038949Y034541D01*
X038996Y034557D01*
X039044Y034570D01*
X039094Y034579D01*
X039143Y034584D01*
X039194Y034585D01*
X039244Y034582D01*
X039293Y034575D01*
X039342Y034564D01*
X039390Y034549D01*
X039436Y034531D01*
X039481Y034509D01*
X039524Y034483D01*
X039565Y034454D01*
X039604Y034422D01*
X039640Y034387D01*
X039672Y034349D01*
X039702Y034309D01*
X039729Y034266D01*
X039752Y034222D01*
X039771Y034176D01*
X039787Y034128D01*
X039799Y034079D01*
X039807Y034030D01*
X039811Y033980D01*
X039811Y033930D01*
X039807Y033880D01*
X039799Y033831D01*
X039787Y033782D01*
X039771Y033734D01*
X039752Y033688D01*
X039729Y033644D01*
X039702Y033601D01*
X039672Y033561D01*
X039640Y033523D01*
X039604Y033488D01*
X039565Y033456D01*
X039524Y033427D01*
X039481Y033401D01*
X039436Y033379D01*
X039390Y033361D01*
X039342Y033346D01*
X039293Y033335D01*
X039244Y033328D01*
X039194Y033325D01*
X039143Y033326D01*
X039094Y033331D01*
X039044Y033340D01*
X038996Y033353D01*
X038949Y033369D01*
X038903Y033390D01*
X038859Y033414D01*
X038817Y033441D01*
X038777Y033471D01*
X038740Y033505D01*
X038706Y033542D01*
X038674Y033581D01*
X038646Y033622D01*
X038621Y033666D01*
X038600Y033711D01*
X038583Y033758D01*
X038569Y033806D01*
X038559Y033855D01*
X038553Y033905D01*
X038551Y033955D01*
X036558Y017204D02*
X035944Y017204D01*
X035791Y014135D02*
X036558Y014135D01*
X036711Y013982D01*
X036711Y013675D01*
X036558Y013521D01*
X035791Y013521D01*
X035791Y013215D02*
X035791Y012601D01*
X035791Y012908D02*
X036711Y012908D01*
X036711Y012294D02*
X036098Y012294D01*
X035791Y011987D01*
X036098Y011680D01*
X036711Y011680D01*
X036251Y011680D02*
X036251Y012294D01*
X036281Y007155D02*
X036281Y006755D01*
X036631Y006755D01*
X036631Y007155D01*
X036940Y007159D02*
X036940Y000151D01*
X031022Y000151D01*
X031022Y007159D01*
X032131Y007159D01*
X032131Y007155D02*
X032131Y006055D01*
X032331Y006055D02*
X032331Y007159D01*
X032331Y007155D02*
X032631Y007155D01*
X032831Y007155D02*
X033131Y007155D01*
X033131Y006055D01*
X033331Y006055D02*
X033331Y007159D01*
X033331Y007155D02*
X033631Y007155D01*
X033831Y007155D02*
X034131Y007155D01*
X034131Y006055D01*
X034331Y006055D02*
X034331Y007155D01*
X034631Y007155D01*
X034831Y007155D02*
X035131Y007155D01*
X035131Y006055D01*
X035331Y006055D02*
X035331Y007159D01*
X035331Y007155D02*
X035631Y007155D01*
X035831Y007159D02*
X036940Y007159D01*
X035831Y006255D02*
X035631Y006255D01*
X034831Y006255D02*
X034631Y006255D01*
X033831Y006255D02*
X033631Y006255D01*
X032831Y006255D02*
X032631Y006255D01*
X031681Y006755D02*
X031681Y007155D01*
X031331Y007155D02*
X031331Y006755D01*
X031681Y006755D01*
X032131Y005305D02*
X032131Y005205D01*
X032331Y005205D01*
X032331Y005305D01*
X033131Y005305D02*
X033131Y005205D01*
X033331Y005205D01*
X033331Y005305D01*
X034131Y005305D02*
X034131Y005205D01*
X034331Y005205D01*
X034331Y005305D01*
X035131Y005305D02*
X035131Y005205D01*
X035331Y005205D01*
X035331Y005305D01*
X034331Y007155D02*
X034331Y007159D01*
X038551Y003455D02*
X038553Y003505D01*
X038559Y003555D01*
X038569Y003604D01*
X038583Y003652D01*
X038600Y003699D01*
X038621Y003744D01*
X038646Y003788D01*
X038674Y003829D01*
X038706Y003868D01*
X038740Y003905D01*
X038777Y003939D01*
X038817Y003969D01*
X038859Y003996D01*
X038903Y004020D01*
X038949Y004041D01*
X038996Y004057D01*
X039044Y004070D01*
X039094Y004079D01*
X039143Y004084D01*
X039194Y004085D01*
X039244Y004082D01*
X039293Y004075D01*
X039342Y004064D01*
X039390Y004049D01*
X039436Y004031D01*
X039481Y004009D01*
X039524Y003983D01*
X039565Y003954D01*
X039604Y003922D01*
X039640Y003887D01*
X039672Y003849D01*
X039702Y003809D01*
X039729Y003766D01*
X039752Y003722D01*
X039771Y003676D01*
X039787Y003628D01*
X039799Y003579D01*
X039807Y003530D01*
X039811Y003480D01*
X039811Y003430D01*
X039807Y003380D01*
X039799Y003331D01*
X039787Y003282D01*
X039771Y003234D01*
X039752Y003188D01*
X039729Y003144D01*
X039702Y003101D01*
X039672Y003061D01*
X039640Y003023D01*
X039604Y002988D01*
X039565Y002956D01*
X039524Y002927D01*
X039481Y002901D01*
X039436Y002879D01*
X039390Y002861D01*
X039342Y002846D01*
X039293Y002835D01*
X039244Y002828D01*
X039194Y002825D01*
X039143Y002826D01*
X039094Y002831D01*
X039044Y002840D01*
X038996Y002853D01*
X038949Y002869D01*
X038903Y002890D01*
X038859Y002914D01*
X038817Y002941D01*
X038777Y002971D01*
X038740Y003005D01*
X038706Y003042D01*
X038674Y003081D01*
X038646Y003122D01*
X038621Y003166D01*
X038600Y003211D01*
X038583Y003258D01*
X038569Y003306D01*
X038559Y003355D01*
X038553Y003405D01*
X038551Y003455D01*
X023501Y008555D02*
X023261Y008555D01*
X023101Y008716D01*
X023021Y008716D01*
X023021Y008911D02*
X023181Y009071D01*
X023021Y009231D01*
X023501Y009231D01*
X023501Y009427D02*
X023181Y009427D01*
X023021Y009587D01*
X023181Y009747D01*
X023501Y009747D01*
X023501Y009942D02*
X023021Y010262D01*
X023021Y009942D02*
X023501Y010262D01*
X023261Y009747D02*
X023261Y009427D01*
X023501Y008911D02*
X023021Y008911D01*
X023261Y008555D02*
X023101Y008395D01*
X023021Y008395D01*
X021406Y009705D02*
X021406Y010186D01*
X021086Y010186D02*
X021406Y009705D01*
X021086Y009705D02*
X021086Y010186D01*
X020902Y010186D02*
X020742Y010186D01*
X020822Y010186D02*
X020822Y009705D01*
X020742Y009705D02*
X020902Y009705D01*
X020547Y009705D02*
X020547Y010186D01*
X020386Y010026D01*
X020226Y010186D01*
X020226Y009705D01*
X019871Y009705D02*
X019871Y009945D01*
X020031Y010106D01*
X020031Y010186D01*
X019871Y009945D02*
X019711Y010106D01*
X019711Y010186D01*
X018539Y010146D02*
X018218Y009665D01*
X018023Y009665D02*
X018023Y009986D01*
X017863Y010146D01*
X017703Y009986D01*
X017703Y009665D01*
X017507Y009665D02*
X017507Y010146D01*
X017347Y009986D01*
X017187Y010146D01*
X017187Y009665D01*
X016992Y009665D02*
X016671Y010146D01*
X016992Y010146D02*
X016671Y009665D01*
X015847Y009565D02*
X015847Y010046D01*
X015526Y010046D02*
X015526Y009565D01*
X015343Y009565D02*
X015183Y009565D01*
X015263Y009565D02*
X015263Y010046D01*
X015183Y010046D02*
X015343Y010046D01*
X015526Y010046D02*
X015847Y009565D01*
X014987Y009565D02*
X014987Y010046D01*
X014827Y009886D01*
X014667Y010046D01*
X014667Y009565D01*
X014472Y009565D02*
X014151Y010046D01*
X014472Y010046D02*
X014151Y009565D01*
X017703Y009905D02*
X018023Y009905D01*
X018218Y010146D02*
X018539Y009665D01*
X003391Y009522D02*
X003391Y009215D01*
X003238Y009062D01*
X002624Y009062D01*
X002471Y009215D01*
X002471Y009522D01*
X002624Y009676D01*
X002778Y009983D02*
X002471Y010290D01*
X002778Y010597D01*
X003391Y010597D01*
X003391Y010904D02*
X002471Y010904D01*
X002471Y011364D01*
X002624Y011517D01*
X002931Y011517D01*
X003085Y011364D01*
X003085Y010904D01*
X003085Y011210D02*
X003391Y011517D01*
X003391Y011824D02*
X003391Y012285D01*
X003238Y012438D01*
X002624Y012438D01*
X002471Y012285D01*
X002471Y011824D01*
X003391Y011824D01*
X002931Y010597D02*
X002931Y009983D01*
X002778Y009983D02*
X003391Y009983D01*
X003238Y009676D02*
X003391Y009522D01*
X003238Y007834D02*
X002624Y007834D01*
X002471Y007681D01*
X002471Y007221D01*
X003391Y007221D01*
X003391Y007681D01*
X003238Y007834D01*
X003238Y006914D02*
X003391Y006760D01*
X003391Y006453D01*
X003238Y006300D01*
X002931Y006453D02*
X002931Y006760D01*
X003085Y006914D01*
X003238Y006914D01*
X002624Y006914D02*
X002471Y006760D01*
X002471Y006453D01*
X002624Y006300D01*
X002778Y006300D01*
X002931Y006453D01*
X002051Y033955D02*
X002053Y034005D01*
X002059Y034055D01*
X002069Y034104D01*
X002083Y034152D01*
X002100Y034199D01*
X002121Y034244D01*
X002146Y034288D01*
X002174Y034329D01*
X002206Y034368D01*
X002240Y034405D01*
X002277Y034439D01*
X002317Y034469D01*
X002359Y034496D01*
X002403Y034520D01*
X002449Y034541D01*
X002496Y034557D01*
X002544Y034570D01*
X002594Y034579D01*
X002643Y034584D01*
X002694Y034585D01*
X002744Y034582D01*
X002793Y034575D01*
X002842Y034564D01*
X002890Y034549D01*
X002936Y034531D01*
X002981Y034509D01*
X003024Y034483D01*
X003065Y034454D01*
X003104Y034422D01*
X003140Y034387D01*
X003172Y034349D01*
X003202Y034309D01*
X003229Y034266D01*
X003252Y034222D01*
X003271Y034176D01*
X003287Y034128D01*
X003299Y034079D01*
X003307Y034030D01*
X003311Y033980D01*
X003311Y033930D01*
X003307Y033880D01*
X003299Y033831D01*
X003287Y033782D01*
X003271Y033734D01*
X003252Y033688D01*
X003229Y033644D01*
X003202Y033601D01*
X003172Y033561D01*
X003140Y033523D01*
X003104Y033488D01*
X003065Y033456D01*
X003024Y033427D01*
X002981Y033401D01*
X002936Y033379D01*
X002890Y033361D01*
X002842Y033346D01*
X002793Y033335D01*
X002744Y033328D01*
X002694Y033325D01*
X002643Y033326D01*
X002594Y033331D01*
X002544Y033340D01*
X002496Y033353D01*
X002449Y033369D01*
X002403Y033390D01*
X002359Y033414D01*
X002317Y033441D01*
X002277Y033471D01*
X002240Y033505D01*
X002206Y033542D01*
X002174Y033581D01*
X002146Y033622D01*
X002121Y033666D01*
X002100Y033711D01*
X002083Y033758D01*
X002069Y033806D01*
X002059Y033855D01*
X002053Y033905D01*
X002051Y033955D01*
D13*
X013301Y026036D02*
X013301Y025575D01*
X013301Y025729D02*
X013532Y025729D01*
X013608Y025805D01*
X013608Y025959D01*
X013532Y026036D01*
X013301Y026036D01*
X013455Y025729D02*
X013608Y025575D01*
X013762Y025575D02*
X014069Y025575D01*
X013915Y025575D02*
X013915Y026036D01*
X013762Y025882D01*
X014222Y025882D02*
X014299Y025805D01*
X014529Y025805D01*
X014529Y025652D02*
X014529Y025959D01*
X014452Y026036D01*
X014299Y026036D01*
X014222Y025959D01*
X014222Y025882D01*
X014222Y025652D02*
X014299Y025575D01*
X014452Y025575D01*
X014529Y025652D01*
X014452Y025286D02*
X014529Y025209D01*
X014529Y025132D01*
X014452Y025055D01*
X014299Y025055D01*
X014222Y025132D01*
X014222Y025209D01*
X014299Y025286D01*
X014452Y025286D01*
X014452Y025055D02*
X014529Y024979D01*
X014529Y024902D01*
X014452Y024825D01*
X014299Y024825D01*
X014222Y024902D01*
X014222Y024979D01*
X014299Y025055D01*
X014069Y024825D02*
X013762Y024825D01*
X013915Y024825D02*
X013915Y025286D01*
X013762Y025132D01*
X013608Y025055D02*
X013532Y024979D01*
X013301Y024979D01*
X013301Y024825D02*
X013301Y025286D01*
X013532Y025286D01*
X013608Y025209D01*
X013608Y025055D01*
X013455Y024979D02*
X013608Y024825D01*
X016931Y022049D02*
X016931Y021666D01*
X017008Y021589D01*
X017162Y021589D01*
X017238Y021666D01*
X017238Y022049D01*
X017392Y021973D02*
X017468Y022049D01*
X017622Y022049D01*
X017699Y021973D01*
X017622Y021819D02*
X017468Y021819D01*
X017392Y021896D01*
X017392Y021973D01*
X017545Y022126D02*
X017545Y021512D01*
X017468Y021589D02*
X017622Y021589D01*
X017699Y021666D01*
X017699Y021742D01*
X017622Y021819D01*
X017852Y021819D02*
X017852Y021666D01*
X017929Y021589D01*
X018082Y021589D01*
X018159Y021666D01*
X018159Y021742D01*
X018082Y021819D01*
X017852Y021819D01*
X018006Y021973D01*
X018159Y022049D01*
X017468Y021589D02*
X017392Y021666D01*
X018174Y019383D02*
X018481Y019383D01*
X018328Y019383D02*
X018328Y018922D01*
X018635Y018922D02*
X018635Y019383D01*
X018865Y019383D01*
X018941Y019306D01*
X018941Y019152D01*
X018865Y019076D01*
X018635Y019076D01*
X019095Y019229D02*
X019248Y019383D01*
X019248Y018922D01*
X019095Y018922D02*
X019402Y018922D01*
X019555Y018922D02*
X019862Y018922D01*
X019709Y018922D02*
X019709Y019383D01*
X019555Y019229D01*
X021051Y019109D02*
X021282Y019109D01*
X021358Y019185D01*
X021358Y019339D01*
X021282Y019416D01*
X021051Y019416D01*
X021051Y018955D01*
X021205Y019109D02*
X021358Y018955D01*
X021512Y018955D02*
X021819Y018955D01*
X021665Y018955D02*
X021665Y019416D01*
X021512Y019262D01*
X022451Y019602D02*
X022451Y019986D01*
X022758Y019986D02*
X022758Y019602D01*
X022682Y019525D01*
X022528Y019525D01*
X022451Y019602D01*
X022912Y019525D02*
X023219Y019525D01*
X023065Y019525D02*
X023065Y019986D01*
X022912Y019832D01*
X031901Y014485D02*
X032208Y014485D01*
X032362Y014485D02*
X032515Y014562D01*
X032592Y014562D01*
X032669Y014485D01*
X032669Y014332D01*
X032592Y014255D01*
X032438Y014255D01*
X032362Y014332D01*
X032362Y014485D02*
X032362Y014716D01*
X032669Y014716D01*
X032822Y014716D02*
X032822Y014409D01*
X032976Y014255D01*
X033129Y014409D01*
X033129Y014716D01*
X033052Y013776D02*
X033282Y013776D01*
X033359Y013699D01*
X033359Y013392D01*
X033282Y013315D01*
X033052Y013315D01*
X033052Y013776D01*
X032899Y013776D02*
X032899Y013315D01*
X032592Y013776D01*
X032592Y013315D01*
X032438Y013392D02*
X032362Y013315D01*
X032208Y013315D01*
X032131Y013392D01*
X032131Y013699D01*
X032208Y013776D01*
X032362Y013776D01*
X032438Y013699D01*
X032438Y013545D02*
X032285Y013545D01*
X032438Y013545D02*
X032438Y013392D01*
X032532Y012796D02*
X032762Y012796D01*
X032839Y012719D01*
X032839Y012412D01*
X032762Y012335D01*
X032532Y012335D01*
X032532Y012796D01*
X032378Y012719D02*
X032302Y012796D01*
X032148Y012796D01*
X032071Y012719D01*
X032071Y012642D01*
X032148Y012565D01*
X032302Y012565D01*
X032378Y012489D01*
X032378Y012412D01*
X032302Y012335D01*
X032148Y012335D01*
X032071Y012412D01*
X032178Y011596D02*
X032101Y011519D01*
X032101Y011442D01*
X032178Y011365D01*
X032332Y011365D01*
X032408Y011289D01*
X032408Y011212D01*
X032332Y011135D01*
X032178Y011135D01*
X032101Y011212D01*
X032178Y011596D02*
X032332Y011596D01*
X032408Y011519D01*
X032562Y011519D02*
X032562Y011212D01*
X032638Y011135D01*
X032792Y011135D01*
X032869Y011212D01*
X033022Y011135D02*
X033329Y011135D01*
X033022Y011135D02*
X033022Y011596D01*
X032869Y011519D02*
X032792Y011596D01*
X032638Y011596D01*
X032562Y011519D01*
X032992Y012335D02*
X032992Y012642D01*
X033146Y012796D01*
X033299Y012642D01*
X033299Y012335D01*
X033299Y012565D02*
X032992Y012565D01*
X032055Y014332D02*
X032055Y014639D01*
X035411Y010872D02*
X035411Y010565D01*
X035411Y010718D02*
X034951Y010718D01*
X035105Y010565D01*
X035028Y010411D02*
X034951Y010335D01*
X034951Y010181D01*
X035028Y010104D01*
X035335Y010104D01*
X035411Y010181D01*
X035411Y010335D01*
X035335Y010411D01*
X035411Y009951D02*
X035411Y009798D01*
X035411Y009874D02*
X034951Y009874D01*
X034951Y009798D02*
X034951Y009951D01*
X035701Y008997D02*
X035761Y008877D01*
X035881Y008757D01*
X035881Y008937D01*
X035941Y008997D01*
X036001Y008997D01*
X036061Y008937D01*
X036061Y008817D01*
X036001Y008757D01*
X035881Y008757D01*
X035761Y008629D02*
X035701Y008569D01*
X035701Y008449D01*
X035761Y008389D01*
X036001Y008389D01*
X036061Y008449D01*
X036061Y008569D01*
X036001Y008629D01*
X032542Y007767D02*
X032542Y007699D01*
X032474Y007630D01*
X032542Y007562D01*
X032542Y007494D01*
X032474Y007425D01*
X032337Y007425D01*
X032269Y007494D01*
X032128Y007562D02*
X032128Y007836D01*
X032269Y007767D02*
X032337Y007836D01*
X032474Y007836D01*
X032542Y007767D01*
X032474Y007630D02*
X032406Y007630D01*
X032128Y007562D02*
X031991Y007425D01*
X031854Y007562D01*
X031854Y007836D01*
X031440Y007836D02*
X031440Y007425D01*
X031714Y007425D01*
X031299Y007630D02*
X031231Y007562D01*
X031026Y007562D01*
X031026Y007425D02*
X031026Y007836D01*
X031231Y007836D01*
X031299Y007767D01*
X031299Y007630D01*
X030885Y007630D02*
X030885Y007494D01*
X030817Y007425D01*
X030680Y007425D01*
X030611Y007494D01*
X030611Y007767D01*
X030680Y007836D01*
X030817Y007836D01*
X030885Y007767D01*
X030885Y007630D02*
X030748Y007630D01*
X028781Y006346D02*
X028551Y006115D01*
X028858Y006115D01*
X028781Y005885D02*
X028781Y006346D01*
X028244Y006346D02*
X028244Y005885D01*
X028091Y005885D02*
X028398Y005885D01*
X028091Y006192D02*
X028244Y006346D01*
X027937Y006269D02*
X027937Y006115D01*
X027860Y006039D01*
X027630Y006039D01*
X027784Y006039D02*
X027937Y005885D01*
X027630Y005885D02*
X027630Y006346D01*
X027860Y006346D01*
X027937Y006269D01*
X027408Y006269D02*
X027408Y005962D01*
X027331Y005885D01*
X027178Y005885D01*
X027101Y005962D01*
X027408Y006269D01*
X027331Y006346D01*
X027178Y006346D01*
X027101Y006269D01*
X027101Y005962D01*
X026948Y005885D02*
X026641Y005885D01*
X026948Y006192D01*
X026948Y006269D01*
X026871Y006346D01*
X026717Y006346D01*
X026641Y006269D01*
X026487Y006269D02*
X026487Y006115D01*
X026410Y006039D01*
X026180Y006039D01*
X026235Y006072D02*
X026311Y005995D01*
X026311Y005842D01*
X026235Y005765D01*
X026180Y005885D02*
X026180Y006346D01*
X026410Y006346D01*
X026487Y006269D01*
X026334Y006039D02*
X026487Y005885D01*
X026235Y006072D02*
X026081Y006072D01*
X026005Y005995D01*
X026005Y005918D01*
X026081Y005765D01*
X025851Y005765D01*
X025851Y006072D01*
X025851Y005458D02*
X026311Y005458D01*
X026311Y005611D02*
X026311Y005304D01*
X026311Y005151D02*
X026158Y004998D01*
X026158Y005074D02*
X026158Y004844D01*
X026311Y004844D02*
X025851Y004844D01*
X025851Y005074D01*
X025928Y005151D01*
X026081Y005151D01*
X026158Y005074D01*
X026005Y005304D02*
X025851Y005458D01*
X024671Y007364D02*
X024211Y007364D01*
X024211Y007594D01*
X024288Y007671D01*
X024441Y007671D01*
X024518Y007594D01*
X024518Y007364D01*
X024518Y007518D02*
X024671Y007671D01*
X024671Y007824D02*
X024365Y008131D01*
X024288Y008131D01*
X024211Y008055D01*
X024211Y007901D01*
X024288Y007824D01*
X024671Y007824D02*
X024671Y008131D01*
X024671Y008285D02*
X024671Y008592D01*
X024671Y008438D02*
X024211Y008438D01*
X024365Y008285D01*
X025521Y010015D02*
X025521Y010476D01*
X025752Y010476D01*
X025828Y010399D01*
X025828Y010245D01*
X025752Y010169D01*
X025521Y010169D01*
X025675Y010169D02*
X025828Y010015D01*
X025982Y010015D02*
X026289Y010322D01*
X026289Y010399D01*
X026212Y010476D01*
X026058Y010476D01*
X025982Y010399D01*
X025982Y010015D02*
X026289Y010015D01*
X026442Y010015D02*
X026749Y010322D01*
X026749Y010399D01*
X026672Y010476D01*
X026519Y010476D01*
X026442Y010399D01*
X026442Y010015D02*
X026749Y010015D01*
X029928Y005672D02*
X030005Y005672D01*
X030081Y005595D01*
X030158Y005672D01*
X030235Y005672D01*
X030311Y005595D01*
X030311Y005442D01*
X030235Y005365D01*
X030311Y005211D02*
X030311Y004904D01*
X030311Y004751D02*
X030158Y004598D01*
X030158Y004674D02*
X030158Y004444D01*
X030311Y004444D02*
X029851Y004444D01*
X029851Y004674D01*
X029928Y004751D01*
X030081Y004751D01*
X030158Y004674D01*
X030005Y004904D02*
X029851Y005058D01*
X030311Y005058D01*
X029928Y005365D02*
X029851Y005442D01*
X029851Y005595D01*
X029928Y005672D01*
X030081Y005595D02*
X030081Y005518D01*
X020041Y005799D02*
X019521Y005799D01*
X019521Y005972D02*
X019521Y005625D01*
X019321Y005839D02*
X018801Y005839D01*
X018801Y006012D02*
X018801Y005665D01*
X018888Y006181D02*
X018801Y006268D01*
X018801Y006441D01*
X018888Y006528D01*
X018974Y006528D01*
X019321Y006181D01*
X019321Y006528D01*
X019521Y006401D02*
X019521Y006228D01*
X019608Y006141D01*
X019521Y006401D02*
X019608Y006488D01*
X019694Y006488D01*
X020041Y006141D01*
X020041Y006488D01*
X019781Y006657D02*
X019781Y007003D01*
X019651Y007075D02*
X020035Y007075D01*
X020111Y007152D01*
X020111Y007305D01*
X020035Y007382D01*
X019651Y007382D01*
X019728Y007536D02*
X019651Y007612D01*
X019651Y007766D01*
X019728Y007843D01*
X019728Y007996D02*
X019651Y008073D01*
X019651Y008226D01*
X019728Y008303D01*
X019805Y008303D01*
X020111Y007996D01*
X020111Y008303D01*
X020035Y007843D02*
X019958Y007843D01*
X019881Y007766D01*
X019881Y007612D01*
X019805Y007536D01*
X019728Y007536D01*
X019574Y007689D02*
X020188Y007689D01*
X020111Y007612D02*
X020111Y007766D01*
X020035Y007843D01*
X020111Y007612D02*
X020035Y007536D01*
X019955Y006830D02*
X019608Y006830D01*
X019061Y006697D02*
X019061Y007043D01*
X016461Y007302D02*
X016385Y007225D01*
X016001Y007225D01*
X015761Y007103D02*
X015761Y006757D01*
X015588Y006930D02*
X015935Y006930D01*
X016021Y006588D02*
X016021Y006241D01*
X016021Y006414D02*
X015501Y006414D01*
X015674Y006241D01*
X015501Y006072D02*
X015501Y005725D01*
X015501Y005899D02*
X016021Y005899D01*
X015171Y005929D02*
X014651Y005929D01*
X014651Y006102D02*
X014651Y005755D01*
X014824Y006271D02*
X014651Y006444D01*
X015171Y006444D01*
X015171Y006271D02*
X015171Y006618D01*
X014911Y006787D02*
X014911Y007133D01*
X016001Y007532D02*
X016385Y007532D01*
X016461Y007455D01*
X016461Y007302D01*
X016385Y007686D02*
X016461Y007762D01*
X016461Y007916D01*
X016385Y007993D01*
X016308Y007993D01*
X016231Y007916D01*
X016231Y007762D01*
X016155Y007686D01*
X016078Y007686D01*
X016001Y007762D01*
X016001Y007916D01*
X016078Y007993D01*
X016001Y008146D02*
X016001Y008453D01*
X016078Y008453D01*
X016385Y008146D01*
X016461Y008146D01*
X016538Y007839D02*
X015924Y007839D01*
X013948Y007809D02*
X013948Y007732D01*
X013871Y007655D01*
X013718Y007655D01*
X013641Y007732D01*
X013641Y007809D01*
X013718Y007886D01*
X013871Y007886D01*
X013948Y007809D01*
X013871Y007655D02*
X013948Y007579D01*
X013948Y007502D01*
X013871Y007425D01*
X013718Y007425D01*
X013641Y007502D01*
X013641Y007579D01*
X013718Y007655D01*
X013488Y007655D02*
X013411Y007579D01*
X013181Y007579D01*
X013334Y007579D02*
X013488Y007425D01*
X013488Y007655D02*
X013488Y007809D01*
X013411Y007886D01*
X013181Y007886D01*
X013181Y007425D01*
X013231Y006886D02*
X013461Y006886D01*
X013538Y006809D01*
X013538Y006655D01*
X013461Y006579D01*
X013231Y006579D01*
X013384Y006579D02*
X013538Y006425D01*
X013691Y006425D02*
X013691Y006502D01*
X013998Y006809D01*
X013998Y006886D01*
X013691Y006886D01*
X013231Y006886D02*
X013231Y006425D01*
X013231Y005986D02*
X013461Y005986D01*
X013538Y005909D01*
X013538Y005755D01*
X013461Y005679D01*
X013231Y005679D01*
X013384Y005679D02*
X013538Y005525D01*
X013691Y005602D02*
X013768Y005525D01*
X013921Y005525D01*
X013998Y005602D01*
X013998Y005679D01*
X013921Y005755D01*
X013691Y005755D01*
X013691Y005602D01*
X013691Y005755D02*
X013844Y005909D01*
X013998Y005986D01*
X013231Y005986D02*
X013231Y005525D01*
X013158Y010325D02*
X013158Y010555D01*
X013081Y010632D01*
X012928Y010632D01*
X012851Y010555D01*
X012851Y010325D01*
X013311Y010325D01*
X013158Y010479D02*
X013311Y010632D01*
X013235Y010786D02*
X013311Y010862D01*
X013311Y011016D01*
X013235Y011093D01*
X013081Y011093D01*
X013005Y011016D01*
X013005Y010939D01*
X013081Y010786D01*
X012851Y010786D01*
X012851Y011093D01*
X008211Y015875D02*
X007751Y015875D01*
X007751Y016105D01*
X007828Y016182D01*
X007981Y016182D01*
X008058Y016105D01*
X008058Y015875D01*
X008058Y016029D02*
X008211Y016182D01*
X008211Y016336D02*
X007905Y016643D01*
X007828Y016643D01*
X007751Y016566D01*
X007751Y016412D01*
X007828Y016336D01*
X008211Y016336D02*
X008211Y016643D01*
X008135Y016796D02*
X008211Y016873D01*
X008211Y017026D01*
X008135Y017103D01*
X008058Y017103D01*
X007981Y017026D01*
X007981Y016949D01*
X007981Y017026D02*
X007905Y017103D01*
X007828Y017103D01*
X007751Y017026D01*
X007751Y016873D01*
X007828Y016796D01*
X029901Y029045D02*
X029901Y029506D01*
X030131Y029506D01*
X030208Y029429D01*
X030208Y029275D01*
X030131Y029199D01*
X029901Y029199D01*
X030054Y029199D02*
X030208Y029045D01*
X030361Y029122D02*
X030438Y029045D01*
X030591Y029045D01*
X030668Y029122D01*
X030668Y029429D01*
X030591Y029506D01*
X030438Y029506D01*
X030361Y029429D01*
X030361Y029352D01*
X030438Y029275D01*
X030668Y029275D01*
X035831Y026035D02*
X036061Y025805D01*
X036061Y026112D01*
X036291Y026035D02*
X035831Y026035D01*
X035908Y025651D02*
X036061Y025651D01*
X036138Y025575D01*
X036138Y025345D01*
X036138Y025498D02*
X036291Y025651D01*
X036291Y025345D02*
X035831Y025345D01*
X035831Y025575D01*
X035908Y025651D01*
D14*
X035031Y024255D02*
X032531Y024255D01*
X032531Y016255D01*
X035031Y016255D01*
X035031Y024255D01*
X033831Y028155D02*
X033831Y028455D01*
X033297Y027575D02*
X033235Y027606D01*
X033176Y027641D01*
X033118Y027678D01*
X033063Y027719D01*
X033009Y027763D01*
X032959Y027810D01*
X032911Y027859D01*
X032866Y027911D01*
X032823Y027965D01*
X032784Y028022D01*
X032748Y028080D01*
X032715Y028141D01*
X032686Y028203D01*
X032660Y028267D01*
X032638Y028332D01*
X032619Y028398D01*
X032604Y028466D01*
X032593Y028533D01*
X032585Y028602D01*
X032581Y028671D01*
X032581Y028739D01*
X032585Y028808D01*
X032593Y028877D01*
X032604Y028944D01*
X032619Y029012D01*
X032638Y029078D01*
X032660Y029143D01*
X032686Y029207D01*
X032715Y029269D01*
X032748Y029330D01*
X032784Y029388D01*
X032823Y029445D01*
X032866Y029499D01*
X032911Y029551D01*
X032959Y029600D01*
X033009Y029647D01*
X033063Y029691D01*
X033118Y029732D01*
X033176Y029769D01*
X033235Y029804D01*
X033297Y029835D01*
X033831Y029255D02*
X033831Y029005D01*
X034231Y029005D01*
X034231Y028805D01*
X033431Y028805D01*
X033431Y029005D01*
X033831Y029005D01*
X033981Y029205D02*
X034181Y029205D01*
X034081Y029305D02*
X034081Y029105D01*
X034365Y029835D02*
X034427Y029804D01*
X034486Y029769D01*
X034544Y029732D01*
X034599Y029691D01*
X034653Y029647D01*
X034703Y029600D01*
X034751Y029551D01*
X034796Y029499D01*
X034839Y029445D01*
X034878Y029388D01*
X034914Y029330D01*
X034947Y029269D01*
X034976Y029207D01*
X035002Y029143D01*
X035024Y029078D01*
X035043Y029012D01*
X035058Y028944D01*
X035069Y028877D01*
X035077Y028808D01*
X035081Y028739D01*
X035081Y028671D01*
X035077Y028602D01*
X035069Y028533D01*
X035058Y028466D01*
X035043Y028398D01*
X035024Y028332D01*
X035002Y028267D01*
X034976Y028203D01*
X034947Y028141D01*
X034914Y028080D01*
X034878Y028022D01*
X034839Y027965D01*
X034796Y027911D01*
X034751Y027859D01*
X034703Y027810D01*
X034653Y027763D01*
X034599Y027719D01*
X034544Y027678D01*
X034486Y027641D01*
X034427Y027606D01*
X034365Y027575D01*
X028378Y027905D02*
X028294Y027822D01*
X028044Y027822D01*
X028044Y027655D02*
X028044Y028156D01*
X028294Y028156D01*
X028378Y028072D01*
X028378Y027905D01*
X027862Y027739D02*
X027862Y028072D01*
X027779Y028156D01*
X027612Y028156D01*
X027528Y028072D01*
X027528Y027739D01*
X027612Y027655D01*
X027779Y027655D01*
X027862Y027739D01*
X027346Y028156D02*
X027013Y028156D01*
X027179Y028156D02*
X027179Y027655D01*
X026831Y027739D02*
X026747Y027655D01*
X026580Y027655D01*
X026497Y027739D01*
X026580Y027905D02*
X026747Y027905D01*
X026831Y027822D01*
X026831Y027739D01*
X026580Y027905D02*
X026497Y027989D01*
X026497Y028072D01*
X026580Y028156D01*
X026747Y028156D01*
X026831Y028072D01*
X026838Y028405D02*
X026725Y028405D01*
X026668Y028462D01*
X026725Y028575D02*
X026838Y028575D01*
X026895Y028519D01*
X026895Y028462D01*
X026838Y028405D01*
X026725Y028575D02*
X026668Y028632D01*
X026668Y028689D01*
X026725Y028746D01*
X026838Y028746D01*
X026895Y028689D01*
X027036Y028746D02*
X027263Y028746D01*
X027150Y028746D02*
X027150Y028405D01*
X027405Y028462D02*
X027405Y028689D01*
X027461Y028746D01*
X027575Y028746D01*
X027632Y028689D01*
X027632Y028462D01*
X027575Y028405D01*
X027461Y028405D01*
X027405Y028462D01*
X027773Y028405D02*
X027773Y028746D01*
X027943Y028746D01*
X028000Y028689D01*
X028000Y028575D01*
X027943Y028519D01*
X027773Y028519D01*
X026527Y028405D02*
X026300Y028405D01*
X026300Y028746D01*
X026527Y028746D01*
X026413Y028575D02*
X026300Y028575D01*
X026315Y028156D02*
X025981Y028156D01*
X025981Y027655D01*
X026315Y027655D01*
X026148Y027905D02*
X025981Y027905D01*
X021181Y029705D02*
X021181Y030205D01*
X020931Y030455D01*
X021181Y030705D01*
X021181Y031205D01*
X020931Y031455D01*
X020431Y031455D01*
X020181Y031205D01*
X020181Y030705D01*
X020431Y030455D01*
X020931Y030455D01*
X020431Y030455D02*
X020181Y030205D01*
X020181Y029705D01*
X020431Y029455D01*
X020931Y029455D01*
X021181Y029705D01*
X017381Y030355D02*
X017131Y030105D01*
X016631Y030105D01*
X016381Y030355D01*
X016381Y030855D01*
X016631Y031105D01*
X017131Y031105D01*
X017381Y030855D01*
X017381Y030355D01*
X013731Y028386D02*
X013505Y028045D01*
X013363Y028045D02*
X013363Y028272D01*
X013250Y028386D01*
X013136Y028272D01*
X013136Y028045D01*
X012995Y028045D02*
X012995Y028386D01*
X012881Y028272D01*
X012768Y028386D01*
X012768Y028045D01*
X012627Y028215D02*
X012400Y028215D01*
X012258Y028329D02*
X012031Y028102D01*
X012031Y028045D01*
X012258Y028045D01*
X012258Y028329D02*
X012258Y028386D01*
X012031Y028386D01*
X011281Y027705D02*
X011281Y027205D01*
X011031Y026955D01*
X010531Y026955D01*
X010281Y027205D01*
X010031Y026955D01*
X009531Y026955D01*
X009281Y027205D01*
X009281Y027705D01*
X009531Y027955D01*
X010031Y027955D01*
X010281Y027705D01*
X010531Y027955D01*
X011031Y027955D01*
X011281Y027705D01*
X010281Y027705D02*
X010281Y027205D01*
X007999Y028145D02*
X007999Y028486D01*
X007772Y028486D02*
X007772Y028145D01*
X007640Y028145D02*
X007526Y028145D01*
X007583Y028145D02*
X007583Y028486D01*
X007526Y028486D02*
X007640Y028486D01*
X007772Y028486D02*
X007999Y028145D01*
X007385Y028145D02*
X007385Y028486D01*
X007271Y028372D01*
X007158Y028486D01*
X007158Y028145D01*
X007017Y028315D02*
X006790Y028315D01*
X006648Y028429D02*
X006421Y028202D01*
X006421Y028145D01*
X006648Y028145D01*
X006648Y028429D02*
X006648Y028486D01*
X006421Y028486D01*
X003209Y028729D02*
X003126Y028645D01*
X002876Y028645D01*
X002876Y029146D01*
X003126Y029146D01*
X003209Y029062D01*
X003209Y028979D01*
X003126Y028895D01*
X002876Y028895D01*
X002694Y028812D02*
X002694Y028729D01*
X002610Y028645D01*
X002444Y028645D01*
X002360Y028729D01*
X002178Y028729D02*
X002178Y029146D01*
X002360Y029062D02*
X002360Y028979D01*
X002444Y028895D01*
X002610Y028895D01*
X002694Y028812D01*
X002694Y029062D02*
X002610Y029146D01*
X002444Y029146D01*
X002360Y029062D01*
X002178Y028729D02*
X002095Y028645D01*
X001928Y028645D01*
X001845Y028729D01*
X001845Y029146D01*
X003126Y028895D02*
X003209Y028812D01*
X003209Y028729D01*
X005431Y024555D02*
X005431Y022805D01*
X005481Y022805D01*
X005481Y022305D01*
X005431Y022305D01*
X005431Y021355D01*
X005831Y021355D01*
X005931Y021355D01*
X005931Y024055D01*
X008431Y024055D01*
X008431Y017055D01*
X005931Y017055D01*
X005931Y018755D01*
X005931Y019355D01*
X005931Y019755D01*
X005831Y019755D01*
X005431Y019755D01*
X005431Y021355D01*
X005931Y021355D02*
X006231Y021355D01*
X006231Y019755D01*
X005931Y019755D01*
X005631Y019555D02*
X005631Y019355D01*
X005631Y018755D01*
X005831Y018755D01*
X005931Y018755D01*
X005631Y018755D02*
X005631Y018555D01*
X005431Y018405D01*
X005431Y016555D01*
X008931Y016555D01*
X008931Y017055D01*
X009031Y017055D01*
X009031Y017555D01*
X008931Y017555D01*
X008931Y020305D01*
X009031Y020305D01*
X009031Y020805D01*
X008931Y020805D01*
X008931Y023555D01*
X009031Y023555D01*
X009031Y024055D01*
X008931Y024055D01*
X008931Y024555D01*
X005431Y024555D01*
X002181Y022705D02*
X002181Y022205D01*
X001931Y021955D01*
X002181Y021705D01*
X002181Y021205D01*
X001931Y020955D01*
X002181Y020705D01*
X002181Y020205D01*
X001931Y019955D01*
X002181Y019705D01*
X002181Y019205D01*
X001931Y018955D01*
X002181Y018705D01*
X002181Y018205D01*
X001931Y017955D01*
X002181Y017705D01*
X002181Y017205D01*
X001931Y016955D01*
X001431Y016955D01*
X001181Y017205D01*
X001181Y017705D01*
X001431Y017955D01*
X001181Y018205D01*
X001181Y018705D01*
X001431Y018955D01*
X001931Y018955D01*
X001431Y018955D02*
X001181Y019205D01*
X001181Y019705D01*
X001431Y019955D01*
X001181Y020205D01*
X001181Y020705D01*
X001431Y020955D01*
X001181Y021205D01*
X001181Y021705D01*
X001431Y021955D01*
X001181Y022205D01*
X001181Y022705D01*
X001431Y022955D01*
X001931Y022955D01*
X002181Y022705D01*
X001931Y021955D02*
X001431Y021955D01*
X001431Y020955D02*
X001931Y020955D01*
X001931Y019955D02*
X001431Y019955D01*
X002981Y019355D02*
X002981Y019005D01*
X002981Y018055D01*
X002981Y017655D01*
X003781Y017305D02*
X003881Y017305D01*
X003881Y017205D01*
X004481Y017205D01*
X004481Y017305D01*
X004581Y017305D01*
X005381Y017655D02*
X005381Y018005D01*
X005381Y019005D01*
X005381Y019355D01*
X005631Y019355D02*
X005831Y019355D01*
X005931Y019355D01*
X005631Y019555D02*
X005431Y019705D01*
X005431Y019755D01*
X004581Y019705D02*
X004481Y019705D01*
X004481Y019805D01*
X003881Y019805D01*
X003881Y019705D01*
X003781Y019705D01*
X004081Y018505D02*
X004083Y018525D01*
X004089Y018543D01*
X004098Y018561D01*
X004110Y018576D01*
X004125Y018588D01*
X004143Y018597D01*
X004161Y018603D01*
X004181Y018605D01*
X004201Y018603D01*
X004219Y018597D01*
X004237Y018588D01*
X004252Y018576D01*
X004264Y018561D01*
X004273Y018543D01*
X004279Y018525D01*
X004281Y018505D01*
X004279Y018485D01*
X004273Y018467D01*
X004264Y018449D01*
X004252Y018434D01*
X004237Y018422D01*
X004219Y018413D01*
X004201Y018407D01*
X004181Y018405D01*
X004161Y018407D01*
X004143Y018413D01*
X004125Y018422D01*
X004110Y018434D01*
X004098Y018449D01*
X004089Y018467D01*
X004083Y018485D01*
X004081Y018505D01*
X003481Y018505D02*
X003483Y018557D01*
X003489Y018609D01*
X003499Y018661D01*
X003512Y018711D01*
X003529Y018761D01*
X003550Y018809D01*
X003575Y018855D01*
X003603Y018899D01*
X003634Y018941D01*
X003668Y018981D01*
X003705Y019018D01*
X003745Y019052D01*
X003787Y019083D01*
X003831Y019111D01*
X003877Y019136D01*
X003925Y019157D01*
X003975Y019174D01*
X004025Y019187D01*
X004077Y019197D01*
X004129Y019203D01*
X004181Y019205D01*
X004233Y019203D01*
X004285Y019197D01*
X004337Y019187D01*
X004387Y019174D01*
X004437Y019157D01*
X004485Y019136D01*
X004531Y019111D01*
X004575Y019083D01*
X004617Y019052D01*
X004657Y019018D01*
X004694Y018981D01*
X004728Y018941D01*
X004759Y018899D01*
X004787Y018855D01*
X004812Y018809D01*
X004833Y018761D01*
X004850Y018711D01*
X004863Y018661D01*
X004873Y018609D01*
X004879Y018557D01*
X004881Y018505D01*
X004879Y018453D01*
X004873Y018401D01*
X004863Y018349D01*
X004850Y018299D01*
X004833Y018249D01*
X004812Y018201D01*
X004787Y018155D01*
X004759Y018111D01*
X004728Y018069D01*
X004694Y018029D01*
X004657Y017992D01*
X004617Y017958D01*
X004575Y017927D01*
X004531Y017899D01*
X004485Y017874D01*
X004437Y017853D01*
X004387Y017836D01*
X004337Y017823D01*
X004285Y017813D01*
X004233Y017807D01*
X004181Y017805D01*
X004129Y017807D01*
X004077Y017813D01*
X004025Y017823D01*
X003975Y017836D01*
X003925Y017853D01*
X003877Y017874D01*
X003831Y017899D01*
X003787Y017927D01*
X003745Y017958D01*
X003705Y017992D01*
X003668Y018029D01*
X003634Y018069D01*
X003603Y018111D01*
X003575Y018155D01*
X003550Y018201D01*
X003529Y018249D01*
X003512Y018299D01*
X003499Y018349D01*
X003489Y018401D01*
X003483Y018453D01*
X003481Y018505D01*
X001931Y017955D02*
X001431Y017955D01*
X002541Y015616D02*
X002541Y015115D01*
X002708Y015282D01*
X002875Y015115D01*
X002875Y015616D01*
X003057Y015449D02*
X003224Y015616D01*
X003391Y015449D01*
X003391Y015115D01*
X003573Y015115D02*
X003906Y015115D01*
X004088Y015115D02*
X004255Y015115D01*
X004172Y015115D02*
X004172Y015616D01*
X004255Y015616D02*
X004088Y015616D01*
X003573Y015616D02*
X003573Y015115D01*
X003391Y015365D02*
X003057Y015365D01*
X003057Y015449D02*
X003057Y015115D01*
X004948Y015616D02*
X005281Y015616D01*
X005114Y015616D02*
X005114Y015115D01*
X005463Y015199D02*
X005463Y015365D01*
X005547Y015449D01*
X005714Y015449D01*
X005797Y015365D01*
X005797Y015282D01*
X005463Y015282D01*
X005463Y015199D02*
X005547Y015115D01*
X005714Y015115D01*
X005979Y015199D02*
X006062Y015115D01*
X006313Y015115D01*
X006495Y015115D02*
X006495Y015616D01*
X006578Y015449D02*
X006745Y015449D01*
X006828Y015365D01*
X006828Y015115D01*
X007010Y015115D02*
X007010Y015449D01*
X007260Y015449D01*
X007344Y015365D01*
X007344Y015115D01*
X007526Y015199D02*
X007609Y015115D01*
X007776Y015115D01*
X007859Y015199D01*
X007859Y015365D01*
X007776Y015449D01*
X007609Y015449D01*
X007526Y015365D01*
X007526Y015199D01*
X008041Y015115D02*
X008208Y015115D01*
X008125Y015115D02*
X008125Y015616D01*
X008041Y015616D01*
X008385Y015365D02*
X008385Y015199D01*
X008469Y015115D01*
X008635Y015115D01*
X008719Y015199D01*
X008719Y015365D01*
X008635Y015449D01*
X008469Y015449D01*
X008385Y015365D01*
X008901Y015365D02*
X008901Y015199D01*
X008984Y015115D01*
X009234Y015115D01*
X009234Y015032D02*
X009234Y015449D01*
X008984Y015449D01*
X008901Y015365D01*
X009068Y014949D02*
X009151Y014949D01*
X009234Y015032D01*
X009416Y015115D02*
X009583Y015115D01*
X009500Y015115D02*
X009500Y015449D01*
X009416Y015449D01*
X009500Y015616D02*
X009500Y015699D01*
X009760Y015365D02*
X009844Y015449D01*
X010010Y015449D01*
X010094Y015365D01*
X010094Y015282D01*
X009760Y015282D01*
X009760Y015199D02*
X009760Y015365D01*
X009760Y015199D02*
X009844Y015115D01*
X010010Y015115D01*
X010276Y015115D02*
X010526Y015115D01*
X010609Y015199D01*
X010526Y015282D01*
X010359Y015282D01*
X010276Y015365D01*
X010359Y015449D01*
X010609Y015449D01*
X011307Y015616D02*
X011307Y015115D01*
X011641Y015115D01*
X011823Y015115D02*
X012156Y015115D01*
X012338Y015199D02*
X012422Y015115D01*
X012589Y015115D01*
X012672Y015199D01*
X012672Y015532D02*
X012589Y015616D01*
X012422Y015616D01*
X012338Y015532D01*
X012338Y015199D01*
X011823Y015115D02*
X011823Y015616D01*
X012931Y015919D02*
X013015Y015835D01*
X013182Y015835D01*
X013265Y015919D01*
X013265Y016085D01*
X013098Y016085D01*
X012931Y015919D02*
X012931Y016252D01*
X013015Y016336D01*
X013182Y016336D01*
X013265Y016252D01*
X013447Y016085D02*
X013530Y016169D01*
X013697Y016169D01*
X013781Y016085D01*
X013781Y016002D01*
X013447Y016002D01*
X013447Y015919D02*
X013447Y016085D01*
X013447Y015919D02*
X013530Y015835D01*
X013697Y015835D01*
X013963Y015835D02*
X013963Y016169D01*
X014213Y016169D01*
X014296Y016085D01*
X014296Y015835D01*
X014478Y015919D02*
X014478Y016085D01*
X014562Y016169D01*
X014729Y016169D01*
X014812Y016085D01*
X014812Y016002D01*
X014478Y016002D01*
X014478Y015919D02*
X014562Y015835D01*
X014729Y015835D01*
X014994Y015835D02*
X014994Y016169D01*
X015161Y016169D02*
X015244Y016169D01*
X015161Y016169D02*
X014994Y016002D01*
X015424Y015919D02*
X015507Y015835D01*
X015757Y015835D01*
X015757Y016085D01*
X015674Y016169D01*
X015507Y016169D01*
X015507Y016002D02*
X015757Y016002D01*
X015939Y016169D02*
X016106Y016169D01*
X016023Y016252D02*
X016023Y015919D01*
X016106Y015835D01*
X016283Y015835D02*
X016450Y015835D01*
X016366Y015835D02*
X016366Y016169D01*
X016283Y016169D01*
X016366Y016336D02*
X016366Y016419D01*
X016627Y016085D02*
X016627Y015919D01*
X016710Y015835D01*
X016877Y015835D01*
X016960Y015919D01*
X016960Y016085D01*
X016877Y016169D01*
X016710Y016169D01*
X016627Y016085D01*
X017142Y016169D02*
X017142Y015835D01*
X017142Y016169D02*
X017393Y016169D01*
X017476Y016085D01*
X017476Y015835D01*
X018174Y015835D02*
X018507Y015835D01*
X018340Y015835D02*
X018340Y016336D01*
X018174Y016169D01*
X018689Y015919D02*
X018689Y015835D01*
X018773Y015835D01*
X018773Y015919D01*
X018689Y015919D01*
X018947Y015919D02*
X019030Y015835D01*
X019197Y015835D01*
X019281Y015919D01*
X019281Y016002D01*
X019197Y016085D01*
X019114Y016085D01*
X019197Y016085D02*
X019281Y016169D01*
X019281Y016252D01*
X019197Y016336D01*
X019030Y016336D01*
X018947Y016252D01*
X018901Y013664D02*
X019241Y013437D01*
X019241Y013296D02*
X019015Y013296D01*
X018901Y013182D01*
X019015Y013069D01*
X019241Y013069D01*
X019241Y012927D02*
X018901Y012927D01*
X019015Y012814D01*
X018901Y012700D01*
X019241Y012700D01*
X019071Y012559D02*
X019071Y012332D01*
X018901Y012191D02*
X019241Y011964D01*
X019241Y012191D02*
X018901Y011964D01*
X019071Y013069D02*
X019071Y013296D01*
X018901Y013437D02*
X019241Y013664D01*
X016441Y013334D02*
X016101Y013334D01*
X016101Y013107D02*
X016441Y013334D01*
X016441Y013107D02*
X016101Y013107D01*
X016101Y012975D02*
X016101Y012861D01*
X016101Y012918D02*
X016441Y012918D01*
X016441Y012861D02*
X016441Y012975D01*
X016441Y012720D02*
X016101Y012720D01*
X016215Y012607D01*
X016101Y012493D01*
X016441Y012493D01*
X016271Y012352D02*
X016271Y012125D01*
X016101Y011983D02*
X016441Y011756D01*
X016441Y011983D02*
X016101Y011756D01*
X015424Y015919D02*
X015507Y016002D01*
X022281Y013624D02*
X022621Y013624D01*
X022281Y013397D01*
X022621Y013397D01*
X022621Y013265D02*
X022621Y013151D01*
X022621Y013208D02*
X022281Y013208D01*
X022281Y013151D02*
X022281Y013265D01*
X022281Y013010D02*
X022621Y013010D01*
X022621Y012783D02*
X022281Y012783D01*
X022395Y012897D01*
X022281Y013010D01*
X022451Y012642D02*
X022451Y012415D01*
X022338Y012273D02*
X022281Y012273D01*
X022338Y012273D02*
X022451Y012160D01*
X022621Y012160D01*
X022451Y012160D02*
X022338Y012046D01*
X022281Y012046D01*
X024921Y012574D02*
X024978Y012574D01*
X025091Y012687D01*
X025261Y012687D01*
X025091Y012687D02*
X024978Y012801D01*
X024921Y012801D01*
X025091Y012942D02*
X025091Y013169D01*
X024921Y013310D02*
X025035Y013424D01*
X024921Y013537D01*
X025261Y013537D01*
X025261Y013679D02*
X025035Y013679D01*
X024921Y013792D01*
X025035Y013906D01*
X025261Y013906D01*
X025261Y014047D02*
X024921Y014274D01*
X024921Y014047D02*
X025261Y014274D01*
X025091Y013906D02*
X025091Y013679D01*
X025261Y013310D02*
X024921Y013310D01*
X026181Y013205D02*
X026431Y012955D01*
X026931Y012955D01*
X027181Y013205D01*
X027181Y013705D01*
X026931Y013955D01*
X026431Y013955D01*
X026181Y013705D01*
X026181Y013205D01*
X026431Y012955D02*
X026181Y012705D01*
X026181Y012205D01*
X026431Y011955D01*
X026181Y011705D01*
X026181Y011205D01*
X026431Y010955D01*
X026931Y010955D01*
X027181Y011205D01*
X027181Y011705D01*
X026931Y011955D01*
X026431Y011955D01*
X026931Y011955D02*
X027181Y012205D01*
X027181Y012705D01*
X026931Y012955D01*
X027681Y012705D02*
X027931Y012955D01*
X027681Y013205D01*
X027681Y013705D01*
X027931Y013955D01*
X027681Y014205D01*
X027681Y014705D01*
X027931Y014955D01*
X028431Y014955D01*
X028681Y014705D01*
X028681Y014205D01*
X028431Y013955D01*
X028681Y013705D01*
X028681Y013205D01*
X028431Y012955D01*
X027931Y012955D01*
X027681Y012705D02*
X027681Y012205D01*
X027931Y011955D01*
X027681Y011705D01*
X027681Y011205D01*
X027931Y010955D01*
X028431Y010955D01*
X028681Y011205D01*
X028681Y011705D01*
X028431Y011955D01*
X027931Y011955D01*
X028431Y011955D02*
X028681Y012205D01*
X028681Y012705D01*
X028431Y012955D01*
X029181Y012705D02*
X029181Y012205D01*
X029431Y011955D01*
X029181Y011705D01*
X029181Y011205D01*
X029431Y010955D01*
X029931Y010955D01*
X030181Y011205D01*
X030181Y011705D01*
X029931Y011955D01*
X029431Y011955D01*
X029931Y011955D02*
X030181Y012205D01*
X030181Y012705D01*
X029931Y012955D01*
X029431Y012955D01*
X029181Y013205D01*
X029181Y013705D01*
X029431Y013955D01*
X029181Y014205D01*
X029181Y014705D01*
X029431Y014955D01*
X029931Y014955D01*
X030181Y014705D01*
X030181Y014205D01*
X029931Y013955D01*
X030181Y013705D01*
X030181Y013205D01*
X029931Y012955D01*
X029431Y012955D02*
X029181Y012705D01*
X029431Y013955D02*
X029931Y013955D01*
X030681Y013705D02*
X030681Y013205D01*
X030931Y012955D01*
X031431Y012955D01*
X031681Y013205D01*
X031681Y013705D01*
X031431Y013955D01*
X030931Y013955D01*
X030681Y013705D01*
X030931Y013955D02*
X030681Y014205D01*
X030681Y014705D01*
X030931Y014955D01*
X031431Y014955D01*
X031681Y014705D01*
X031681Y014205D01*
X031431Y013955D01*
X031431Y012955D02*
X031681Y012705D01*
X031681Y012205D01*
X031431Y011955D01*
X031681Y011705D01*
X031681Y011205D01*
X031431Y010955D01*
X030931Y010955D01*
X030681Y011205D01*
X030681Y011705D01*
X030931Y011955D01*
X030681Y012205D01*
X030681Y012705D01*
X030931Y012955D01*
X030931Y011955D02*
X031431Y011955D01*
X028431Y013955D02*
X027931Y013955D01*
X027181Y014205D02*
X027181Y014705D01*
X026931Y014955D01*
X026431Y014955D01*
X026181Y014705D01*
X026181Y014205D01*
X026431Y013955D01*
X026931Y013955D02*
X027181Y014205D01*
X030431Y016505D02*
X030431Y017005D01*
X030681Y017255D01*
X030431Y017505D01*
X030431Y018005D01*
X030681Y018255D01*
X030431Y018505D01*
X030431Y019005D01*
X030681Y019255D01*
X031181Y019255D01*
X031431Y019005D01*
X031431Y018505D01*
X031181Y018255D01*
X031431Y018005D01*
X031431Y017505D01*
X031181Y017255D01*
X031431Y017005D01*
X031431Y016505D01*
X031181Y016255D01*
X030681Y016255D01*
X030431Y016505D01*
X030681Y017255D02*
X031181Y017255D01*
X031181Y018255D02*
X030681Y018255D01*
X023741Y018436D02*
X023704Y018436D01*
X023741Y018436D02*
X023741Y019074D01*
X023704Y019074D01*
X023387Y019074D02*
X022976Y019074D01*
X022659Y019074D02*
X022621Y019074D01*
X022621Y018436D01*
X022659Y018436D01*
X022976Y018436D02*
X023013Y018436D01*
X023350Y018436D02*
X023387Y018436D01*
X013731Y028045D02*
X013505Y028386D01*
X013363Y028215D02*
X013136Y028215D01*
X001331Y033955D02*
X001333Y034028D01*
X001339Y034101D01*
X001349Y034173D01*
X001363Y034245D01*
X001380Y034316D01*
X001402Y034386D01*
X001427Y034455D01*
X001456Y034522D01*
X001488Y034587D01*
X001524Y034651D01*
X001564Y034713D01*
X001606Y034772D01*
X001652Y034829D01*
X001701Y034883D01*
X001753Y034935D01*
X001807Y034984D01*
X001864Y035030D01*
X001923Y035072D01*
X001985Y035112D01*
X002049Y035148D01*
X002114Y035180D01*
X002181Y035209D01*
X002250Y035234D01*
X002320Y035256D01*
X002391Y035273D01*
X002463Y035287D01*
X002535Y035297D01*
X002608Y035303D01*
X002681Y035305D01*
X002754Y035303D01*
X002827Y035297D01*
X002899Y035287D01*
X002971Y035273D01*
X003042Y035256D01*
X003112Y035234D01*
X003181Y035209D01*
X003248Y035180D01*
X003313Y035148D01*
X003377Y035112D01*
X003439Y035072D01*
X003498Y035030D01*
X003555Y034984D01*
X003609Y034935D01*
X003661Y034883D01*
X003710Y034829D01*
X003756Y034772D01*
X003798Y034713D01*
X003838Y034651D01*
X003874Y034587D01*
X003906Y034522D01*
X003935Y034455D01*
X003960Y034386D01*
X003982Y034316D01*
X003999Y034245D01*
X004013Y034173D01*
X004023Y034101D01*
X004029Y034028D01*
X004031Y033955D01*
X004029Y033882D01*
X004023Y033809D01*
X004013Y033737D01*
X003999Y033665D01*
X003982Y033594D01*
X003960Y033524D01*
X003935Y033455D01*
X003906Y033388D01*
X003874Y033323D01*
X003838Y033259D01*
X003798Y033197D01*
X003756Y033138D01*
X003710Y033081D01*
X003661Y033027D01*
X003609Y032975D01*
X003555Y032926D01*
X003498Y032880D01*
X003439Y032838D01*
X003377Y032798D01*
X003313Y032762D01*
X003248Y032730D01*
X003181Y032701D01*
X003112Y032676D01*
X003042Y032654D01*
X002971Y032637D01*
X002899Y032623D01*
X002827Y032613D01*
X002754Y032607D01*
X002681Y032605D01*
X002608Y032607D01*
X002535Y032613D01*
X002463Y032623D01*
X002391Y032637D01*
X002320Y032654D01*
X002250Y032676D01*
X002181Y032701D01*
X002114Y032730D01*
X002049Y032762D01*
X001985Y032798D01*
X001923Y032838D01*
X001864Y032880D01*
X001807Y032926D01*
X001753Y032975D01*
X001701Y033027D01*
X001652Y033081D01*
X001606Y033138D01*
X001564Y033197D01*
X001524Y033259D01*
X001488Y033323D01*
X001456Y033388D01*
X001427Y033455D01*
X001402Y033524D01*
X001380Y033594D01*
X001363Y033665D01*
X001349Y033737D01*
X001339Y033809D01*
X001333Y033882D01*
X001331Y033955D01*
X006062Y015449D02*
X005979Y015365D01*
X005979Y015199D01*
X006062Y015449D02*
X006313Y015449D01*
X006495Y015365D02*
X006578Y015449D01*
X013631Y005455D02*
X014681Y005455D01*
X014581Y005255D01*
X014581Y004855D01*
X014681Y004755D01*
X014681Y005455D01*
X015081Y005455D01*
X015181Y005255D01*
X015181Y004855D01*
X015081Y004755D01*
X015081Y005455D01*
X016681Y005455D01*
X016581Y005255D01*
X016581Y004855D01*
X016681Y004755D01*
X016681Y005455D01*
X017081Y005455D01*
X017181Y005255D01*
X017181Y004855D01*
X017081Y004755D01*
X017081Y005455D01*
X018681Y005455D01*
X018581Y005255D01*
X018581Y004855D01*
X017181Y004855D01*
X017081Y004755D02*
X018681Y004755D01*
X018581Y004855D01*
X018681Y004755D02*
X018681Y005455D01*
X019081Y005455D01*
X019181Y005255D01*
X019181Y004855D01*
X020581Y004855D01*
X020681Y004755D01*
X020681Y005455D01*
X020581Y005255D01*
X020581Y004855D01*
X020681Y004755D02*
X021081Y004755D01*
X021181Y004855D01*
X021181Y005255D01*
X021081Y005455D01*
X021081Y004755D01*
X021881Y004755D01*
X021881Y002655D01*
X021711Y002655D01*
X022131Y002155D02*
X022131Y005255D01*
X021181Y005255D01*
X021081Y005455D02*
X022131Y005455D01*
X022131Y005255D01*
X022331Y005255D02*
X023281Y005255D01*
X023381Y005455D01*
X023381Y004755D01*
X023281Y004855D01*
X023281Y005255D01*
X023381Y005455D02*
X023781Y005455D01*
X023881Y005255D01*
X023881Y004855D01*
X023781Y004755D01*
X023781Y005455D01*
X025381Y005455D01*
X025281Y005255D01*
X025281Y004855D01*
X025381Y004755D01*
X025381Y005455D01*
X025781Y005455D01*
X025881Y005255D01*
X025881Y004855D01*
X025781Y004755D01*
X025781Y005455D01*
X027381Y005455D01*
X027281Y005255D01*
X027281Y004855D01*
X025881Y004855D01*
X025781Y004755D02*
X027381Y004755D01*
X027281Y004855D01*
X027381Y004755D02*
X027381Y005455D01*
X027781Y005455D01*
X027881Y005255D01*
X027881Y004855D01*
X029281Y004855D01*
X029381Y004755D01*
X029381Y005455D01*
X029281Y005255D01*
X029281Y004855D01*
X029381Y004755D02*
X029781Y004755D01*
X029881Y004855D01*
X029881Y005255D01*
X029781Y005455D01*
X029781Y004755D01*
X030581Y004755D01*
X030581Y002655D01*
X030411Y002655D01*
X030831Y002155D02*
X030831Y005255D01*
X029881Y005255D01*
X029781Y005455D02*
X029381Y005455D01*
X027781Y005455D01*
X027781Y004755D01*
X027881Y004855D01*
X027781Y004755D02*
X029381Y004755D01*
X029281Y005255D02*
X027881Y005255D01*
X027781Y004755D02*
X027381Y004755D01*
X027281Y005255D02*
X025881Y005255D01*
X025781Y004755D02*
X025381Y004755D01*
X023781Y004755D01*
X023381Y004755D01*
X022581Y004755D01*
X022581Y004855D01*
X023281Y004855D01*
X023881Y004855D02*
X025281Y004855D01*
X025281Y005255D02*
X023881Y005255D01*
X023381Y005455D02*
X022331Y005455D01*
X022331Y005255D01*
X022331Y002155D01*
X030831Y002155D01*
X029581Y002255D02*
X029520Y002257D01*
X029460Y002262D01*
X029399Y002271D01*
X029340Y002283D01*
X029281Y002299D01*
X029223Y002318D01*
X029167Y002340D01*
X029111Y002366D01*
X029058Y002395D01*
X029006Y002426D01*
X028956Y002461D01*
X028908Y002499D01*
X028863Y002539D01*
X028819Y002582D01*
X028779Y002627D01*
X028741Y002675D01*
X028731Y002655D02*
X028431Y002655D01*
X028421Y002675D02*
X028383Y002627D01*
X028343Y002582D01*
X028299Y002539D01*
X028254Y002499D01*
X028206Y002461D01*
X028156Y002426D01*
X028104Y002395D01*
X028051Y002366D01*
X027995Y002340D01*
X027939Y002318D01*
X027881Y002299D01*
X027822Y002283D01*
X027763Y002271D01*
X027702Y002262D01*
X027642Y002257D01*
X027581Y002255D01*
X026731Y002655D02*
X026431Y002655D01*
X026421Y002675D02*
X026383Y002627D01*
X026343Y002582D01*
X026299Y002539D01*
X026254Y002499D01*
X026206Y002461D01*
X026156Y002426D01*
X026104Y002395D01*
X026051Y002366D01*
X025995Y002340D01*
X025939Y002318D01*
X025881Y002299D01*
X025822Y002283D01*
X025763Y002271D01*
X025702Y002262D01*
X025642Y002257D01*
X025581Y002255D01*
X024731Y002655D02*
X024431Y002655D01*
X024421Y002675D02*
X024383Y002627D01*
X024343Y002582D01*
X024299Y002539D01*
X024254Y002499D01*
X024206Y002461D01*
X024156Y002426D01*
X024104Y002395D01*
X024051Y002366D01*
X023995Y002340D01*
X023939Y002318D01*
X023881Y002299D01*
X023822Y002283D01*
X023763Y002271D01*
X023702Y002262D01*
X023642Y002257D01*
X023581Y002255D01*
X022751Y002655D02*
X022581Y002655D01*
X022581Y004755D01*
X021881Y004755D02*
X021881Y004855D01*
X021181Y004855D01*
X020681Y004755D02*
X019081Y004755D01*
X019181Y004855D01*
X019081Y004755D02*
X019081Y005455D01*
X020681Y005455D01*
X021081Y005455D01*
X020581Y005255D02*
X019181Y005255D01*
X019081Y004755D02*
X018681Y004755D01*
X018581Y005255D02*
X017181Y005255D01*
X017081Y004755D02*
X016681Y004755D01*
X015081Y004755D01*
X014681Y004755D01*
X013881Y004755D01*
X013881Y004855D01*
X014581Y004855D01*
X014581Y005255D02*
X013631Y005255D01*
X013631Y002155D01*
X022131Y002155D01*
X020881Y002255D02*
X020820Y002257D01*
X020760Y002262D01*
X020699Y002271D01*
X020640Y002283D01*
X020581Y002299D01*
X020523Y002318D01*
X020467Y002340D01*
X020411Y002366D01*
X020358Y002395D01*
X020306Y002426D01*
X020256Y002461D01*
X020208Y002499D01*
X020163Y002539D01*
X020119Y002582D01*
X020079Y002627D01*
X020041Y002675D01*
X020031Y002655D02*
X019731Y002655D01*
X019721Y002675D02*
X019683Y002627D01*
X019643Y002582D01*
X019599Y002539D01*
X019554Y002499D01*
X019506Y002461D01*
X019456Y002426D01*
X019404Y002395D01*
X019351Y002366D01*
X019295Y002340D01*
X019239Y002318D01*
X019181Y002299D01*
X019122Y002283D01*
X019063Y002271D01*
X019002Y002262D01*
X018942Y002257D01*
X018881Y002255D01*
X018031Y002655D02*
X017731Y002655D01*
X017721Y002675D02*
X017683Y002627D01*
X017643Y002582D01*
X017599Y002539D01*
X017554Y002499D01*
X017506Y002461D01*
X017456Y002426D01*
X017404Y002395D01*
X017351Y002366D01*
X017295Y002340D01*
X017239Y002318D01*
X017181Y002299D01*
X017122Y002283D01*
X017063Y002271D01*
X017002Y002262D01*
X016942Y002257D01*
X016881Y002255D01*
X016031Y002655D02*
X015731Y002655D01*
X016041Y002675D02*
X016079Y002627D01*
X016119Y002582D01*
X016163Y002539D01*
X016208Y002499D01*
X016256Y002461D01*
X016306Y002426D01*
X016358Y002395D01*
X016411Y002366D01*
X016467Y002340D01*
X016523Y002318D01*
X016581Y002299D01*
X016640Y002283D01*
X016699Y002271D01*
X016760Y002262D01*
X016820Y002257D01*
X016881Y002255D01*
X015721Y002675D02*
X015683Y002627D01*
X015643Y002582D01*
X015599Y002539D01*
X015554Y002499D01*
X015506Y002461D01*
X015456Y002426D01*
X015404Y002395D01*
X015351Y002366D01*
X015295Y002340D01*
X015239Y002318D01*
X015181Y002299D01*
X015122Y002283D01*
X015063Y002271D01*
X015002Y002262D01*
X014942Y002257D01*
X014881Y002255D01*
X014051Y002655D02*
X013881Y002655D01*
X013881Y004755D01*
X013631Y005255D02*
X013631Y005455D01*
X015181Y005255D02*
X016581Y005255D01*
X016581Y004855D02*
X015181Y004855D01*
X014041Y002675D02*
X014079Y002627D01*
X014119Y002582D01*
X014163Y002539D01*
X014208Y002499D01*
X014256Y002461D01*
X014306Y002426D01*
X014358Y002395D01*
X014411Y002366D01*
X014467Y002340D01*
X014523Y002318D01*
X014581Y002299D01*
X014640Y002283D01*
X014699Y002271D01*
X014760Y002262D01*
X014820Y002257D01*
X014881Y002255D01*
X012129Y002295D02*
X012129Y002545D01*
X012046Y002629D01*
X011796Y002629D01*
X011796Y002295D01*
X011614Y002379D02*
X011614Y002545D01*
X011530Y002629D01*
X011363Y002629D01*
X011280Y002545D01*
X011280Y002379D01*
X011363Y002295D01*
X011530Y002295D01*
X011614Y002379D01*
X011098Y002379D02*
X011014Y002462D01*
X010848Y002462D01*
X010764Y002545D01*
X010848Y002629D01*
X011098Y002629D01*
X011098Y002379D02*
X011014Y002295D01*
X010764Y002295D01*
X010585Y002629D02*
X010501Y002629D01*
X010335Y002462D01*
X010335Y002295D02*
X010335Y002629D01*
X010153Y002545D02*
X010153Y002462D01*
X009819Y002462D01*
X009819Y002379D02*
X009819Y002545D01*
X009902Y002629D01*
X010069Y002629D01*
X010153Y002545D01*
X010069Y002295D02*
X009902Y002295D01*
X009819Y002379D01*
X009637Y002295D02*
X009387Y002295D01*
X009303Y002379D01*
X009303Y002545D01*
X009387Y002629D01*
X009637Y002629D01*
X009637Y002796D02*
X009637Y002295D01*
X009121Y002295D02*
X009121Y002545D01*
X009038Y002629D01*
X008788Y002629D01*
X008788Y002295D01*
X008606Y002295D02*
X008606Y002629D01*
X008439Y002796D01*
X008272Y002629D01*
X008272Y002295D01*
X008272Y002545D02*
X008606Y002545D01*
X008582Y003235D02*
X008666Y003319D01*
X008666Y003485D01*
X008582Y003569D01*
X008332Y003569D01*
X008332Y003736D02*
X008332Y003235D01*
X008582Y003235D01*
X008848Y003235D02*
X009014Y003235D01*
X008931Y003235D02*
X008931Y003569D01*
X008848Y003569D01*
X008931Y003736D02*
X008931Y003819D01*
X009191Y003569D02*
X009358Y003569D01*
X009275Y003652D02*
X009275Y003319D01*
X009358Y003235D01*
X007634Y003235D02*
X007301Y003235D01*
X007634Y003569D01*
X007634Y003652D01*
X007551Y003736D01*
X007384Y003736D01*
X007301Y003652D01*
X007119Y003652D02*
X007119Y003569D01*
X007035Y003485D01*
X007119Y003402D01*
X007119Y003319D01*
X007035Y003235D01*
X006869Y003235D01*
X006785Y003319D01*
X006603Y003319D02*
X006520Y003235D01*
X006270Y003235D01*
X006270Y003069D02*
X006270Y003569D01*
X006520Y003569D01*
X006603Y003485D01*
X006603Y003319D01*
X006785Y003652D02*
X006869Y003736D01*
X007035Y003736D01*
X007119Y003652D01*
X007035Y003485D02*
X006952Y003485D01*
X006980Y002879D02*
X006980Y002796D01*
X006980Y002629D02*
X006980Y002295D01*
X006897Y002295D02*
X007064Y002295D01*
X007241Y002379D02*
X007241Y002545D01*
X007324Y002629D01*
X007574Y002629D01*
X007574Y002796D02*
X007574Y002295D01*
X007324Y002295D01*
X007241Y002379D01*
X006980Y002629D02*
X006897Y002629D01*
X006715Y002629D02*
X006548Y002295D01*
X006381Y002629D01*
X006199Y002545D02*
X006199Y002295D01*
X005949Y002295D01*
X005866Y002379D01*
X005949Y002462D01*
X006199Y002462D01*
X006199Y002545D02*
X006116Y002629D01*
X005949Y002629D01*
X005684Y002712D02*
X005684Y002379D01*
X005600Y002295D01*
X005350Y002295D01*
X005350Y002796D01*
X005600Y002796D01*
X005684Y002712D01*
X005572Y003235D02*
X005405Y003402D01*
X005489Y003402D02*
X005238Y003402D01*
X005238Y003235D02*
X005238Y003736D01*
X005489Y003736D01*
X005572Y003652D01*
X005572Y003485D01*
X005489Y003402D01*
X005754Y003319D02*
X005837Y003402D01*
X006088Y003402D01*
X006088Y003485D02*
X006088Y003235D01*
X005837Y003235D01*
X005754Y003319D01*
X005837Y003569D02*
X006004Y003569D01*
X006088Y003485D01*
X005056Y003485D02*
X005056Y003319D01*
X004973Y003235D01*
X004723Y003235D01*
X004723Y003069D02*
X004723Y003569D01*
X004973Y003569D01*
X005056Y003485D01*
X004541Y003485D02*
X004541Y003402D01*
X004207Y003402D01*
X004207Y003319D02*
X004207Y003485D01*
X004290Y003569D01*
X004457Y003569D01*
X004541Y003485D01*
X004457Y003235D02*
X004290Y003235D01*
X004207Y003319D01*
X004025Y003235D02*
X003858Y003402D01*
X003942Y003402D02*
X003691Y003402D01*
X003691Y003235D02*
X003691Y003736D01*
X003942Y003736D01*
X004025Y003652D01*
X004025Y003485D01*
X003942Y003402D01*
X003796Y002796D02*
X003546Y002796D01*
X003546Y002295D01*
X003796Y002295D01*
X003879Y002379D01*
X003879Y002462D01*
X003796Y002545D01*
X003546Y002545D01*
X003796Y002545D02*
X003879Y002629D01*
X003879Y002712D01*
X003796Y002796D01*
X004061Y002629D02*
X004061Y002379D01*
X004145Y002295D01*
X004395Y002295D01*
X004395Y002212D02*
X004311Y002129D01*
X004228Y002129D01*
X004395Y002212D02*
X004395Y002629D01*
X004577Y002629D02*
X004577Y002545D01*
X004660Y002545D01*
X004660Y002629D01*
X004577Y002629D01*
X004577Y002379D02*
X004577Y002295D01*
X004660Y002295D01*
X004660Y002379D01*
X004577Y002379D01*
X002848Y002295D02*
X002848Y002545D01*
X002764Y002629D01*
X002514Y002629D01*
X002514Y002295D01*
X002332Y002379D02*
X002249Y002462D01*
X002082Y002462D01*
X001999Y002545D01*
X002082Y002629D01*
X002332Y002629D01*
X002332Y002379D02*
X002249Y002295D01*
X001999Y002295D01*
X001817Y002379D02*
X001817Y002712D01*
X001733Y002796D01*
X001483Y002796D01*
X001483Y002295D01*
X001733Y002295D01*
X001817Y002379D01*
X018041Y002675D02*
X018079Y002627D01*
X018119Y002582D01*
X018163Y002539D01*
X018208Y002499D01*
X018256Y002461D01*
X018306Y002426D01*
X018358Y002395D01*
X018411Y002366D01*
X018467Y002340D01*
X018523Y002318D01*
X018581Y002299D01*
X018640Y002283D01*
X018699Y002271D01*
X018760Y002262D01*
X018820Y002257D01*
X018881Y002255D01*
X020881Y002255D02*
X020942Y002257D01*
X021002Y002262D01*
X021063Y002271D01*
X021122Y002283D01*
X021181Y002299D01*
X021239Y002318D01*
X021295Y002340D01*
X021351Y002366D01*
X021404Y002395D01*
X021456Y002426D01*
X021506Y002461D01*
X021554Y002499D01*
X021599Y002539D01*
X021643Y002582D01*
X021683Y002627D01*
X021721Y002675D01*
X022741Y002675D02*
X022779Y002627D01*
X022819Y002582D01*
X022863Y002539D01*
X022908Y002499D01*
X022956Y002461D01*
X023006Y002426D01*
X023058Y002395D01*
X023111Y002366D01*
X023167Y002340D01*
X023223Y002318D01*
X023281Y002299D01*
X023340Y002283D01*
X023399Y002271D01*
X023460Y002262D01*
X023520Y002257D01*
X023581Y002255D01*
X024741Y002675D02*
X024779Y002627D01*
X024819Y002582D01*
X024863Y002539D01*
X024908Y002499D01*
X024956Y002461D01*
X025006Y002426D01*
X025058Y002395D01*
X025111Y002366D01*
X025167Y002340D01*
X025223Y002318D01*
X025281Y002299D01*
X025340Y002283D01*
X025399Y002271D01*
X025460Y002262D01*
X025520Y002257D01*
X025581Y002255D01*
X026741Y002675D02*
X026779Y002627D01*
X026819Y002582D01*
X026863Y002539D01*
X026908Y002499D01*
X026956Y002461D01*
X027006Y002426D01*
X027058Y002395D01*
X027111Y002366D01*
X027167Y002340D01*
X027223Y002318D01*
X027281Y002299D01*
X027340Y002283D01*
X027399Y002271D01*
X027460Y002262D01*
X027520Y002257D01*
X027581Y002255D01*
X029581Y002255D02*
X029642Y002257D01*
X029702Y002262D01*
X029763Y002271D01*
X029822Y002283D01*
X029881Y002299D01*
X029939Y002318D01*
X029995Y002340D01*
X030051Y002366D01*
X030104Y002395D01*
X030156Y002426D01*
X030206Y002461D01*
X030254Y002499D01*
X030299Y002539D01*
X030343Y002582D01*
X030383Y002627D01*
X030421Y002675D01*
X030581Y004755D02*
X030581Y004855D01*
X029881Y004855D01*
X029781Y005455D02*
X030831Y005455D01*
X030831Y005255D01*
X030494Y006335D02*
X030067Y006335D01*
X030280Y006335D02*
X030280Y006976D01*
X030067Y006762D01*
X029849Y006976D02*
X029636Y006976D01*
X029743Y006976D02*
X029743Y006442D01*
X029636Y006335D01*
X029529Y006335D01*
X029422Y006442D01*
X026581Y007775D02*
X026331Y007525D01*
X025831Y007525D01*
X025581Y007775D01*
X025331Y007525D01*
X024831Y007525D01*
X024581Y007775D01*
X024581Y008275D01*
X024831Y008525D01*
X025331Y008525D01*
X025581Y008275D01*
X025831Y008525D01*
X026331Y008525D01*
X026581Y008275D01*
X026581Y007775D01*
X025581Y007775D02*
X025581Y008275D01*
X036531Y010255D02*
X037331Y010255D01*
X037331Y010455D01*
X036931Y010455D01*
X036531Y010455D01*
X036531Y010255D01*
X036397Y011285D02*
X036335Y011254D01*
X036276Y011219D01*
X036218Y011182D01*
X036163Y011141D01*
X036109Y011097D01*
X036059Y011050D01*
X036011Y011001D01*
X035966Y010949D01*
X035923Y010895D01*
X035884Y010838D01*
X035848Y010780D01*
X035815Y010719D01*
X035786Y010657D01*
X035760Y010593D01*
X035738Y010528D01*
X035719Y010462D01*
X035704Y010394D01*
X035693Y010327D01*
X035685Y010258D01*
X035681Y010189D01*
X035681Y010121D01*
X035685Y010052D01*
X035693Y009983D01*
X035704Y009916D01*
X035719Y009848D01*
X035738Y009782D01*
X035760Y009717D01*
X035786Y009653D01*
X035815Y009591D01*
X035848Y009530D01*
X035884Y009472D01*
X035923Y009415D01*
X035966Y009361D01*
X036011Y009309D01*
X036059Y009260D01*
X036109Y009213D01*
X036163Y009169D01*
X036218Y009128D01*
X036276Y009091D01*
X036335Y009056D01*
X036397Y009025D01*
X036931Y009605D02*
X036931Y009905D01*
X037465Y009025D02*
X037527Y009056D01*
X037586Y009091D01*
X037644Y009128D01*
X037699Y009169D01*
X037753Y009213D01*
X037803Y009260D01*
X037851Y009309D01*
X037896Y009361D01*
X037939Y009415D01*
X037978Y009472D01*
X038014Y009530D01*
X038047Y009591D01*
X038076Y009653D01*
X038102Y009717D01*
X038124Y009782D01*
X038143Y009848D01*
X038158Y009916D01*
X038169Y009983D01*
X038177Y010052D01*
X038181Y010121D01*
X038181Y010189D01*
X038177Y010258D01*
X038169Y010327D01*
X038158Y010394D01*
X038143Y010462D01*
X038124Y010528D01*
X038102Y010593D01*
X038076Y010657D01*
X038047Y010719D01*
X038014Y010780D01*
X037978Y010838D01*
X037939Y010895D01*
X037896Y010949D01*
X037851Y011001D01*
X037803Y011050D01*
X037753Y011097D01*
X037699Y011141D01*
X037644Y011182D01*
X037586Y011219D01*
X037527Y011254D01*
X037465Y011285D01*
X037181Y010755D02*
X037181Y010555D01*
X037081Y010655D02*
X037281Y010655D01*
X036931Y010705D02*
X036931Y010455D01*
X039871Y010537D02*
X040371Y010537D01*
X040371Y010871D01*
X040205Y011053D02*
X040371Y011220D01*
X040205Y011387D01*
X039871Y011387D01*
X039954Y011569D02*
X039871Y011652D01*
X039871Y011819D01*
X039954Y011902D01*
X040038Y011902D01*
X040121Y011819D01*
X040205Y011902D01*
X040288Y011902D01*
X040371Y011819D01*
X040371Y011652D01*
X040288Y011569D01*
X040121Y011736D02*
X040121Y011819D01*
X040205Y011053D02*
X039871Y011053D01*
X039954Y010355D02*
X040121Y010355D01*
X040205Y010272D01*
X040205Y010022D01*
X040371Y010022D02*
X039871Y010022D01*
X039871Y010272D01*
X039954Y010355D01*
X039954Y009840D02*
X039871Y009756D01*
X039871Y009590D01*
X039954Y009506D01*
X040288Y009506D01*
X040371Y009590D01*
X040371Y009756D01*
X040288Y009840D01*
X040121Y009840D01*
X040121Y009673D01*
X040121Y008816D02*
X040121Y008733D01*
X040038Y008733D01*
X040038Y008816D01*
X040121Y008816D01*
X040288Y008816D02*
X040371Y008816D01*
X040371Y008733D01*
X040288Y008733D01*
X040288Y008816D01*
X040205Y008551D02*
X040121Y008551D01*
X040038Y008467D01*
X040038Y008301D01*
X040121Y008217D01*
X040288Y008217D01*
X040371Y008301D01*
X040371Y008467D01*
X040205Y008551D02*
X040205Y008217D01*
X040288Y008035D02*
X040205Y007952D01*
X040205Y007785D01*
X040121Y007702D01*
X040038Y007785D01*
X040038Y008035D01*
X040288Y008035D02*
X040371Y007952D01*
X040371Y007702D01*
X040371Y007519D02*
X040121Y007519D01*
X040038Y007436D01*
X040038Y007186D01*
X040371Y007186D01*
X040205Y007004D02*
X040205Y006670D01*
X040288Y006670D02*
X040121Y006670D01*
X040038Y006754D01*
X040038Y006920D01*
X040121Y007004D01*
X040205Y007004D01*
X040371Y006920D02*
X040371Y006754D01*
X040288Y006670D01*
X040371Y006488D02*
X040371Y006238D01*
X040288Y006155D01*
X040121Y006155D01*
X040038Y006238D01*
X040038Y006488D01*
X040038Y005894D02*
X040371Y005894D01*
X040371Y005811D02*
X040371Y005978D01*
X040038Y005894D02*
X040038Y005811D01*
X039871Y005894D02*
X039788Y005894D01*
X040371Y005629D02*
X040371Y005295D01*
X039871Y005295D01*
X037831Y003455D02*
X037833Y003528D01*
X037839Y003601D01*
X037849Y003673D01*
X037863Y003745D01*
X037880Y003816D01*
X037902Y003886D01*
X037927Y003955D01*
X037956Y004022D01*
X037988Y004087D01*
X038024Y004151D01*
X038064Y004213D01*
X038106Y004272D01*
X038152Y004329D01*
X038201Y004383D01*
X038253Y004435D01*
X038307Y004484D01*
X038364Y004530D01*
X038423Y004572D01*
X038485Y004612D01*
X038549Y004648D01*
X038614Y004680D01*
X038681Y004709D01*
X038750Y004734D01*
X038820Y004756D01*
X038891Y004773D01*
X038963Y004787D01*
X039035Y004797D01*
X039108Y004803D01*
X039181Y004805D01*
X039254Y004803D01*
X039327Y004797D01*
X039399Y004787D01*
X039471Y004773D01*
X039542Y004756D01*
X039612Y004734D01*
X039681Y004709D01*
X039748Y004680D01*
X039813Y004648D01*
X039877Y004612D01*
X039939Y004572D01*
X039998Y004530D01*
X040055Y004484D01*
X040109Y004435D01*
X040161Y004383D01*
X040210Y004329D01*
X040256Y004272D01*
X040298Y004213D01*
X040338Y004151D01*
X040374Y004087D01*
X040406Y004022D01*
X040435Y003955D01*
X040460Y003886D01*
X040482Y003816D01*
X040499Y003745D01*
X040513Y003673D01*
X040523Y003601D01*
X040529Y003528D01*
X040531Y003455D01*
X040529Y003382D01*
X040523Y003309D01*
X040513Y003237D01*
X040499Y003165D01*
X040482Y003094D01*
X040460Y003024D01*
X040435Y002955D01*
X040406Y002888D01*
X040374Y002823D01*
X040338Y002759D01*
X040298Y002697D01*
X040256Y002638D01*
X040210Y002581D01*
X040161Y002527D01*
X040109Y002475D01*
X040055Y002426D01*
X039998Y002380D01*
X039939Y002338D01*
X039877Y002298D01*
X039813Y002262D01*
X039748Y002230D01*
X039681Y002201D01*
X039612Y002176D01*
X039542Y002154D01*
X039471Y002137D01*
X039399Y002123D01*
X039327Y002113D01*
X039254Y002107D01*
X039181Y002105D01*
X039108Y002107D01*
X039035Y002113D01*
X038963Y002123D01*
X038891Y002137D01*
X038820Y002154D01*
X038750Y002176D01*
X038681Y002201D01*
X038614Y002230D01*
X038549Y002262D01*
X038485Y002298D01*
X038423Y002338D01*
X038364Y002380D01*
X038307Y002426D01*
X038253Y002475D01*
X038201Y002527D01*
X038152Y002581D01*
X038106Y002638D01*
X038064Y002697D01*
X038024Y002759D01*
X037988Y002823D01*
X037956Y002888D01*
X037927Y002955D01*
X037902Y003024D01*
X037880Y003094D01*
X037863Y003165D01*
X037849Y003237D01*
X037839Y003309D01*
X037833Y003382D01*
X037831Y003455D01*
X037831Y033955D02*
X037833Y034028D01*
X037839Y034101D01*
X037849Y034173D01*
X037863Y034245D01*
X037880Y034316D01*
X037902Y034386D01*
X037927Y034455D01*
X037956Y034522D01*
X037988Y034587D01*
X038024Y034651D01*
X038064Y034713D01*
X038106Y034772D01*
X038152Y034829D01*
X038201Y034883D01*
X038253Y034935D01*
X038307Y034984D01*
X038364Y035030D01*
X038423Y035072D01*
X038485Y035112D01*
X038549Y035148D01*
X038614Y035180D01*
X038681Y035209D01*
X038750Y035234D01*
X038820Y035256D01*
X038891Y035273D01*
X038963Y035287D01*
X039035Y035297D01*
X039108Y035303D01*
X039181Y035305D01*
X039254Y035303D01*
X039327Y035297D01*
X039399Y035287D01*
X039471Y035273D01*
X039542Y035256D01*
X039612Y035234D01*
X039681Y035209D01*
X039748Y035180D01*
X039813Y035148D01*
X039877Y035112D01*
X039939Y035072D01*
X039998Y035030D01*
X040055Y034984D01*
X040109Y034935D01*
X040161Y034883D01*
X040210Y034829D01*
X040256Y034772D01*
X040298Y034713D01*
X040338Y034651D01*
X040374Y034587D01*
X040406Y034522D01*
X040435Y034455D01*
X040460Y034386D01*
X040482Y034316D01*
X040499Y034245D01*
X040513Y034173D01*
X040523Y034101D01*
X040529Y034028D01*
X040531Y033955D01*
X040529Y033882D01*
X040523Y033809D01*
X040513Y033737D01*
X040499Y033665D01*
X040482Y033594D01*
X040460Y033524D01*
X040435Y033455D01*
X040406Y033388D01*
X040374Y033323D01*
X040338Y033259D01*
X040298Y033197D01*
X040256Y033138D01*
X040210Y033081D01*
X040161Y033027D01*
X040109Y032975D01*
X040055Y032926D01*
X039998Y032880D01*
X039939Y032838D01*
X039877Y032798D01*
X039813Y032762D01*
X039748Y032730D01*
X039681Y032701D01*
X039612Y032676D01*
X039542Y032654D01*
X039471Y032637D01*
X039399Y032623D01*
X039327Y032613D01*
X039254Y032607D01*
X039181Y032605D01*
X039108Y032607D01*
X039035Y032613D01*
X038963Y032623D01*
X038891Y032637D01*
X038820Y032654D01*
X038750Y032676D01*
X038681Y032701D01*
X038614Y032730D01*
X038549Y032762D01*
X038485Y032798D01*
X038423Y032838D01*
X038364Y032880D01*
X038307Y032926D01*
X038253Y032975D01*
X038201Y033027D01*
X038152Y033081D01*
X038106Y033138D01*
X038064Y033197D01*
X038024Y033259D01*
X037988Y033323D01*
X037956Y033388D01*
X037927Y033455D01*
X037902Y033524D01*
X037880Y033594D01*
X037863Y033665D01*
X037849Y033737D01*
X037839Y033809D01*
X037833Y033882D01*
X037831Y033955D01*
D15*
X035866Y033949D02*
X035446Y034370D01*
X035341Y034370D01*
X035236Y034265D01*
X035236Y034054D01*
X035341Y033949D01*
X035236Y033725D02*
X035656Y033725D01*
X035866Y033515D01*
X035656Y033305D01*
X035236Y033305D01*
X035341Y033081D02*
X035236Y032976D01*
X035236Y032765D01*
X035341Y032660D01*
X035446Y032660D01*
X035551Y032765D01*
X035551Y032976D01*
X035656Y033081D01*
X035761Y033081D01*
X035866Y032976D01*
X035866Y032765D01*
X035761Y032660D01*
X035657Y031531D02*
X035394Y031531D01*
X035262Y031399D01*
X035262Y031267D01*
X035394Y031136D01*
X035657Y031136D01*
X035789Y031004D01*
X035789Y030872D01*
X035657Y030740D01*
X035394Y030740D01*
X035262Y030872D01*
X034997Y030740D02*
X034734Y030740D01*
X034866Y030740D02*
X034866Y031531D01*
X034997Y031531D02*
X034734Y031531D01*
X034469Y031531D02*
X033942Y030740D01*
X033677Y030740D02*
X033677Y031267D01*
X033414Y031531D01*
X033150Y031267D01*
X033150Y030740D01*
X033150Y031136D02*
X033677Y031136D01*
X033942Y031531D02*
X034469Y030740D01*
X035657Y031531D02*
X035789Y031399D01*
X035866Y033949D02*
X035866Y034370D01*
X032094Y031531D02*
X031566Y030740D01*
X032094Y030740D02*
X031566Y031531D01*
X029506Y032735D02*
X029401Y032630D01*
X029506Y032735D02*
X029506Y032946D01*
X029401Y033051D01*
X029296Y033051D01*
X029191Y032946D01*
X029191Y032735D01*
X029086Y032630D01*
X028981Y032630D01*
X028876Y032735D01*
X028876Y032946D01*
X028981Y033051D01*
X028876Y033275D02*
X029296Y033275D01*
X029506Y033485D01*
X029296Y033695D01*
X028876Y033695D01*
X028981Y033919D02*
X028876Y034024D01*
X028876Y034235D01*
X028981Y034340D01*
X029086Y034340D01*
X029191Y034235D01*
X029296Y034340D01*
X029401Y034340D01*
X029506Y034235D01*
X029506Y034024D01*
X029401Y033919D01*
X029191Y034129D02*
X029191Y034235D01*
X028907Y031531D02*
X028644Y031531D01*
X028512Y031399D01*
X028512Y031267D01*
X028644Y031136D01*
X028907Y031136D01*
X029039Y031004D01*
X029039Y030872D01*
X028907Y030740D01*
X028644Y030740D01*
X028512Y030872D01*
X028247Y030740D02*
X027984Y030740D01*
X028116Y030740D02*
X028116Y031531D01*
X028247Y031531D02*
X027984Y031531D01*
X027719Y031531D02*
X027192Y030740D01*
X026927Y030740D02*
X026927Y031267D01*
X026664Y031531D01*
X026400Y031267D01*
X026400Y030740D01*
X026400Y031136D02*
X026927Y031136D01*
X027192Y031531D02*
X027719Y030740D01*
X028907Y031531D02*
X029039Y031399D01*
X025344Y031399D02*
X025344Y031531D01*
X025344Y031399D02*
X025080Y031136D01*
X025080Y030740D01*
X025080Y031136D02*
X024816Y031399D01*
X024816Y031531D01*
X023289Y031399D02*
X023157Y031531D01*
X022894Y031531D01*
X022762Y031399D01*
X022762Y031267D01*
X022894Y031136D01*
X023157Y031136D01*
X023289Y031004D01*
X023289Y030872D01*
X023157Y030740D01*
X022894Y030740D01*
X022762Y030872D01*
X022497Y030740D02*
X022234Y030740D01*
X022366Y030740D02*
X022366Y031531D01*
X022497Y031531D02*
X022234Y031531D01*
X021969Y031531D02*
X021442Y030740D01*
X021177Y030740D02*
X021177Y031267D01*
X020914Y031531D01*
X020650Y031267D01*
X020650Y030740D01*
X020650Y031136D02*
X021177Y031136D01*
X021442Y031531D02*
X021969Y030740D01*
X022721Y032690D02*
X022826Y032690D01*
X022931Y032795D01*
X022931Y033006D01*
X023036Y033111D01*
X023141Y033111D01*
X023246Y033006D01*
X023246Y032795D01*
X023141Y032690D01*
X022721Y032690D02*
X022616Y032795D01*
X022616Y033006D01*
X022721Y033111D01*
X022616Y033335D02*
X023036Y033335D01*
X023246Y033545D01*
X023036Y033755D01*
X022616Y033755D01*
X022931Y033979D02*
X022616Y034295D01*
X023246Y034295D01*
X022931Y034400D02*
X022931Y033979D01*
X019594Y031531D02*
X019594Y031399D01*
X019066Y030872D01*
X019066Y030740D01*
X019594Y030740D01*
X019594Y031531D02*
X019066Y031531D01*
X016646Y032635D02*
X016541Y032530D01*
X016646Y032635D02*
X016646Y032846D01*
X016541Y032951D01*
X016436Y032951D01*
X016331Y032846D01*
X016331Y032635D01*
X016226Y032530D01*
X016121Y032530D01*
X016016Y032635D01*
X016016Y032846D01*
X016121Y032951D01*
X016016Y033175D02*
X016436Y033175D01*
X016646Y033385D01*
X016436Y033595D01*
X016016Y033595D01*
X016016Y033819D02*
X016331Y033819D01*
X016226Y034029D01*
X016226Y034135D01*
X016331Y034240D01*
X016541Y034240D01*
X016646Y034135D01*
X016646Y033924D01*
X016541Y033819D01*
X016016Y033819D02*
X016016Y034240D01*
X015894Y031531D02*
X015762Y031399D01*
X015762Y031267D01*
X015894Y031136D01*
X016157Y031136D01*
X016289Y031004D01*
X016289Y030872D01*
X016157Y030740D01*
X015894Y030740D01*
X015762Y030872D01*
X015497Y030740D02*
X015234Y030740D01*
X015366Y030740D02*
X015366Y031531D01*
X015497Y031531D02*
X015234Y031531D01*
X014969Y031531D02*
X014442Y030740D01*
X014177Y030740D02*
X014177Y031267D01*
X013914Y031531D01*
X013650Y031267D01*
X013650Y030740D01*
X013650Y031136D02*
X014177Y031136D01*
X014442Y031531D02*
X014969Y030740D01*
X015894Y031531D02*
X016157Y031531D01*
X016289Y031399D01*
X012594Y031267D02*
X012594Y030740D01*
X012594Y031136D02*
X012066Y031136D01*
X012066Y031267D02*
X012330Y031531D01*
X012594Y031267D01*
X012066Y031267D02*
X012066Y030740D01*
X009766Y032725D02*
X009766Y032936D01*
X009661Y033041D01*
X009556Y033041D01*
X009451Y032936D01*
X009451Y032725D01*
X009346Y032620D01*
X009241Y032620D01*
X009136Y032725D01*
X009136Y032936D01*
X009241Y033041D01*
X009136Y033265D02*
X009556Y033265D01*
X009766Y033475D01*
X009556Y033685D01*
X009136Y033685D01*
X009451Y033909D02*
X009451Y034225D01*
X009556Y034330D01*
X009661Y034330D01*
X009766Y034225D01*
X009766Y034014D01*
X009661Y033909D01*
X009451Y033909D01*
X009241Y034119D01*
X009136Y034330D01*
X009766Y032725D02*
X009661Y032620D01*
X032916Y023800D02*
X033021Y023589D01*
X033231Y023379D01*
X033231Y023695D01*
X033336Y023800D01*
X033441Y023800D01*
X033546Y023695D01*
X033546Y023484D01*
X033441Y023379D01*
X033231Y023379D01*
X033021Y023155D02*
X033441Y023155D01*
X033546Y023050D01*
X033546Y022840D01*
X033441Y022735D01*
X033021Y023155D01*
X032916Y023050D01*
X032916Y022840D01*
X033021Y022735D01*
X033441Y022735D01*
X033546Y022511D02*
X033546Y022090D01*
X033126Y022511D01*
X033021Y022511D01*
X032916Y022406D01*
X032916Y022195D01*
X033021Y022090D01*
X034016Y022406D02*
X034331Y022090D01*
X034331Y022511D01*
X034646Y022406D02*
X034016Y022406D01*
X034016Y022735D02*
X034646Y022735D01*
X034436Y022945D01*
X034646Y023155D01*
X034016Y023155D01*
X033021Y018400D02*
X033441Y017979D01*
X033546Y017979D01*
X033546Y017755D02*
X033546Y017335D01*
X033546Y017545D02*
X032916Y017545D01*
X033126Y017335D01*
X033021Y017111D02*
X033231Y017111D01*
X033336Y017006D01*
X033336Y016690D01*
X033336Y016900D02*
X033546Y017111D01*
X033546Y016690D02*
X032916Y016690D01*
X032916Y017006D01*
X033021Y017111D01*
X032916Y017979D02*
X032916Y018400D01*
X033021Y018400D01*
X023326Y001921D02*
X023011Y001606D01*
X023431Y001606D01*
X023326Y001290D02*
X023326Y001921D01*
X022787Y001921D02*
X022366Y001290D01*
X022787Y001290D02*
X022366Y001921D01*
X014731Y001816D02*
X014731Y001711D01*
X014626Y001606D01*
X014731Y001500D01*
X014731Y001395D01*
X014626Y001290D01*
X014416Y001290D01*
X014311Y001395D01*
X014087Y001290D02*
X013666Y001921D01*
X014087Y001921D02*
X013666Y001290D01*
X014311Y001816D02*
X014416Y001921D01*
X014626Y001921D01*
X014731Y001816D01*
X014626Y001606D02*
X014521Y001606D01*
D16*
X014656Y016720D02*
X014232Y017144D01*
X014444Y017144D02*
X013809Y017144D01*
X013809Y016720D02*
X013809Y017991D01*
X014444Y017991D01*
X014656Y017779D01*
X014656Y017356D01*
X014444Y017144D01*
X015190Y016932D02*
X015402Y016720D01*
X015825Y016720D01*
X016037Y016932D01*
X016037Y017144D01*
X015825Y017356D01*
X015614Y017356D01*
X015825Y017356D02*
X016037Y017568D01*
X016037Y017779D01*
X015825Y017991D01*
X015402Y017991D01*
X015190Y017779D01*
X016571Y017779D02*
X016783Y017991D01*
X017206Y017991D01*
X017418Y017779D01*
X017418Y017568D01*
X016571Y016720D01*
X017418Y016720D01*
X019333Y016720D02*
X019333Y017991D01*
X019969Y017991D01*
X020181Y017779D01*
X020181Y017356D01*
X019969Y017144D01*
X019333Y017144D01*
X020714Y017356D02*
X020714Y016932D01*
X020926Y016720D01*
X021350Y016720D01*
X021562Y016932D01*
X021562Y017356D01*
X021350Y017568D01*
X020926Y017568D01*
X020714Y017356D01*
X022096Y017568D02*
X022096Y016932D01*
X022307Y016720D01*
X022519Y016932D01*
X022731Y016720D01*
X022943Y016932D01*
X022943Y017568D01*
X023477Y017356D02*
X023689Y017568D01*
X024112Y017568D01*
X024324Y017356D01*
X024324Y017144D01*
X023477Y017144D01*
X023477Y016932D02*
X023477Y017356D01*
X023477Y016932D02*
X023689Y016720D01*
X024112Y016720D01*
X024858Y016720D02*
X024858Y017568D01*
X025281Y017568D02*
X024858Y017144D01*
X025281Y017568D02*
X025493Y017568D01*
X026009Y017356D02*
X026221Y017568D01*
X026644Y017568D01*
X026856Y017356D01*
X026856Y017144D01*
X026009Y017144D01*
X026009Y016932D02*
X026009Y017356D01*
X026009Y016932D02*
X026221Y016720D01*
X026644Y016720D01*
X027390Y016932D02*
X027390Y017356D01*
X027602Y017568D01*
X028237Y017568D01*
X028237Y017991D02*
X028237Y016720D01*
X027602Y016720D01*
X027390Y016932D01*
X027587Y025620D02*
X027375Y025832D01*
X027587Y026044D01*
X028222Y026044D01*
X028222Y026256D02*
X028222Y025620D01*
X027587Y025620D01*
X026841Y025832D02*
X026841Y026256D01*
X026629Y026468D01*
X026206Y026468D01*
X025994Y026256D01*
X025994Y025832D01*
X026206Y025620D01*
X026629Y025620D01*
X026841Y025832D01*
X027587Y026468D02*
X028010Y026468D01*
X028222Y026256D01*
X028756Y026468D02*
X028756Y025620D01*
X028756Y026044D02*
X029180Y026468D01*
X029392Y026468D01*
X029907Y026256D02*
X030119Y026468D01*
X030754Y026468D01*
X030754Y026891D02*
X030754Y025620D01*
X030119Y025620D01*
X029907Y025832D01*
X029907Y026256D01*
X025460Y026256D02*
X025460Y025832D01*
X025248Y025620D01*
X024613Y025620D01*
X024613Y026891D01*
X024613Y026468D02*
X025248Y026468D01*
X025460Y026256D01*
X024097Y026468D02*
X023885Y026468D01*
X023462Y026044D01*
X023462Y025620D02*
X023462Y026468D01*
X022928Y026256D02*
X022928Y026044D01*
X022081Y026044D01*
X022081Y026256D02*
X022292Y026468D01*
X022716Y026468D01*
X022928Y026256D01*
X022716Y025620D02*
X022292Y025620D01*
X022081Y025832D01*
X022081Y026256D01*
X021547Y026256D02*
X021547Y025620D01*
X021547Y026256D02*
X021335Y026468D01*
X020911Y026468D01*
X020699Y026256D01*
X020202Y026468D02*
X019779Y026468D01*
X019991Y026679D02*
X019991Y025832D01*
X020202Y025620D01*
X020699Y025620D02*
X020699Y026891D01*
X019245Y026256D02*
X019245Y025832D01*
X019033Y025620D01*
X018609Y025620D01*
X018398Y025832D01*
X018398Y026256D01*
X018609Y026468D01*
X019033Y026468D01*
X019245Y026256D01*
X017864Y026891D02*
X017864Y025620D01*
X017016Y025620D02*
X017016Y026891D01*
X017440Y026468D01*
X017864Y026891D01*
X015202Y026799D02*
X015202Y026588D01*
X014354Y025740D01*
X015202Y025740D01*
X015202Y026799D02*
X014990Y027011D01*
X014566Y027011D01*
X014354Y026799D01*
X013821Y026799D02*
X013821Y026588D01*
X013609Y026376D01*
X013821Y026164D01*
X013821Y025952D01*
X013609Y025740D01*
X013185Y025740D01*
X012973Y025952D01*
X012439Y025952D02*
X012439Y026376D01*
X012228Y026588D01*
X011592Y026588D01*
X011592Y025317D01*
X011592Y025740D02*
X012228Y025740D01*
X012439Y025952D01*
X013397Y026376D02*
X013609Y026376D01*
X013821Y026799D02*
X013609Y027011D01*
X013185Y027011D01*
X012973Y026799D01*
X011058Y026376D02*
X011058Y025740D01*
X010423Y025740D01*
X010211Y025952D01*
X010423Y026164D01*
X011058Y026164D01*
X011058Y026376D02*
X010846Y026588D01*
X010423Y026588D01*
X009677Y026799D02*
X009677Y026376D01*
X009465Y026164D01*
X008830Y026164D01*
X009254Y026164D02*
X009677Y025740D01*
X008830Y025740D02*
X008830Y027011D01*
X009465Y027011D01*
X009677Y026799D01*
X008296Y026376D02*
X008296Y025952D01*
X008084Y025740D01*
X007449Y025740D01*
X007449Y025317D02*
X007449Y026588D01*
X008084Y026588D01*
X008296Y026376D01*
X006915Y026376D02*
X006915Y026164D01*
X006068Y026164D01*
X006068Y026376D02*
X006279Y026588D01*
X006703Y026588D01*
X006915Y026376D01*
X006703Y025740D02*
X006279Y025740D01*
X006068Y025952D01*
X006068Y026376D01*
X005534Y026376D02*
X005322Y026164D01*
X004686Y026164D01*
X004686Y025740D02*
X004686Y027011D01*
X005322Y027011D01*
X005534Y026799D01*
X005534Y026376D01*
X005110Y026164D02*
X005534Y025740D01*
X011470Y017991D02*
X011894Y017568D01*
X011894Y016720D01*
X011894Y017356D02*
X011046Y017356D01*
X011046Y017568D02*
X011470Y017991D01*
X011046Y017568D02*
X011046Y016720D01*
X012428Y017144D02*
X012851Y016720D01*
X013275Y017144D01*
X013275Y017991D01*
X012428Y017991D02*
X012428Y017144D01*
D17*
X007401Y010821D02*
X005560Y010821D01*
X006174Y010208D01*
X005560Y009594D01*
X007401Y009594D01*
X007095Y008980D02*
X006788Y008980D01*
X006481Y008673D01*
X006481Y008366D01*
X006481Y008673D02*
X006174Y008980D01*
X005867Y008980D01*
X005560Y008673D01*
X005560Y008059D01*
X005867Y007752D01*
X007095Y007752D02*
X007401Y008059D01*
X007401Y008673D01*
X007095Y008980D01*
X004011Y030455D02*
X004051Y035405D01*
X036971Y035345D01*
X036931Y035235D01*
X036961Y035275D02*
X036971Y035345D01*
X036931Y030455D01*
X004011Y030455D01*
D18*
X004681Y031705D02*
X006181Y031705D01*
X006181Y031755D01*
X006681Y031755D01*
X006681Y031705D01*
X006881Y031705D01*
X006881Y032105D01*
X006881Y032205D01*
X005181Y032205D01*
X005181Y034705D01*
X010181Y034705D01*
X010181Y032205D01*
X008481Y032205D01*
X008481Y032105D01*
X008481Y031705D01*
X006881Y031705D01*
X006881Y032205D02*
X006881Y032505D01*
X008481Y032505D01*
X008481Y032205D01*
X008481Y031705D02*
X010681Y031705D01*
X010681Y035205D01*
X010181Y035205D01*
X010181Y035305D01*
X009681Y035305D01*
X009681Y035205D01*
X007931Y035205D01*
X007931Y035305D01*
X007431Y035305D01*
X007431Y035205D01*
X005681Y035205D01*
X005681Y035305D01*
X005181Y035305D01*
X005181Y035205D01*
X004681Y035205D01*
X004681Y031705D01*
X005706Y032730D02*
X006007Y032730D01*
X005857Y032730D02*
X005857Y033181D01*
X005706Y033031D01*
X005706Y033730D02*
X006007Y034031D01*
X006007Y034106D01*
X005932Y034181D01*
X005781Y034181D01*
X005706Y034106D01*
X005706Y033730D02*
X006007Y033730D01*
X007556Y032105D02*
X007707Y032256D01*
X007857Y032331D01*
X007782Y032105D02*
X007556Y032105D01*
X007556Y031955D01*
X007631Y031880D01*
X007782Y031880D01*
X007857Y031955D01*
X007857Y032030D01*
X007782Y032105D01*
X011181Y031705D02*
X011181Y035205D01*
X011681Y035205D01*
X011681Y035305D01*
X012181Y035305D01*
X012181Y035205D01*
X013931Y035205D01*
X013931Y035305D01*
X014431Y035305D01*
X014431Y035205D01*
X016181Y035205D01*
X016181Y035305D01*
X016681Y035305D01*
X016681Y035205D01*
X017181Y035205D01*
X017181Y031705D01*
X014981Y031705D01*
X014981Y032105D01*
X014981Y032205D01*
X016681Y032205D01*
X016681Y034705D01*
X011681Y034705D01*
X011681Y032205D01*
X013381Y032205D01*
X013381Y032105D01*
X013381Y031705D01*
X013181Y031705D01*
X013181Y031755D01*
X012681Y031755D01*
X012681Y031705D01*
X011181Y031705D01*
X012206Y032730D02*
X012507Y032730D01*
X012357Y032730D02*
X012357Y033181D01*
X012206Y033031D01*
X012206Y033730D02*
X012507Y034031D01*
X012507Y034106D01*
X012432Y034181D01*
X012281Y034181D01*
X012206Y034106D01*
X012206Y033730D02*
X012507Y033730D01*
X013381Y032505D02*
X013381Y032205D01*
X013381Y032505D02*
X014981Y032505D01*
X014981Y032205D01*
X014981Y031705D02*
X013381Y031705D01*
X014056Y031955D02*
X014131Y031880D01*
X014282Y031880D01*
X014357Y031955D01*
X014357Y032030D01*
X014282Y032105D01*
X014056Y032105D01*
X014056Y031955D01*
X014056Y032105D02*
X014207Y032256D01*
X014357Y032331D01*
X016681Y029831D02*
X016606Y029756D01*
X016606Y029455D01*
X016681Y029380D01*
X016832Y029380D01*
X016907Y029455D01*
X017067Y029380D02*
X017367Y029380D01*
X017217Y029380D02*
X017217Y029831D01*
X017067Y029681D01*
X016907Y029756D02*
X016832Y029831D01*
X016681Y029831D01*
X017681Y031705D02*
X019181Y031705D01*
X019181Y031755D01*
X019681Y031755D01*
X019681Y031705D01*
X019881Y031705D01*
X019881Y032105D01*
X019881Y032205D01*
X018181Y032205D01*
X018181Y034705D01*
X023181Y034705D01*
X023181Y032205D01*
X021481Y032205D01*
X021481Y032105D01*
X021481Y031705D01*
X019881Y031705D01*
X020556Y031955D02*
X020631Y031880D01*
X020782Y031880D01*
X020857Y031955D01*
X020857Y032030D01*
X020782Y032105D01*
X020556Y032105D01*
X020556Y031955D01*
X020556Y032105D02*
X020707Y032256D01*
X020857Y032331D01*
X021481Y032205D02*
X021481Y032505D01*
X019881Y032505D01*
X019881Y032205D01*
X019007Y032730D02*
X018706Y032730D01*
X018857Y032730D02*
X018857Y033181D01*
X018706Y033031D01*
X018706Y033730D02*
X019007Y034031D01*
X019007Y034106D01*
X018932Y034181D01*
X018781Y034181D01*
X018706Y034106D01*
X018706Y033730D02*
X019007Y033730D01*
X018681Y035205D02*
X020431Y035205D01*
X020431Y035305D01*
X020931Y035305D01*
X020931Y035205D01*
X022681Y035205D01*
X022681Y035305D01*
X023181Y035305D01*
X023181Y035205D01*
X023681Y035205D01*
X023681Y031705D01*
X021481Y031705D01*
X019936Y030596D02*
X019936Y030446D01*
X019861Y030371D01*
X019711Y030521D02*
X019711Y030596D01*
X019786Y030671D01*
X019861Y030671D01*
X019936Y030596D01*
X019711Y030596D02*
X019636Y030671D01*
X019561Y030671D01*
X019486Y030596D01*
X019486Y030446D01*
X019561Y030371D01*
X019561Y030211D02*
X019711Y030211D01*
X019786Y030136D01*
X019786Y029911D01*
X019936Y029911D02*
X019486Y029911D01*
X019486Y030136D01*
X019561Y030211D01*
X019486Y029751D02*
X019486Y029600D01*
X019486Y029675D02*
X019861Y029675D01*
X019936Y029600D01*
X019936Y029525D01*
X019861Y029450D01*
X019981Y028970D02*
X019906Y028895D01*
X019906Y028745D01*
X019981Y028670D01*
X019981Y028510D02*
X019906Y028435D01*
X019906Y028285D01*
X019981Y028210D01*
X020281Y028210D01*
X020356Y028285D01*
X020356Y028435D01*
X020281Y028510D01*
X020356Y028670D02*
X020056Y028970D01*
X019981Y028970D01*
X020356Y028970D02*
X020356Y028670D01*
X017681Y031705D02*
X017681Y035205D01*
X018181Y035205D01*
X018181Y035305D01*
X018681Y035305D01*
X018681Y035205D01*
X024181Y035205D02*
X024181Y031705D01*
X025681Y031705D01*
X025681Y031755D01*
X026181Y031755D01*
X026181Y031705D01*
X026381Y031705D01*
X026381Y032105D01*
X026381Y032205D01*
X024681Y032205D01*
X024681Y034705D01*
X029681Y034705D01*
X029681Y032205D01*
X027981Y032205D01*
X027981Y032105D01*
X027981Y031705D01*
X026381Y031705D01*
X026381Y032205D02*
X026381Y032505D01*
X027981Y032505D01*
X027981Y032205D01*
X027357Y032331D02*
X027207Y032256D01*
X027056Y032105D01*
X027282Y032105D01*
X027357Y032030D01*
X027357Y031955D01*
X027282Y031880D01*
X027131Y031880D01*
X027056Y031955D01*
X027056Y032105D01*
X027981Y031705D02*
X030181Y031705D01*
X030181Y035205D01*
X029681Y035205D01*
X029681Y035305D01*
X029181Y035305D01*
X029181Y035205D01*
X027431Y035205D01*
X027431Y035305D01*
X026931Y035305D01*
X026931Y035205D01*
X025181Y035205D01*
X025181Y035305D01*
X024681Y035305D01*
X024681Y035205D01*
X024181Y035205D01*
X025281Y034181D02*
X025206Y034106D01*
X025281Y034181D02*
X025432Y034181D01*
X025507Y034106D01*
X025507Y034031D01*
X025206Y033730D01*
X025507Y033730D01*
X025357Y033181D02*
X025206Y033031D01*
X025357Y033181D02*
X025357Y032730D01*
X025507Y032730D02*
X025206Y032730D01*
X030681Y031705D02*
X032181Y031705D01*
X032181Y031755D01*
X032681Y031755D01*
X032681Y031705D01*
X032881Y031705D01*
X032881Y032105D01*
X032881Y032205D01*
X031181Y032205D01*
X031181Y034705D01*
X036181Y034705D01*
X036181Y032205D01*
X034481Y032205D01*
X034481Y032105D01*
X034481Y031705D01*
X032881Y031705D01*
X032881Y032205D02*
X032881Y032505D01*
X034481Y032505D01*
X034481Y032205D01*
X034481Y031705D02*
X036681Y031705D01*
X036681Y035205D01*
X036181Y035205D01*
X036181Y035305D01*
X035681Y035305D01*
X035681Y035205D01*
X033931Y035205D01*
X033931Y035305D01*
X033431Y035305D01*
X033431Y035205D01*
X031681Y035205D01*
X031681Y035305D01*
X031181Y035305D01*
X031181Y035205D01*
X030681Y035205D01*
X030681Y031705D01*
X031706Y032730D02*
X032007Y032730D01*
X031857Y032730D02*
X031857Y033181D01*
X031706Y033031D01*
X031706Y033730D02*
X032007Y034031D01*
X032007Y034106D01*
X031932Y034181D01*
X031781Y034181D01*
X031706Y034106D01*
X031706Y033730D02*
X032007Y033730D01*
X033556Y032105D02*
X033707Y032256D01*
X033857Y032331D01*
X033782Y032105D02*
X033556Y032105D01*
X033556Y031955D01*
X033631Y031880D01*
X033782Y031880D01*
X033857Y031955D01*
X033857Y032030D01*
X033782Y032105D01*
X034631Y027370D02*
X034931Y027070D01*
X035006Y027145D01*
X035006Y027295D01*
X034931Y027370D01*
X034631Y027370D01*
X034556Y027295D01*
X034556Y027145D01*
X034631Y027070D01*
X034931Y027070D01*
X034931Y026910D02*
X035006Y026835D01*
X035006Y026685D01*
X034931Y026609D01*
X034931Y026449D02*
X035006Y026374D01*
X035006Y026224D01*
X034931Y026149D01*
X034631Y026149D01*
X034556Y026224D01*
X034556Y026374D01*
X034631Y026449D01*
X034631Y026609D02*
X034556Y026685D01*
X034556Y026835D01*
X034631Y026910D01*
X034706Y026910D01*
X034781Y026835D01*
X034856Y026910D01*
X034931Y026910D01*
X034781Y026835D02*
X034781Y026760D01*
X030186Y017471D02*
X030186Y017171D01*
X029886Y017471D01*
X029811Y017471D01*
X029736Y017396D01*
X029736Y017246D01*
X029811Y017171D01*
X029811Y017011D02*
X029961Y017011D01*
X030036Y016936D01*
X030036Y016711D01*
X030186Y016711D02*
X029736Y016711D01*
X029736Y016936D01*
X029811Y017011D01*
X029736Y016551D02*
X029736Y016400D01*
X029736Y016475D02*
X030111Y016475D01*
X030186Y016400D01*
X030186Y016325D01*
X030111Y016250D01*
X034296Y015041D02*
X034296Y014741D01*
X034521Y014741D01*
X034446Y014891D01*
X034446Y014966D01*
X034521Y015041D01*
X034671Y015041D01*
X034746Y014966D01*
X034746Y014816D01*
X034671Y014741D01*
X034671Y014581D02*
X034746Y014505D01*
X034746Y014355D01*
X034671Y014280D01*
X034371Y014280D01*
X034296Y014355D01*
X034296Y014505D01*
X034371Y014581D01*
X038266Y008808D02*
X038266Y008733D01*
X038416Y008583D01*
X038566Y008583D02*
X038266Y008583D01*
X038341Y008422D02*
X038416Y008422D01*
X038416Y008122D01*
X038341Y008122D02*
X038266Y008197D01*
X038266Y008347D01*
X038341Y008422D01*
X038566Y008347D02*
X038566Y008197D01*
X038491Y008122D01*
X038341Y008122D01*
X038266Y007962D02*
X038266Y007737D01*
X038341Y007662D01*
X038491Y007662D01*
X038566Y007737D01*
X038566Y007962D01*
X038116Y007962D01*
X037736Y007667D02*
X037736Y007517D01*
X037661Y007442D01*
X037511Y007442D02*
X037436Y007592D01*
X037436Y007667D01*
X037511Y007742D01*
X037661Y007742D01*
X037736Y007667D01*
X037511Y007442D02*
X037286Y007442D01*
X037286Y007742D01*
X037361Y007282D02*
X037436Y007282D01*
X037511Y007206D01*
X037511Y007056D01*
X037436Y006981D01*
X037361Y006981D01*
X037286Y007056D01*
X037286Y007206D01*
X037361Y007282D01*
X037511Y007206D02*
X037586Y007282D01*
X037661Y007282D01*
X037736Y007206D01*
X037736Y007056D01*
X037661Y006981D01*
X037586Y006981D01*
X037511Y007056D01*
X037511Y006821D02*
X037511Y006521D01*
X037286Y006746D01*
X037736Y006746D01*
X037661Y006361D02*
X037586Y006361D01*
X037511Y006286D01*
X037511Y006136D01*
X037436Y006061D01*
X037361Y006061D01*
X037286Y006136D01*
X037286Y006286D01*
X037361Y006361D01*
X037661Y006361D02*
X037736Y006286D01*
X037736Y006136D01*
X037661Y006061D01*
X037736Y005901D02*
X037586Y005750D01*
X037586Y005825D02*
X037586Y005600D01*
X037736Y005600D02*
X037286Y005600D01*
X037286Y005825D01*
X037361Y005901D01*
X037511Y005901D01*
X037586Y005825D01*
X038116Y005891D02*
X038116Y005590D01*
X038566Y005590D01*
X038566Y005891D01*
X038566Y006051D02*
X038266Y006351D01*
X038266Y006511D02*
X038266Y006661D01*
X038191Y006586D02*
X038491Y006586D01*
X038566Y006661D01*
X038566Y006818D02*
X038266Y006818D01*
X038416Y006818D02*
X038266Y006968D01*
X038266Y007043D01*
X038266Y007201D02*
X038491Y007201D01*
X038566Y007277D01*
X038566Y007502D01*
X038266Y007502D01*
X038566Y006351D02*
X038266Y006051D01*
X038341Y005740D02*
X038341Y005590D01*
X028907Y003055D02*
X028606Y003055D01*
X028832Y003281D01*
X028832Y002830D01*
X026907Y002905D02*
X026832Y002830D01*
X026681Y002830D01*
X026606Y002905D01*
X026757Y003055D02*
X026832Y003055D01*
X026907Y002980D01*
X026907Y002905D01*
X026832Y003055D02*
X026907Y003131D01*
X026907Y003206D01*
X026832Y003281D01*
X026681Y003281D01*
X026606Y003206D01*
X024907Y003206D02*
X024832Y003281D01*
X024681Y003281D01*
X024606Y003206D01*
X024907Y003206D02*
X024907Y003131D01*
X024606Y002830D01*
X024907Y002830D01*
X023057Y002830D02*
X022756Y002830D01*
X022907Y002830D02*
X022907Y003281D01*
X022756Y003131D01*
X020207Y003055D02*
X019906Y003055D01*
X020132Y003281D01*
X020132Y002830D01*
X018207Y002905D02*
X018132Y002830D01*
X017981Y002830D01*
X017906Y002905D01*
X018057Y003055D02*
X018132Y003055D01*
X018207Y002980D01*
X018207Y002905D01*
X018132Y003055D02*
X018207Y003131D01*
X018207Y003206D01*
X018132Y003281D01*
X017981Y003281D01*
X017906Y003206D01*
X016207Y003206D02*
X016132Y003281D01*
X015981Y003281D01*
X015906Y003206D01*
X016207Y003206D02*
X016207Y003131D01*
X015906Y002830D01*
X016207Y002830D01*
X014357Y002830D02*
X014056Y002830D01*
X014207Y002830D02*
X014207Y003281D01*
X014056Y003131D01*
X012334Y003993D02*
X012334Y015017D01*
X000326Y015017D01*
X000326Y003993D01*
X012334Y003993D01*
X024576Y008845D02*
X024651Y008770D01*
X024727Y008770D01*
X024802Y008845D01*
X024802Y009221D01*
X024727Y009221D02*
X024877Y009221D01*
X025037Y009221D02*
X025262Y009221D01*
X025337Y009146D01*
X025337Y008995D01*
X025262Y008920D01*
X025037Y008920D01*
X025037Y008770D02*
X025037Y009221D01*
X025497Y009071D02*
X025647Y009221D01*
X025647Y008770D01*
X025497Y008770D02*
X025797Y008770D01*
X024596Y015770D02*
X024296Y015770D01*
X024446Y015770D02*
X024446Y016221D01*
X024296Y016071D01*
X024136Y015770D02*
X023835Y015770D01*
X023986Y015770D02*
X023986Y016221D01*
X023835Y016071D01*
X023675Y016146D02*
X023375Y015845D01*
X023450Y015770D01*
X023600Y015770D01*
X023675Y015845D01*
X023675Y016146D01*
X023600Y016221D01*
X023450Y016221D01*
X023375Y016146D01*
X023375Y015845D01*
X023215Y015770D02*
X022915Y015770D01*
X023215Y016071D01*
X023215Y016146D01*
X023140Y016221D01*
X022990Y016221D01*
X022915Y016146D01*
X022755Y016221D02*
X022454Y015770D01*
X022294Y015845D02*
X022294Y015920D01*
X022219Y015995D01*
X022069Y015995D01*
X021994Y016071D01*
X021994Y016146D01*
X022069Y016221D01*
X022219Y016221D01*
X022294Y016146D01*
X022294Y016071D01*
X022219Y015995D01*
X022069Y015995D02*
X021994Y015920D01*
X021994Y015845D01*
X022069Y015770D01*
X022219Y015770D01*
X022294Y015845D01*
X021834Y015770D02*
X021534Y015770D01*
X021834Y016071D01*
X021834Y016146D01*
X021759Y016221D01*
X021609Y016221D01*
X021534Y016146D01*
X021374Y016221D02*
X021073Y015770D01*
X020913Y015770D02*
X020613Y015770D01*
X020913Y016071D01*
X020913Y016146D01*
X020838Y016221D01*
X020688Y016221D01*
X020613Y016146D01*
X007906Y023120D02*
X007606Y023420D01*
X007531Y023420D01*
X007456Y023345D01*
X007456Y023195D01*
X007531Y023120D01*
X007906Y023120D02*
X007906Y023420D01*
X006906Y023420D02*
X006906Y023120D01*
X006906Y023270D02*
X006456Y023270D01*
X006606Y023120D01*
X005981Y020820D02*
X005681Y020820D01*
X005981Y020520D01*
X006056Y020595D01*
X006056Y020745D01*
X005981Y020820D01*
X005681Y020820D02*
X005606Y020745D01*
X005606Y020595D01*
X005681Y020520D01*
X005981Y020520D01*
X006056Y020360D02*
X006056Y020060D01*
X006056Y020210D02*
X005606Y020210D01*
X005756Y020060D01*
X006106Y019570D02*
X006106Y019270D01*
X006106Y019420D02*
X005656Y019420D01*
X005806Y019270D01*
X005731Y019110D02*
X005656Y019035D01*
X005656Y018885D01*
X005731Y018810D01*
X005806Y018810D01*
X005881Y018885D01*
X005881Y019035D01*
X005956Y019110D01*
X006031Y019110D01*
X006106Y019035D01*
X006106Y018885D01*
X006031Y018810D01*
D19*
X005862Y030800D02*
X005476Y030800D01*
X005476Y031571D01*
X005862Y031571D01*
X005990Y031442D01*
X005990Y031314D01*
X005862Y031186D01*
X005476Y031186D01*
X005862Y031186D02*
X005990Y031057D01*
X005990Y030929D01*
X005862Y030800D01*
X007060Y030800D02*
X007060Y031314D01*
X007317Y031571D01*
X007574Y031314D01*
X007574Y030800D01*
X007852Y030800D02*
X008366Y031571D01*
X008644Y031571D02*
X008901Y031571D01*
X008772Y031571D02*
X008772Y030800D01*
X008644Y030800D02*
X008901Y030800D01*
X009172Y030929D02*
X009300Y030800D01*
X009557Y030800D01*
X009685Y030929D01*
X009685Y031057D01*
X009557Y031186D01*
X009300Y031186D01*
X009172Y031314D01*
X009172Y031442D01*
X009300Y031571D01*
X009557Y031571D01*
X009685Y031442D01*
X008366Y030800D02*
X007852Y031571D01*
X007574Y031186D02*
X007060Y031186D01*
D20*
X001810Y031135D03*
X001810Y031676D03*
X006370Y016396D03*
X006370Y015855D03*
D21*
X006523Y016125D03*
X001963Y031405D03*
D22*
X001891Y031925D02*
X001891Y032145D01*
X002001Y032145D01*
X002038Y032109D01*
X002038Y032035D01*
X002001Y031999D01*
X001891Y031999D01*
X002112Y031962D02*
X002149Y031925D01*
X002222Y031925D01*
X002259Y031962D01*
X002259Y032109D01*
X002222Y032145D01*
X002149Y032145D01*
X002112Y032109D01*
X002112Y031962D01*
X002333Y031925D02*
X002407Y031999D01*
X002480Y031925D01*
X002480Y032145D01*
X002554Y032145D02*
X002554Y031925D01*
X002701Y031925D01*
X002775Y031925D02*
X002775Y032145D01*
X002885Y032145D01*
X002922Y032109D01*
X002922Y032035D01*
X002885Y031999D01*
X002775Y031999D01*
X002849Y031999D02*
X002922Y031925D01*
X002701Y032145D02*
X002554Y032145D01*
X002554Y032035D02*
X002628Y032035D01*
X002333Y032145D02*
X002333Y031925D01*
X005081Y032105D02*
X006881Y032105D01*
X008481Y032105D02*
X010281Y032105D01*
X010281Y034805D01*
X005081Y034805D01*
X005081Y032105D01*
X011581Y032105D02*
X013381Y032105D01*
X014981Y032105D02*
X016781Y032105D01*
X016781Y034805D01*
X011581Y034805D01*
X011581Y032105D01*
X018081Y032105D02*
X019881Y032105D01*
X021481Y032105D02*
X023281Y032105D01*
X023281Y034805D01*
X018081Y034805D01*
X018081Y032105D01*
X024581Y032105D02*
X026381Y032105D01*
X027981Y032105D02*
X029781Y032105D01*
X029781Y034805D01*
X024581Y034805D01*
X024581Y032105D01*
X031081Y032105D02*
X032881Y032105D01*
X034481Y032105D02*
X036281Y032105D01*
X036281Y034805D01*
X031081Y034805D01*
X031081Y032105D01*
X012269Y014299D02*
X012232Y014335D01*
X012122Y014335D01*
X012122Y014115D01*
X012232Y014115D01*
X012269Y014152D01*
X012269Y014299D01*
X012048Y014299D02*
X012011Y014335D01*
X011938Y014335D01*
X011901Y014299D01*
X011901Y014152D01*
X011938Y014115D01*
X012011Y014115D01*
X012048Y014152D01*
X008531Y016955D02*
X008531Y024155D01*
X005831Y024155D01*
X005831Y021355D01*
X005831Y019755D02*
X005831Y019355D01*
X005381Y019005D02*
X005281Y019005D01*
X005281Y018005D01*
X005381Y018005D01*
X005831Y018755D02*
X005831Y016955D01*
X008531Y016955D01*
X004912Y016229D02*
X004875Y016265D01*
X004802Y016265D01*
X004765Y016229D01*
X004765Y016082D01*
X004802Y016045D01*
X004875Y016045D01*
X004912Y016082D01*
X004912Y016155D01*
X004839Y016155D01*
X004691Y016082D02*
X004691Y016265D01*
X004544Y016265D02*
X004544Y016082D01*
X004581Y016045D01*
X004654Y016045D01*
X004691Y016082D01*
X004470Y016082D02*
X004433Y016045D01*
X004323Y016045D01*
X004323Y016265D01*
X004433Y016265D01*
X004470Y016229D01*
X004470Y016192D01*
X004433Y016155D01*
X004323Y016155D01*
X004433Y016155D02*
X004470Y016119D01*
X004470Y016082D01*
X004249Y016045D02*
X004102Y016045D01*
X004102Y016265D01*
X004249Y016265D01*
X004176Y016155D02*
X004102Y016155D01*
X004028Y016082D02*
X004028Y016229D01*
X003991Y016265D01*
X003881Y016265D01*
X003881Y016045D01*
X003991Y016045D01*
X004028Y016082D01*
X003081Y018055D02*
X002981Y018055D01*
X003081Y018055D02*
X003081Y019005D01*
X002981Y019005D01*
X031081Y001155D02*
X036881Y001155D01*
D23*
X036931Y009955D03*
X033831Y028505D03*
D24*
X036810Y030770D02*
X039448Y030770D01*
X039447Y030770D02*
X039449Y030798D01*
X039454Y030826D01*
X039464Y030853D01*
X039476Y030879D01*
X039492Y030902D01*
X039511Y030923D01*
X039532Y030942D01*
X039555Y030958D01*
X039581Y030970D01*
X039608Y030980D01*
X039636Y030985D01*
X039664Y030987D01*
X039692Y030985D01*
X039720Y030980D01*
X039747Y030970D01*
X039773Y030958D01*
X039796Y030942D01*
X039817Y030923D01*
X039836Y030902D01*
X039852Y030878D01*
X039864Y030853D01*
X039874Y030826D01*
X039879Y030798D01*
X039881Y030770D01*
X040511Y030770D01*
X040511Y013841D01*
X036810Y013841D01*
X036810Y030770D01*
X037282Y030809D02*
X037282Y031085D01*
X037322Y031046D02*
X037281Y031075D01*
X037242Y031107D01*
X037205Y031142D01*
X037172Y031179D01*
X037141Y031219D01*
X037114Y031261D01*
X037089Y031305D01*
X037069Y031351D01*
X037052Y031399D01*
X037038Y031447D01*
X037029Y031497D01*
X037023Y031547D01*
X037021Y031597D01*
X037023Y031647D01*
X037029Y031697D01*
X037038Y031747D01*
X037052Y031795D01*
X037069Y031843D01*
X037089Y031889D01*
X037114Y031933D01*
X037141Y031975D01*
X037172Y032015D01*
X037205Y032052D01*
X037242Y032087D01*
X037281Y032119D01*
X037322Y032148D01*
X038030Y032148D01*
X038071Y032119D01*
X038110Y032087D01*
X038147Y032052D01*
X038180Y032015D01*
X038211Y031975D01*
X038238Y031933D01*
X038263Y031889D01*
X038283Y031843D01*
X038300Y031795D01*
X038314Y031747D01*
X038323Y031697D01*
X038329Y031647D01*
X038331Y031597D01*
X038329Y031547D01*
X038323Y031497D01*
X038314Y031447D01*
X038300Y031399D01*
X038283Y031351D01*
X038263Y031305D01*
X038238Y031261D01*
X038211Y031219D01*
X038180Y031179D01*
X038147Y031142D01*
X038110Y031107D01*
X038071Y031075D01*
X038030Y031046D01*
X038070Y031085D02*
X038070Y030809D01*
X029681Y030930D02*
X029681Y028680D01*
X028556Y028680D01*
X028556Y028305D01*
X025806Y028305D01*
X025806Y028680D01*
X024681Y028680D01*
X024681Y030930D01*
X029681Y030930D01*
X016738Y020949D02*
X016740Y020976D01*
X016746Y021003D01*
X016755Y021029D01*
X016768Y021053D01*
X016784Y021076D01*
X016803Y021095D01*
X016825Y021112D01*
X016849Y021126D01*
X016874Y021136D01*
X016901Y021143D01*
X016928Y021146D01*
X016956Y021145D01*
X016983Y021140D01*
X017009Y021132D01*
X017033Y021120D01*
X017056Y021104D01*
X017077Y021086D01*
X017094Y021065D01*
X017109Y021041D01*
X017120Y021016D01*
X017128Y020990D01*
X017132Y020963D01*
X017132Y020935D01*
X017128Y020908D01*
X017120Y020882D01*
X017109Y020857D01*
X017094Y020833D01*
X017077Y020812D01*
X017056Y020794D01*
X017034Y020778D01*
X017009Y020766D01*
X016983Y020758D01*
X016956Y020753D01*
X016928Y020752D01*
X016901Y020755D01*
X016874Y020762D01*
X016849Y020772D01*
X016825Y020786D01*
X016803Y020803D01*
X016784Y020822D01*
X016768Y020845D01*
X016755Y020869D01*
X016746Y020895D01*
X016740Y020922D01*
X016738Y020949D01*
X017056Y015455D02*
X017056Y010455D01*
X019306Y010455D01*
X019306Y011580D01*
X019681Y011580D01*
X019681Y014330D01*
X019306Y014330D01*
X019306Y015455D01*
X017056Y015455D01*
X016306Y015455D02*
X016306Y014330D01*
X016681Y014330D01*
X016681Y011580D01*
X016306Y011580D01*
X016306Y010455D01*
X014056Y010455D01*
X014056Y015455D01*
X016306Y015455D01*
X020056Y015455D02*
X020056Y010455D01*
X022306Y010455D01*
X022306Y011580D01*
X022681Y011580D01*
X022681Y014330D01*
X022306Y014330D01*
X022306Y015455D01*
X020056Y015455D01*
X023056Y015455D02*
X023056Y010455D01*
X025306Y010455D01*
X025306Y011580D01*
X025681Y011580D01*
X025681Y014330D01*
X025306Y014330D01*
X025306Y015455D01*
X023056Y015455D01*
X037282Y013801D02*
X037282Y013526D01*
X038030Y013565D02*
X038071Y013536D01*
X038110Y013504D01*
X038147Y013469D01*
X038180Y013432D01*
X038211Y013392D01*
X038238Y013350D01*
X038263Y013306D01*
X038283Y013260D01*
X038300Y013212D01*
X038314Y013164D01*
X038323Y013114D01*
X038329Y013064D01*
X038331Y013014D01*
X038329Y012964D01*
X038323Y012914D01*
X038314Y012864D01*
X038300Y012816D01*
X038283Y012768D01*
X038263Y012722D01*
X038238Y012678D01*
X038211Y012636D01*
X038180Y012596D01*
X038147Y012559D01*
X038110Y012524D01*
X038071Y012492D01*
X038030Y012463D01*
X037322Y012463D01*
X037281Y012492D01*
X037242Y012524D01*
X037205Y012559D01*
X037172Y012596D01*
X037141Y012636D01*
X037114Y012678D01*
X037089Y012722D01*
X037069Y012768D01*
X037052Y012816D01*
X037038Y012864D01*
X037029Y012914D01*
X037023Y012964D01*
X037021Y013014D01*
X037023Y013064D01*
X037029Y013114D01*
X037038Y013164D01*
X037052Y013212D01*
X037069Y013260D01*
X037089Y013306D01*
X037114Y013350D01*
X037141Y013392D01*
X037172Y013432D01*
X037205Y013469D01*
X037242Y013504D01*
X037281Y013536D01*
X037322Y013565D01*
X038070Y013526D02*
X038070Y013801D01*
X015331Y028230D02*
X014206Y028230D01*
X014206Y027855D01*
X011456Y027855D01*
X011456Y028230D01*
X010331Y028230D01*
X010331Y030480D01*
X015331Y030480D01*
X015331Y028230D01*
X009681Y028280D02*
X008556Y028280D01*
X008556Y027905D01*
X005806Y027905D01*
X005806Y028280D01*
X004681Y028280D01*
X004681Y030530D01*
X009681Y030530D01*
X009681Y028280D01*
D25*
X016731Y008455D02*
X016775Y008453D01*
X016818Y008447D01*
X016860Y008438D01*
X016902Y008425D01*
X016942Y008408D01*
X016981Y008388D01*
X017018Y008365D01*
X017052Y008338D01*
X017085Y008309D01*
X017114Y008276D01*
X017141Y008242D01*
X017164Y008205D01*
X017184Y008166D01*
X017201Y008126D01*
X017214Y008084D01*
X017223Y008042D01*
X017229Y007999D01*
X017231Y007955D01*
X017229Y007911D01*
X017223Y007868D01*
X017214Y007826D01*
X017201Y007784D01*
X017184Y007744D01*
X017164Y007705D01*
X017141Y007668D01*
X017114Y007634D01*
X017085Y007601D01*
X017052Y007572D01*
X017018Y007545D01*
X016981Y007522D01*
X016942Y007502D01*
X016902Y007485D01*
X016860Y007472D01*
X016818Y007463D01*
X016775Y007457D01*
X016731Y007455D01*
X020381Y007305D02*
X020425Y007307D01*
X020468Y007313D01*
X020510Y007322D01*
X020552Y007335D01*
X020592Y007352D01*
X020631Y007372D01*
X020668Y007395D01*
X020702Y007422D01*
X020735Y007451D01*
X020764Y007484D01*
X020791Y007518D01*
X020814Y007555D01*
X020834Y007594D01*
X020851Y007634D01*
X020864Y007676D01*
X020873Y007718D01*
X020879Y007761D01*
X020881Y007805D01*
X020879Y007849D01*
X020873Y007892D01*
X020864Y007934D01*
X020851Y007976D01*
X020834Y008016D01*
X020814Y008055D01*
X020791Y008092D01*
X020764Y008126D01*
X020735Y008159D01*
X020702Y008188D01*
X020668Y008215D01*
X020631Y008238D01*
X020592Y008258D01*
X020552Y008275D01*
X020510Y008288D01*
X020468Y008297D01*
X020425Y008303D01*
X020381Y008305D01*
X032781Y008605D02*
X032783Y008649D01*
X032789Y008692D01*
X032798Y008734D01*
X032811Y008776D01*
X032828Y008816D01*
X032848Y008855D01*
X032871Y008892D01*
X032898Y008926D01*
X032927Y008959D01*
X032960Y008988D01*
X032994Y009015D01*
X033031Y009038D01*
X033070Y009058D01*
X033110Y009075D01*
X033152Y009088D01*
X033194Y009097D01*
X033237Y009103D01*
X033281Y009105D01*
X033325Y009103D01*
X033368Y009097D01*
X033410Y009088D01*
X033452Y009075D01*
X033492Y009058D01*
X033531Y009038D01*
X033568Y009015D01*
X033602Y008988D01*
X033635Y008959D01*
X033664Y008926D01*
X033691Y008892D01*
X033714Y008855D01*
X033734Y008816D01*
X033751Y008776D01*
X033764Y008734D01*
X033773Y008692D01*
X033779Y008649D01*
X033781Y008605D01*
D26*
X034781Y008605D02*
X031781Y008605D01*
X020381Y009305D02*
X020381Y006305D01*
X016731Y006455D02*
X016731Y009455D01*
D27*
X033781Y016025D03*
X033781Y024485D03*
D28*
X025654Y021754D02*
X025654Y021603D01*
X025604Y021603D02*
X025704Y021603D01*
X025604Y021704D02*
X025654Y021754D01*
X025557Y021729D02*
X025532Y021754D01*
X025482Y021754D01*
X025457Y021729D01*
X025457Y021704D01*
X025482Y021678D01*
X025532Y021678D01*
X025557Y021653D01*
X025557Y021628D01*
X025532Y021603D01*
X025482Y021603D01*
X025457Y021628D01*
X025409Y021628D02*
X025409Y021754D01*
X025309Y021754D02*
X025309Y021628D01*
X025334Y021603D01*
X025384Y021603D01*
X025409Y021628D01*
X025507Y021578D02*
X025507Y021779D01*
X018084Y028760D02*
X017984Y028760D01*
X017936Y028760D02*
X017886Y028810D01*
X017861Y028760D02*
X017836Y028785D01*
X017836Y028885D01*
X017861Y028910D01*
X017911Y028910D01*
X017936Y028885D01*
X017936Y028785D01*
X017911Y028760D01*
X017861Y028760D01*
X017984Y028860D02*
X018034Y028910D01*
X018034Y028760D01*
X001434Y026585D02*
X001409Y026610D01*
X001359Y026610D01*
X001334Y026585D01*
X001286Y026610D02*
X001186Y026460D01*
X001286Y026460D02*
X001186Y026610D01*
X001334Y026460D02*
X001434Y026560D01*
X001434Y026585D01*
X001434Y026460D02*
X001334Y026460D01*
M02*
