G75*
G70*
%OFA0B0*%
%FSLAX24Y24*%
%IPPOS*%
%LPD*%
%AMOC8*
5,1,8,0,0,1.08239X$1,22.5*
%
%ADD10C,0.0000*%
%ADD11C,0.0030*%
%ADD12C,0.0040*%
%ADD13C,0.0060*%
%ADD14C,0.0050*%
D10*
X000796Y001857D02*
X000796Y035553D01*
X040766Y035553D01*
X040766Y001857D01*
X000796Y001857D01*
X011313Y006132D02*
X011315Y006167D01*
X011321Y006202D01*
X011331Y006236D01*
X011344Y006269D01*
X011361Y006300D01*
X011382Y006328D01*
X011405Y006355D01*
X011432Y006378D01*
X011460Y006399D01*
X011491Y006416D01*
X011524Y006429D01*
X011558Y006439D01*
X011593Y006445D01*
X011628Y006447D01*
X011663Y006445D01*
X011698Y006439D01*
X011732Y006429D01*
X011765Y006416D01*
X011796Y006399D01*
X011824Y006378D01*
X011851Y006355D01*
X011874Y006328D01*
X011895Y006300D01*
X011912Y006269D01*
X011925Y006236D01*
X011935Y006202D01*
X011941Y006167D01*
X011943Y006132D01*
X011941Y006097D01*
X011935Y006062D01*
X011925Y006028D01*
X011912Y005995D01*
X011895Y005964D01*
X011874Y005936D01*
X011851Y005909D01*
X011824Y005886D01*
X011796Y005865D01*
X011765Y005848D01*
X011732Y005835D01*
X011698Y005825D01*
X011663Y005819D01*
X011628Y005817D01*
X011593Y005819D01*
X011558Y005825D01*
X011524Y005835D01*
X011491Y005848D01*
X011460Y005865D01*
X011432Y005886D01*
X011405Y005909D01*
X011382Y005936D01*
X011361Y005964D01*
X011344Y005995D01*
X011331Y006028D01*
X011321Y006062D01*
X011315Y006097D01*
X011313Y006132D01*
X011410Y014398D02*
X011412Y014427D01*
X011418Y014455D01*
X011427Y014483D01*
X011440Y014509D01*
X011457Y014532D01*
X011476Y014554D01*
X011498Y014573D01*
X011523Y014588D01*
X011549Y014601D01*
X011577Y014609D01*
X011605Y014614D01*
X011634Y014615D01*
X011663Y014612D01*
X011691Y014605D01*
X011718Y014595D01*
X011744Y014581D01*
X011767Y014564D01*
X011788Y014544D01*
X011806Y014521D01*
X011821Y014496D01*
X011832Y014469D01*
X011840Y014441D01*
X011844Y014412D01*
X011844Y014384D01*
X011840Y014355D01*
X011832Y014327D01*
X011821Y014300D01*
X011806Y014275D01*
X011788Y014252D01*
X011767Y014232D01*
X011744Y014215D01*
X011718Y014201D01*
X011691Y014191D01*
X011663Y014184D01*
X011634Y014181D01*
X011605Y014182D01*
X011577Y014187D01*
X011549Y014195D01*
X011523Y014208D01*
X011498Y014223D01*
X011476Y014242D01*
X011457Y014264D01*
X011440Y014287D01*
X011427Y014313D01*
X011418Y014341D01*
X011412Y014369D01*
X011410Y014398D01*
X002504Y025089D02*
X002506Y025115D01*
X002512Y025141D01*
X002522Y025166D01*
X002535Y025189D01*
X002551Y025209D01*
X002571Y025227D01*
X002593Y025242D01*
X002616Y025254D01*
X002642Y025262D01*
X002668Y025266D01*
X002694Y025266D01*
X002720Y025262D01*
X002746Y025254D01*
X002770Y025242D01*
X002791Y025227D01*
X002811Y025209D01*
X002827Y025189D01*
X002840Y025166D01*
X002850Y025141D01*
X002856Y025115D01*
X002858Y025089D01*
X002856Y025063D01*
X002850Y025037D01*
X002840Y025012D01*
X002827Y024989D01*
X002811Y024969D01*
X002791Y024951D01*
X002769Y024936D01*
X002746Y024924D01*
X002720Y024916D01*
X002694Y024912D01*
X002668Y024912D01*
X002642Y024916D01*
X002616Y024924D01*
X002592Y024936D01*
X002571Y024951D01*
X002551Y024969D01*
X002535Y024989D01*
X002522Y025012D01*
X002512Y025037D01*
X002506Y025063D01*
X002504Y025089D01*
X002504Y026821D02*
X002506Y026847D01*
X002512Y026873D01*
X002522Y026898D01*
X002535Y026921D01*
X002551Y026941D01*
X002571Y026959D01*
X002593Y026974D01*
X002616Y026986D01*
X002642Y026994D01*
X002668Y026998D01*
X002694Y026998D01*
X002720Y026994D01*
X002746Y026986D01*
X002770Y026974D01*
X002791Y026959D01*
X002811Y026941D01*
X002827Y026921D01*
X002840Y026898D01*
X002850Y026873D01*
X002856Y026847D01*
X002858Y026821D01*
X002856Y026795D01*
X002850Y026769D01*
X002840Y026744D01*
X002827Y026721D01*
X002811Y026701D01*
X002791Y026683D01*
X002769Y026668D01*
X002746Y026656D01*
X002720Y026648D01*
X002694Y026644D01*
X002668Y026644D01*
X002642Y026648D01*
X002616Y026656D01*
X002592Y026668D01*
X002571Y026683D01*
X002551Y026701D01*
X002535Y026721D01*
X002522Y026744D01*
X002512Y026769D01*
X002506Y026795D01*
X002504Y026821D01*
X002090Y033955D02*
X002092Y034003D01*
X002098Y034051D01*
X002108Y034098D01*
X002121Y034144D01*
X002139Y034189D01*
X002159Y034233D01*
X002184Y034275D01*
X002212Y034314D01*
X002242Y034351D01*
X002276Y034385D01*
X002313Y034417D01*
X002351Y034446D01*
X002392Y034471D01*
X002435Y034493D01*
X002480Y034511D01*
X002526Y034525D01*
X002573Y034536D01*
X002621Y034543D01*
X002669Y034546D01*
X002717Y034545D01*
X002765Y034540D01*
X002813Y034531D01*
X002859Y034519D01*
X002904Y034502D01*
X002948Y034482D01*
X002990Y034459D01*
X003030Y034432D01*
X003068Y034402D01*
X003103Y034369D01*
X003135Y034333D01*
X003165Y034295D01*
X003191Y034254D01*
X003213Y034211D01*
X003233Y034167D01*
X003248Y034122D01*
X003260Y034075D01*
X003268Y034027D01*
X003272Y033979D01*
X003272Y033931D01*
X003268Y033883D01*
X003260Y033835D01*
X003248Y033788D01*
X003233Y033743D01*
X003213Y033699D01*
X003191Y033656D01*
X003165Y033615D01*
X003135Y033577D01*
X003103Y033541D01*
X003068Y033508D01*
X003030Y033478D01*
X002990Y033451D01*
X002948Y033428D01*
X002904Y033408D01*
X002859Y033391D01*
X002813Y033379D01*
X002765Y033370D01*
X002717Y033365D01*
X002669Y033364D01*
X002621Y033367D01*
X002573Y033374D01*
X002526Y033385D01*
X002480Y033399D01*
X002435Y033417D01*
X002392Y033439D01*
X002351Y033464D01*
X002313Y033493D01*
X002276Y033525D01*
X002242Y033559D01*
X002212Y033596D01*
X002184Y033635D01*
X002159Y033677D01*
X002139Y033721D01*
X002121Y033766D01*
X002108Y033812D01*
X002098Y033859D01*
X002092Y033907D01*
X002090Y033955D01*
X031091Y003205D02*
X031093Y003255D01*
X031099Y003305D01*
X031109Y003354D01*
X031122Y003403D01*
X031140Y003450D01*
X031161Y003496D01*
X031185Y003539D01*
X031213Y003581D01*
X031244Y003621D01*
X031278Y003658D01*
X031315Y003692D01*
X031355Y003723D01*
X031397Y003751D01*
X031440Y003775D01*
X031486Y003796D01*
X031533Y003814D01*
X031582Y003827D01*
X031631Y003837D01*
X031681Y003843D01*
X031731Y003845D01*
X031781Y003843D01*
X031831Y003837D01*
X031880Y003827D01*
X031929Y003814D01*
X031976Y003796D01*
X032022Y003775D01*
X032065Y003751D01*
X032107Y003723D01*
X032147Y003692D01*
X032184Y003658D01*
X032218Y003621D01*
X032249Y003581D01*
X032277Y003539D01*
X032301Y003496D01*
X032322Y003450D01*
X032340Y003403D01*
X032353Y003354D01*
X032363Y003305D01*
X032369Y003255D01*
X032371Y003205D01*
X032369Y003155D01*
X032363Y003105D01*
X032353Y003056D01*
X032340Y003007D01*
X032322Y002960D01*
X032301Y002914D01*
X032277Y002871D01*
X032249Y002829D01*
X032218Y002789D01*
X032184Y002752D01*
X032147Y002718D01*
X032107Y002687D01*
X032065Y002659D01*
X032022Y002635D01*
X031976Y002614D01*
X031929Y002596D01*
X031880Y002583D01*
X031831Y002573D01*
X031781Y002567D01*
X031731Y002565D01*
X031681Y002567D01*
X031631Y002573D01*
X031582Y002583D01*
X031533Y002596D01*
X031486Y002614D01*
X031440Y002635D01*
X031397Y002659D01*
X031355Y002687D01*
X031315Y002718D01*
X031278Y002752D01*
X031244Y002789D01*
X031213Y002829D01*
X031185Y002871D01*
X031161Y002914D01*
X031140Y002960D01*
X031122Y003007D01*
X031109Y003056D01*
X031099Y003105D01*
X031093Y003155D01*
X031091Y003205D01*
X035591Y003205D02*
X035593Y003255D01*
X035599Y003305D01*
X035609Y003354D01*
X035622Y003403D01*
X035640Y003450D01*
X035661Y003496D01*
X035685Y003539D01*
X035713Y003581D01*
X035744Y003621D01*
X035778Y003658D01*
X035815Y003692D01*
X035855Y003723D01*
X035897Y003751D01*
X035940Y003775D01*
X035986Y003796D01*
X036033Y003814D01*
X036082Y003827D01*
X036131Y003837D01*
X036181Y003843D01*
X036231Y003845D01*
X036281Y003843D01*
X036331Y003837D01*
X036380Y003827D01*
X036429Y003814D01*
X036476Y003796D01*
X036522Y003775D01*
X036565Y003751D01*
X036607Y003723D01*
X036647Y003692D01*
X036684Y003658D01*
X036718Y003621D01*
X036749Y003581D01*
X036777Y003539D01*
X036801Y003496D01*
X036822Y003450D01*
X036840Y003403D01*
X036853Y003354D01*
X036863Y003305D01*
X036869Y003255D01*
X036871Y003205D01*
X036869Y003155D01*
X036863Y003105D01*
X036853Y003056D01*
X036840Y003007D01*
X036822Y002960D01*
X036801Y002914D01*
X036777Y002871D01*
X036749Y002829D01*
X036718Y002789D01*
X036684Y002752D01*
X036647Y002718D01*
X036607Y002687D01*
X036565Y002659D01*
X036522Y002635D01*
X036476Y002614D01*
X036429Y002596D01*
X036380Y002583D01*
X036331Y002573D01*
X036281Y002567D01*
X036231Y002565D01*
X036181Y002567D01*
X036131Y002573D01*
X036082Y002583D01*
X036033Y002596D01*
X035986Y002614D01*
X035940Y002635D01*
X035897Y002659D01*
X035855Y002687D01*
X035815Y002718D01*
X035778Y002752D01*
X035744Y002789D01*
X035713Y002829D01*
X035685Y002871D01*
X035661Y002914D01*
X035640Y002960D01*
X035622Y003007D01*
X035609Y003056D01*
X035599Y003105D01*
X035593Y003155D01*
X035591Y003205D01*
X038590Y003455D02*
X038592Y003503D01*
X038598Y003551D01*
X038608Y003598D01*
X038621Y003644D01*
X038639Y003689D01*
X038659Y003733D01*
X038684Y003775D01*
X038712Y003814D01*
X038742Y003851D01*
X038776Y003885D01*
X038813Y003917D01*
X038851Y003946D01*
X038892Y003971D01*
X038935Y003993D01*
X038980Y004011D01*
X039026Y004025D01*
X039073Y004036D01*
X039121Y004043D01*
X039169Y004046D01*
X039217Y004045D01*
X039265Y004040D01*
X039313Y004031D01*
X039359Y004019D01*
X039404Y004002D01*
X039448Y003982D01*
X039490Y003959D01*
X039530Y003932D01*
X039568Y003902D01*
X039603Y003869D01*
X039635Y003833D01*
X039665Y003795D01*
X039691Y003754D01*
X039713Y003711D01*
X039733Y003667D01*
X039748Y003622D01*
X039760Y003575D01*
X039768Y003527D01*
X039772Y003479D01*
X039772Y003431D01*
X039768Y003383D01*
X039760Y003335D01*
X039748Y003288D01*
X039733Y003243D01*
X039713Y003199D01*
X039691Y003156D01*
X039665Y003115D01*
X039635Y003077D01*
X039603Y003041D01*
X039568Y003008D01*
X039530Y002978D01*
X039490Y002951D01*
X039448Y002928D01*
X039404Y002908D01*
X039359Y002891D01*
X039313Y002879D01*
X039265Y002870D01*
X039217Y002865D01*
X039169Y002864D01*
X039121Y002867D01*
X039073Y002874D01*
X039026Y002885D01*
X038980Y002899D01*
X038935Y002917D01*
X038892Y002939D01*
X038851Y002964D01*
X038813Y002993D01*
X038776Y003025D01*
X038742Y003059D01*
X038712Y003096D01*
X038684Y003135D01*
X038659Y003177D01*
X038639Y003221D01*
X038621Y003266D01*
X038608Y003312D01*
X038598Y003359D01*
X038592Y003407D01*
X038590Y003455D01*
X037089Y013014D02*
X037091Y013062D01*
X037097Y013110D01*
X037107Y013157D01*
X037120Y013203D01*
X037138Y013248D01*
X037158Y013292D01*
X037183Y013334D01*
X037211Y013373D01*
X037241Y013410D01*
X037275Y013444D01*
X037312Y013476D01*
X037350Y013505D01*
X037391Y013530D01*
X037434Y013552D01*
X037479Y013570D01*
X037525Y013584D01*
X037572Y013595D01*
X037620Y013602D01*
X037668Y013605D01*
X037716Y013604D01*
X037764Y013599D01*
X037812Y013590D01*
X037858Y013578D01*
X037903Y013561D01*
X037947Y013541D01*
X037989Y013518D01*
X038029Y013491D01*
X038067Y013461D01*
X038102Y013428D01*
X038134Y013392D01*
X038164Y013354D01*
X038190Y013313D01*
X038212Y013270D01*
X038232Y013226D01*
X038247Y013181D01*
X038259Y013134D01*
X038267Y013086D01*
X038271Y013038D01*
X038271Y012990D01*
X038267Y012942D01*
X038259Y012894D01*
X038247Y012847D01*
X038232Y012802D01*
X038212Y012758D01*
X038190Y012715D01*
X038164Y012674D01*
X038134Y012636D01*
X038102Y012600D01*
X038067Y012567D01*
X038029Y012537D01*
X037989Y012510D01*
X037947Y012487D01*
X037903Y012467D01*
X037858Y012450D01*
X037812Y012438D01*
X037764Y012429D01*
X037716Y012424D01*
X037668Y012423D01*
X037620Y012426D01*
X037572Y012433D01*
X037525Y012444D01*
X037479Y012458D01*
X037434Y012476D01*
X037391Y012498D01*
X037350Y012523D01*
X037312Y012552D01*
X037275Y012584D01*
X037241Y012618D01*
X037211Y012655D01*
X037183Y012694D01*
X037158Y012736D01*
X037138Y012780D01*
X037120Y012825D01*
X037107Y012871D01*
X037097Y012918D01*
X037091Y012966D01*
X037089Y013014D01*
X037089Y031597D02*
X037091Y031645D01*
X037097Y031693D01*
X037107Y031740D01*
X037120Y031786D01*
X037138Y031831D01*
X037158Y031875D01*
X037183Y031917D01*
X037211Y031956D01*
X037241Y031993D01*
X037275Y032027D01*
X037312Y032059D01*
X037350Y032088D01*
X037391Y032113D01*
X037434Y032135D01*
X037479Y032153D01*
X037525Y032167D01*
X037572Y032178D01*
X037620Y032185D01*
X037668Y032188D01*
X037716Y032187D01*
X037764Y032182D01*
X037812Y032173D01*
X037858Y032161D01*
X037903Y032144D01*
X037947Y032124D01*
X037989Y032101D01*
X038029Y032074D01*
X038067Y032044D01*
X038102Y032011D01*
X038134Y031975D01*
X038164Y031937D01*
X038190Y031896D01*
X038212Y031853D01*
X038232Y031809D01*
X038247Y031764D01*
X038259Y031717D01*
X038267Y031669D01*
X038271Y031621D01*
X038271Y031573D01*
X038267Y031525D01*
X038259Y031477D01*
X038247Y031430D01*
X038232Y031385D01*
X038212Y031341D01*
X038190Y031298D01*
X038164Y031257D01*
X038134Y031219D01*
X038102Y031183D01*
X038067Y031150D01*
X038029Y031120D01*
X037989Y031093D01*
X037947Y031070D01*
X037903Y031050D01*
X037858Y031033D01*
X037812Y031021D01*
X037764Y031012D01*
X037716Y031007D01*
X037668Y031006D01*
X037620Y031009D01*
X037572Y031016D01*
X037525Y031027D01*
X037479Y031041D01*
X037434Y031059D01*
X037391Y031081D01*
X037350Y031106D01*
X037312Y031135D01*
X037275Y031167D01*
X037241Y031201D01*
X037211Y031238D01*
X037183Y031277D01*
X037158Y031319D01*
X037138Y031363D01*
X037120Y031408D01*
X037107Y031454D01*
X037097Y031501D01*
X037091Y031549D01*
X037089Y031597D01*
X038590Y033955D02*
X038592Y034003D01*
X038598Y034051D01*
X038608Y034098D01*
X038621Y034144D01*
X038639Y034189D01*
X038659Y034233D01*
X038684Y034275D01*
X038712Y034314D01*
X038742Y034351D01*
X038776Y034385D01*
X038813Y034417D01*
X038851Y034446D01*
X038892Y034471D01*
X038935Y034493D01*
X038980Y034511D01*
X039026Y034525D01*
X039073Y034536D01*
X039121Y034543D01*
X039169Y034546D01*
X039217Y034545D01*
X039265Y034540D01*
X039313Y034531D01*
X039359Y034519D01*
X039404Y034502D01*
X039448Y034482D01*
X039490Y034459D01*
X039530Y034432D01*
X039568Y034402D01*
X039603Y034369D01*
X039635Y034333D01*
X039665Y034295D01*
X039691Y034254D01*
X039713Y034211D01*
X039733Y034167D01*
X039748Y034122D01*
X039760Y034075D01*
X039768Y034027D01*
X039772Y033979D01*
X039772Y033931D01*
X039768Y033883D01*
X039760Y033835D01*
X039748Y033788D01*
X039733Y033743D01*
X039713Y033699D01*
X039691Y033656D01*
X039665Y033615D01*
X039635Y033577D01*
X039603Y033541D01*
X039568Y033508D01*
X039530Y033478D01*
X039490Y033451D01*
X039448Y033428D01*
X039404Y033408D01*
X039359Y033391D01*
X039313Y033379D01*
X039265Y033370D01*
X039217Y033365D01*
X039169Y033364D01*
X039121Y033367D01*
X039073Y033374D01*
X039026Y033385D01*
X038980Y033399D01*
X038935Y033417D01*
X038892Y033439D01*
X038851Y033464D01*
X038813Y033493D01*
X038776Y033525D01*
X038742Y033559D01*
X038712Y033596D01*
X038684Y033635D01*
X038659Y033677D01*
X038639Y033721D01*
X038621Y033766D01*
X038608Y033812D01*
X038598Y033859D01*
X038592Y033907D01*
X038590Y033955D01*
D11*
X020661Y021992D02*
X020476Y021807D01*
X020476Y022054D01*
X020291Y021992D02*
X020661Y021992D01*
X020599Y021685D02*
X020661Y021624D01*
X020661Y021500D01*
X020599Y021439D01*
X020599Y021317D02*
X020661Y021255D01*
X020661Y021132D01*
X020599Y021070D01*
X020352Y021070D01*
X020291Y021132D01*
X020291Y021255D01*
X020352Y021317D01*
X020291Y021439D02*
X020537Y021685D01*
X020599Y021685D01*
X020291Y021685D02*
X020291Y021439D01*
X020083Y021329D02*
X020083Y021205D01*
X020021Y021144D01*
X020021Y021022D02*
X020083Y020960D01*
X020083Y020837D01*
X020021Y020775D01*
X019774Y020775D01*
X019712Y020837D01*
X019712Y020960D01*
X019774Y021022D01*
X019712Y021144D02*
X019959Y021390D01*
X020021Y021390D01*
X020083Y021329D01*
X020021Y021512D02*
X020083Y021574D01*
X020083Y021697D01*
X020021Y021759D01*
X019959Y021759D01*
X019897Y021697D01*
X019836Y021759D01*
X019774Y021759D01*
X019712Y021697D01*
X019712Y021574D01*
X019774Y021512D01*
X019802Y021630D02*
X019741Y021692D01*
X019741Y021815D01*
X019802Y021877D01*
X019741Y021999D02*
X019741Y022245D01*
X019741Y022367D02*
X019987Y022614D01*
X020049Y022614D01*
X020111Y022552D01*
X020111Y022429D01*
X020049Y022367D01*
X020111Y022122D02*
X019741Y022122D01*
X019741Y022367D02*
X019741Y022614D01*
X019311Y022602D02*
X019249Y022664D01*
X019187Y022664D01*
X019126Y022602D01*
X019126Y022479D01*
X019187Y022417D01*
X019249Y022417D01*
X019311Y022479D01*
X019311Y022602D01*
X019126Y022602D02*
X019064Y022664D01*
X019002Y022664D01*
X018941Y022602D01*
X018941Y022479D01*
X019002Y022417D01*
X019064Y022417D01*
X019126Y022479D01*
X018941Y022295D02*
X018941Y022049D01*
X018941Y022172D02*
X019311Y022172D01*
X019187Y022049D01*
X019249Y021927D02*
X019311Y021865D01*
X019311Y021742D01*
X019249Y021680D01*
X019002Y021680D01*
X018941Y021742D01*
X018941Y021865D01*
X019002Y021927D01*
X019802Y021630D02*
X020049Y021630D01*
X020111Y021692D01*
X020111Y021815D01*
X020049Y021877D01*
X019987Y021999D02*
X020111Y022122D01*
X019897Y021697D02*
X019897Y021635D01*
X019712Y021390D02*
X019712Y021144D01*
X018756Y021023D02*
X018756Y020776D01*
X018695Y020714D01*
X018571Y020714D01*
X018510Y020776D01*
X018388Y020714D02*
X018141Y020714D01*
X018020Y020714D02*
X018020Y020776D01*
X017773Y021023D01*
X017773Y021085D01*
X018020Y021085D01*
X018265Y021085D02*
X018265Y020714D01*
X018388Y020961D02*
X018265Y021085D01*
X018510Y021023D02*
X018571Y021085D01*
X018695Y021085D01*
X018756Y021023D01*
X018695Y020385D02*
X018571Y020385D01*
X018510Y020323D01*
X018388Y020261D02*
X018265Y020385D01*
X018265Y020014D01*
X018388Y020014D02*
X018141Y020014D01*
X018020Y020014D02*
X017773Y020014D01*
X017896Y020014D02*
X017896Y020385D01*
X018020Y020261D01*
X018510Y020076D02*
X018571Y020014D01*
X018695Y020014D01*
X018756Y020076D01*
X018756Y020323D01*
X018695Y020385D01*
X017629Y022090D02*
X017382Y022090D01*
X017321Y022152D01*
X017321Y022275D01*
X017382Y022337D01*
X017321Y022459D02*
X017321Y022705D01*
X017321Y022582D02*
X017691Y022582D01*
X017567Y022459D01*
X017629Y022337D02*
X017691Y022275D01*
X017691Y022152D01*
X017629Y022090D01*
X017506Y022827D02*
X017506Y023012D01*
X017444Y023074D01*
X017382Y023074D01*
X017321Y023012D01*
X017321Y022889D01*
X017382Y022827D01*
X017506Y022827D01*
X017629Y022950D01*
X017691Y023074D01*
X016271Y023022D02*
X016209Y023084D01*
X015962Y022837D01*
X015901Y022899D01*
X015901Y023022D01*
X015962Y023084D01*
X016209Y023084D01*
X016271Y023022D02*
X016271Y022899D01*
X016209Y022837D01*
X015962Y022837D01*
X015901Y022715D02*
X015901Y022469D01*
X015901Y022592D02*
X016271Y022592D01*
X016147Y022469D01*
X016209Y022347D02*
X016271Y022285D01*
X016271Y022162D01*
X016209Y022100D01*
X015962Y022100D01*
X015901Y022162D01*
X015901Y022285D01*
X015962Y022347D01*
X014881Y023312D02*
X014819Y023250D01*
X014572Y023250D01*
X014511Y023312D01*
X014511Y023435D01*
X014572Y023497D01*
X014511Y023619D02*
X014757Y023865D01*
X014819Y023865D01*
X014881Y023804D01*
X014881Y023680D01*
X014819Y023619D01*
X014819Y023497D02*
X014881Y023435D01*
X014881Y023312D01*
X014511Y023619D02*
X014511Y023865D01*
X014572Y023987D02*
X014511Y024049D01*
X014511Y024172D01*
X014572Y024234D01*
X014696Y024234D01*
X014757Y024172D01*
X014757Y024110D01*
X014696Y023987D01*
X014881Y023987D01*
X014881Y024234D01*
X013006Y023673D02*
X013006Y023426D01*
X012945Y023364D01*
X012821Y023364D01*
X012760Y023426D01*
X012638Y023364D02*
X012391Y023611D01*
X012391Y023673D01*
X012453Y023735D01*
X012576Y023735D01*
X012638Y023673D01*
X012760Y023673D02*
X012821Y023735D01*
X012945Y023735D01*
X013006Y023673D01*
X012638Y023364D02*
X012391Y023364D01*
X012270Y023426D02*
X012208Y023364D01*
X012085Y023364D01*
X012023Y023426D01*
X012023Y023488D01*
X012085Y023550D01*
X012270Y023550D01*
X012270Y023426D01*
X012270Y023550D02*
X012146Y023673D01*
X012023Y023735D01*
X007476Y016761D02*
X007331Y016761D01*
X007282Y016712D01*
X007282Y016615D01*
X007331Y016567D01*
X007476Y016567D01*
X007476Y016470D02*
X007476Y016761D01*
X007379Y016567D02*
X007282Y016470D01*
X007181Y016519D02*
X007133Y016470D01*
X007036Y016470D01*
X006988Y016519D01*
X006988Y016567D01*
X007036Y016615D01*
X007084Y016615D01*
X007036Y016615D02*
X006988Y016664D01*
X006988Y016712D01*
X007036Y016761D01*
X007133Y016761D01*
X007181Y016712D01*
X009733Y009725D02*
X009733Y009663D01*
X009980Y009416D01*
X009980Y009354D01*
X010101Y009354D02*
X010348Y009354D01*
X010101Y009601D01*
X010101Y009663D01*
X010163Y009725D01*
X010286Y009725D01*
X010348Y009663D01*
X010470Y009663D02*
X010531Y009725D01*
X010655Y009725D01*
X010716Y009663D01*
X010716Y009416D01*
X010655Y009354D01*
X010531Y009354D01*
X010470Y009416D01*
X009980Y009725D02*
X009733Y009725D01*
D12*
X007102Y012064D02*
X006641Y012064D01*
X006795Y012064D02*
X006795Y012294D01*
X006872Y012371D01*
X007025Y012371D01*
X007102Y012294D01*
X007102Y012064D01*
X006795Y012218D02*
X006641Y012371D01*
X006641Y012524D02*
X006948Y012831D01*
X007025Y012831D01*
X007102Y012755D01*
X007102Y012601D01*
X007025Y012524D01*
X006641Y012524D02*
X006641Y012831D01*
X006718Y012985D02*
X006641Y013062D01*
X006641Y013215D01*
X006718Y013292D01*
X006795Y013292D01*
X006872Y013215D01*
X006872Y012985D01*
X006718Y012985D01*
X006872Y012985D02*
X007025Y013138D01*
X007102Y013292D01*
X007021Y013262D02*
X007175Y013109D01*
X007175Y013185D02*
X007175Y012955D01*
X007021Y012955D02*
X007482Y012955D01*
X007482Y013185D01*
X007405Y013262D01*
X007252Y013262D01*
X007175Y013185D01*
X007021Y013416D02*
X007328Y013723D01*
X007405Y013723D01*
X007482Y013646D01*
X007482Y013492D01*
X007405Y013416D01*
X007021Y013416D02*
X007021Y013723D01*
X007098Y013876D02*
X007021Y013953D01*
X007021Y014106D01*
X007098Y014183D01*
X007252Y014183D01*
X007328Y014106D01*
X007328Y014029D01*
X007252Y013876D01*
X007482Y013876D01*
X007482Y014183D01*
X007122Y014135D02*
X007122Y014365D01*
X007045Y014442D01*
X006892Y014442D01*
X006815Y014365D01*
X006815Y014135D01*
X006661Y014135D02*
X007122Y014135D01*
X006815Y014289D02*
X006661Y014442D01*
X006661Y014596D02*
X006968Y014903D01*
X007045Y014903D01*
X007122Y014826D01*
X007122Y014672D01*
X007045Y014596D01*
X006661Y014596D02*
X006661Y014903D01*
X006661Y015056D02*
X006738Y015056D01*
X007045Y015363D01*
X007122Y015363D01*
X007122Y015056D01*
X006512Y014606D02*
X006282Y014376D01*
X006282Y014683D01*
X006512Y014606D02*
X006051Y014606D01*
X006051Y014223D02*
X006051Y013916D01*
X006358Y014223D01*
X006435Y014223D01*
X006512Y014146D01*
X006512Y013992D01*
X006435Y013916D01*
X006435Y013762D02*
X006282Y013762D01*
X006205Y013685D01*
X006205Y013455D01*
X006051Y013455D02*
X006512Y013455D01*
X006512Y013685D01*
X006435Y013762D01*
X006205Y013609D02*
X006051Y013762D01*
X011107Y019292D02*
X011261Y019292D01*
X011338Y019369D01*
X011031Y019676D01*
X011031Y019369D01*
X011107Y019292D01*
X011338Y019369D02*
X011338Y019676D01*
X011261Y019753D01*
X011107Y019753D01*
X011031Y019676D01*
X011491Y019292D02*
X011798Y019292D01*
X011644Y019292D02*
X011644Y019753D01*
X011798Y019599D01*
X011951Y019522D02*
X012028Y019446D01*
X012258Y019446D01*
X012258Y019292D02*
X012258Y019753D01*
X012028Y019753D01*
X011951Y019676D01*
X011951Y019522D01*
X012412Y019753D02*
X012719Y019753D01*
X012565Y019753D02*
X012565Y019292D01*
X014978Y011493D02*
X015131Y011493D01*
X015208Y011416D01*
X015208Y011339D01*
X015131Y011262D01*
X014901Y011262D01*
X014901Y011109D02*
X014901Y011416D01*
X014978Y011493D01*
X015361Y011416D02*
X015361Y011262D01*
X015438Y011186D01*
X015668Y011186D01*
X015668Y011032D02*
X015668Y011493D01*
X015438Y011493D01*
X015361Y011416D01*
X015208Y011109D02*
X015131Y011032D01*
X014978Y011032D01*
X014901Y011109D01*
X015822Y011493D02*
X016129Y011493D01*
X015975Y011493D02*
X015975Y011032D01*
X032681Y008076D02*
X032681Y007999D01*
X032758Y007922D01*
X032911Y007922D01*
X032988Y007999D01*
X032988Y008076D01*
X032911Y008153D01*
X032758Y008153D01*
X032681Y008076D01*
X032758Y007922D02*
X032681Y007846D01*
X032681Y007769D01*
X032758Y007692D01*
X032911Y007692D01*
X032988Y007769D01*
X032988Y007846D01*
X032911Y007922D01*
X033141Y007922D02*
X033141Y008076D01*
X033218Y008153D01*
X033448Y008153D01*
X033448Y007692D01*
X033448Y007846D02*
X033218Y007846D01*
X033141Y007922D01*
X033602Y008153D02*
X033909Y008153D01*
X033755Y008153D02*
X033755Y007692D01*
D13*
X010001Y032875D02*
X009401Y032875D01*
X009384Y032877D01*
X009367Y032881D01*
X009351Y032888D01*
X009337Y032898D01*
X009324Y032911D01*
X009314Y032925D01*
X009307Y032941D01*
X009303Y032958D01*
X009301Y032975D01*
X009301Y034075D01*
X009303Y034092D01*
X009307Y034109D01*
X009314Y034125D01*
X009324Y034139D01*
X009337Y034152D01*
X009351Y034162D01*
X009367Y034169D01*
X009384Y034173D01*
X009401Y034175D01*
X010001Y034175D01*
X010018Y034173D01*
X010035Y034169D01*
X010051Y034162D01*
X010065Y034152D01*
X010078Y034139D01*
X010088Y034125D01*
X010095Y034109D01*
X010099Y034092D01*
X010101Y034075D01*
X010101Y032975D01*
X010099Y032958D01*
X010095Y032941D01*
X010088Y032925D01*
X010078Y032911D01*
X010065Y032898D01*
X010051Y032888D01*
X010035Y032881D01*
X010018Y032877D01*
X010001Y032875D01*
X015941Y033035D02*
X015941Y034135D01*
X015943Y034152D01*
X015947Y034169D01*
X015954Y034185D01*
X015964Y034199D01*
X015977Y034212D01*
X015991Y034222D01*
X016007Y034229D01*
X016024Y034233D01*
X016041Y034235D01*
X016641Y034235D01*
X016658Y034233D01*
X016675Y034229D01*
X016691Y034222D01*
X016705Y034212D01*
X016718Y034199D01*
X016728Y034185D01*
X016735Y034169D01*
X016739Y034152D01*
X016741Y034135D01*
X016741Y033035D01*
X016739Y033018D01*
X016735Y033001D01*
X016728Y032985D01*
X016718Y032971D01*
X016705Y032958D01*
X016691Y032948D01*
X016675Y032941D01*
X016658Y032937D01*
X016641Y032935D01*
X016041Y032935D01*
X016024Y032937D01*
X016007Y032941D01*
X015991Y032948D01*
X015977Y032958D01*
X015964Y032971D01*
X015954Y032985D01*
X015947Y033001D01*
X015943Y033018D01*
X015941Y033035D01*
X022731Y033105D02*
X022731Y034205D01*
X022733Y034222D01*
X022737Y034239D01*
X022744Y034255D01*
X022754Y034269D01*
X022767Y034282D01*
X022781Y034292D01*
X022797Y034299D01*
X022814Y034303D01*
X022831Y034305D01*
X023431Y034305D01*
X023448Y034303D01*
X023465Y034299D01*
X023481Y034292D01*
X023495Y034282D01*
X023508Y034269D01*
X023518Y034255D01*
X023525Y034239D01*
X023529Y034222D01*
X023531Y034205D01*
X023531Y033105D01*
X023529Y033088D01*
X023525Y033071D01*
X023518Y033055D01*
X023508Y033041D01*
X023495Y033028D01*
X023481Y033018D01*
X023465Y033011D01*
X023448Y033007D01*
X023431Y033005D01*
X022831Y033005D01*
X022814Y033007D01*
X022797Y033011D01*
X022781Y033018D01*
X022767Y033028D01*
X022754Y033041D01*
X022744Y033055D01*
X022737Y033071D01*
X022733Y033088D01*
X022731Y033105D01*
X028771Y033085D02*
X028771Y034185D01*
X028773Y034202D01*
X028777Y034219D01*
X028784Y034235D01*
X028794Y034249D01*
X028807Y034262D01*
X028821Y034272D01*
X028837Y034279D01*
X028854Y034283D01*
X028871Y034285D01*
X029471Y034285D01*
X029488Y034283D01*
X029505Y034279D01*
X029521Y034272D01*
X029535Y034262D01*
X029548Y034249D01*
X029558Y034235D01*
X029565Y034219D01*
X029569Y034202D01*
X029571Y034185D01*
X029571Y033085D01*
X029569Y033068D01*
X029565Y033051D01*
X029558Y033035D01*
X029548Y033021D01*
X029535Y033008D01*
X029521Y032998D01*
X029505Y032991D01*
X029488Y032987D01*
X029471Y032985D01*
X028871Y032985D01*
X028854Y032987D01*
X028837Y032991D01*
X028821Y032998D01*
X028807Y033008D01*
X028794Y033021D01*
X028784Y033035D01*
X028777Y033051D01*
X028773Y033068D01*
X028771Y033085D01*
X035261Y033085D02*
X035261Y034185D01*
X035263Y034202D01*
X035267Y034219D01*
X035274Y034235D01*
X035284Y034249D01*
X035297Y034262D01*
X035311Y034272D01*
X035327Y034279D01*
X035344Y034283D01*
X035361Y034285D01*
X035961Y034285D01*
X035978Y034283D01*
X035995Y034279D01*
X036011Y034272D01*
X036025Y034262D01*
X036038Y034249D01*
X036048Y034235D01*
X036055Y034219D01*
X036059Y034202D01*
X036061Y034185D01*
X036061Y033085D01*
X036059Y033068D01*
X036055Y033051D01*
X036048Y033035D01*
X036038Y033021D01*
X036025Y033008D01*
X036011Y032998D01*
X035995Y032991D01*
X035978Y032987D01*
X035961Y032985D01*
X035361Y032985D01*
X035344Y032987D01*
X035327Y032991D01*
X035311Y032998D01*
X035297Y033008D01*
X035284Y033021D01*
X035274Y033035D01*
X035267Y033051D01*
X035263Y033068D01*
X035261Y033085D01*
D14*
X036136Y033085D02*
X036211Y033010D01*
X036136Y033085D02*
X036136Y033235D01*
X036211Y033311D01*
X036287Y033311D01*
X036362Y033235D01*
X036362Y033085D01*
X036437Y033010D01*
X036512Y033010D01*
X036587Y033085D01*
X036587Y033235D01*
X036512Y033311D01*
X036587Y033621D02*
X036587Y033771D01*
X036587Y033696D02*
X036211Y033696D01*
X036136Y033621D01*
X036136Y033546D01*
X036211Y033471D01*
X036136Y033931D02*
X036136Y034231D01*
X036136Y034081D02*
X036587Y034081D01*
X036437Y033931D01*
X030097Y034006D02*
X030022Y033931D01*
X030097Y034006D02*
X030097Y034156D01*
X030022Y034231D01*
X029947Y034231D01*
X029646Y033931D01*
X029646Y034231D01*
X029721Y033696D02*
X030097Y033696D01*
X030097Y033621D02*
X030097Y033771D01*
X029721Y033696D02*
X029646Y033621D01*
X029646Y033546D01*
X029721Y033471D01*
X029721Y033311D02*
X029646Y033235D01*
X029646Y033085D01*
X029721Y033010D01*
X029872Y033085D02*
X029872Y033235D01*
X029797Y033311D01*
X029721Y033311D01*
X029872Y033085D02*
X029947Y033010D01*
X030022Y033010D01*
X030097Y033085D01*
X030097Y033235D01*
X030022Y033311D01*
X024057Y033255D02*
X024057Y033105D01*
X023982Y033030D01*
X023907Y033030D01*
X023832Y033105D01*
X023832Y033255D01*
X023757Y033331D01*
X023681Y033331D01*
X023606Y033255D01*
X023606Y033105D01*
X023681Y033030D01*
X023982Y033331D02*
X024057Y033255D01*
X024057Y033641D02*
X024057Y033791D01*
X024057Y033716D02*
X023681Y033716D01*
X023606Y033641D01*
X023606Y033566D01*
X023681Y033491D01*
X023681Y033951D02*
X023606Y034026D01*
X023606Y034176D01*
X023681Y034251D01*
X023757Y034251D01*
X023832Y034176D01*
X023832Y034101D01*
X023832Y034176D02*
X023907Y034251D01*
X023982Y034251D01*
X024057Y034176D01*
X024057Y034026D01*
X023982Y033951D01*
X017267Y034106D02*
X017042Y033881D01*
X017042Y034181D01*
X017267Y034106D02*
X016816Y034106D01*
X016891Y033646D02*
X017267Y033646D01*
X017267Y033571D02*
X017267Y033721D01*
X016891Y033646D02*
X016816Y033571D01*
X016816Y033496D01*
X016891Y033421D01*
X016891Y033261D02*
X016816Y033185D01*
X016816Y033035D01*
X016891Y032960D01*
X017042Y033035D02*
X017042Y033185D01*
X016967Y033261D01*
X016891Y033261D01*
X017042Y033035D02*
X017117Y032960D01*
X017192Y032960D01*
X017267Y033035D01*
X017267Y033185D01*
X017192Y033261D01*
X010627Y033125D02*
X010627Y032975D01*
X010552Y032900D01*
X010477Y032900D01*
X010402Y032975D01*
X010402Y033125D01*
X010327Y033201D01*
X010251Y033201D01*
X010176Y033125D01*
X010176Y032975D01*
X010251Y032900D01*
X010552Y033201D02*
X010627Y033125D01*
X010627Y033511D02*
X010627Y033661D01*
X010627Y033586D02*
X010251Y033586D01*
X010176Y033511D01*
X010176Y033436D01*
X010251Y033361D01*
X010251Y033821D02*
X010176Y033896D01*
X010176Y034046D01*
X010251Y034121D01*
X010402Y034121D01*
X010477Y034046D01*
X010477Y033971D01*
X010402Y033821D01*
X010627Y033821D01*
X010627Y034121D01*
M02*
