%
M48
M72
T01C0.0130
T02C0.0236
T03C0.0320
T04C0.0350
T05C0.0354
T06C0.0360
T07C0.0400
T08C0.0433
T09C0.0550
T10C0.0551
T11C0.0630
T12C0.1181
T13C0.1280
%
T01
X4581Y6915
X7851Y9085
X8931Y9975
X9101Y9505
X9611Y9425
X10731Y10455
X9611Y10595
X11081Y11655
X11081Y12205
X11081Y12655
X9881Y12935
X9861Y13455
X8511Y12865
X7971Y12835
X8321Y13605
X8231Y13985
X7761Y14555
X7081Y14535
X8981Y15905
X10231Y16105
X10381Y15715
X10951Y16335
X10581Y16655
X9981Y16955
X9731Y17205
X9001Y17375
X8681Y17155
X7761Y17375
X7301Y18205
X7131Y19085
X6441Y19075
X7161Y20105
X7891Y19075
X8691Y18965
X8381Y18335
X9331Y17875
X6610Y16711
X5771Y16795
X5661Y17565
X6171Y17695
X5291Y16125
X5041Y14595
X5081Y13715
X4791Y13105
X5631Y12695
X6271Y12405
X4671Y10365
X8001Y6735
X11461Y9145
X11951Y8455
X12781Y9605
X13381Y9505
X13431Y9105
X13431Y8705
X14581Y9405
X15191Y9025
X15781Y8595
X15411Y8275
X15491Y7245
X15981Y6955
X15411Y6495
X14481Y7655
X16141Y9225
X17731Y9655
X18181Y9875
X18831Y9805
X19231Y9255
X19141Y8675
X19771Y9025
X18081Y7905
X19051Y6305
X19131Y5805
X19831Y5995
X19981Y6705
X22381Y5725
X22611Y6065
X23601Y6395
X23681Y6955
X24191Y7005
X24481Y7435
X24081Y7515
X23361Y8075
X23361Y8635
X23361Y9115
X23521Y9755
X23681Y10395
X24331Y10445
X24941Y10485
X24821Y9395
X25701Y9315
X26531Y9845
X26801Y10395
X28181Y9805
X28291Y10135
X29331Y9855
X29281Y9355
X28781Y9355
X28961Y8315
X29361Y8315
X29761Y8315
X30081Y7955
X29681Y7595
X29361Y7595
X29841Y7195
X30081Y6795
X29681Y6655
X30081Y6315
X30081Y5835
X31371Y5535
X30481Y4555
X30481Y3995
X30401Y3435
X30401Y2875
X28561Y2875
X28561Y3355
X28561Y3835
X28561Y4395
X26131Y6555
X27281Y7195
X27041Y7835
X27041Y8235
X26721Y8555
X27061Y8915
X28241Y7995
X28081Y7275
X28481Y7275
X29841Y9995
X31731Y10855
X32231Y10905
X32681Y10905
X32841Y11815
X32481Y12155
X32881Y12455
X33411Y12525
X33261Y13005
X33321Y13595
X34001Y13505
X34841Y13245
X34841Y12465
X34871Y11875
X34381Y11155
X35231Y8855
X35681Y7565
X36861Y7605
X37401Y8385
X38551Y8595
X38841Y9605
X38841Y11195
X38801Y7025
X38041Y6115
X37731Y5025
X34901Y3285
X34111Y3265
X33311Y3285
X25951Y12005
X24911Y12955
X25011Y13455
X24901Y13965
X23281Y13905
X23281Y13355
X23281Y12905
X22861Y12305
X23321Y12185
X22731Y11885
X22181Y12355
X22231Y12955
X22181Y13405
X22231Y13855
X22831Y15325
X22821Y17135
X23491Y17155
X23891Y17155
X24291Y17155
X24611Y17155
X25011Y17155
X25331Y17155
X25641Y16905
X25291Y16595
X27181Y16325
X27531Y16355
X28051Y15205
X28881Y16175
X29161Y16385
X29671Y16395
X29811Y16075
X30171Y16145
X29881Y17295
X29431Y17325
X30101Y17695
X30091Y18025
X29601Y18035
X29051Y18035
X29161Y18675
X29481Y18675
X29861Y18655
X29761Y19335
X30421Y19325
X31171Y19985
X31791Y19705
X31621Y19315
X31791Y18765
X31891Y18075
X33111Y18335
X33651Y18055
X33381Y17705
X33381Y17005
X33004Y15947
X32904Y15368
X31871Y14925
X31731Y15375
X31711Y16215
X31951Y16445
X34611Y16055
X34741Y16605
X35321Y16745
X36001Y16515
X36021Y15695
X34681Y15405
X32231Y13305
X32041Y12915
X28911Y17085
X27841Y17635
X27561Y18385
X27031Y18345
X28181Y19075
X28891Y19375
X28141Y19695
X27331Y20175
X27041Y19635
X25581Y20085
X25441Y20375
X25231Y20085
X24871Y20075
X24521Y20085
X24121Y20085
X23681Y20081
X22911Y20005
X22081Y20065
X21961Y19655
X21571Y20015
X21181Y20185
X20791Y20285
X20461Y20225
X20161Y19755
X20501Y19535
X20961Y19165
X21301Y19175
X20501Y19095
X20471Y18725
X20211Y18595
X20111Y18905
X19881Y19265
X19201Y18325
X19581Y18055
X18981Y17875
X18621Y17505
X18241Y17795
X17631Y17855
X17081Y17355
X16421Y19325
X16041Y19485
X16301Y19805
X16081Y20155
X16601Y20295
X16831Y20875
X17111Y21355
X17231Y21785
X16881Y21745
X16991Y22135
X17151Y22875
X17481Y22905
X17451Y23235
X17331Y23545
X17321Y23885
X16951Y24075
X16541Y24485
X16141Y24255
X15771Y24235
X15831Y25165
X15481Y25165
X15051Y25105
X14641Y25725
X14771Y26045
X14951Y26365
X15501Y26245
X16041Y26175
X16481Y26005
X16331Y25225
X17681Y26655
X18181Y26855
X18341Y26415
X19281Y26755
X19821Y26795
X20381Y26805
X20481Y27455
X20981Y27505
X21551Y26795
X21181Y26465
X21091Y25815
X20501Y25685
X20411Y26005
X20241Y25195
X20581Y25195
X21551Y25385
X21601Y25725
X22591Y25805
X22531Y26355
X22881Y26855
X23181Y26805
X23511Y27165
X23131Y27505
X22781Y27505
X22581Y28455
X23231Y28505
X24111Y28135
X24731Y27775
X25581Y28005
X25931Y28005
X26131Y27605
X26481Y27155
X26641Y26795
X26721Y26395
X27281Y26395
X27281Y26795
X27331Y27305
X27281Y27835
X27661Y28955
X26741Y28975
X25171Y29105
X24721Y29225
X24761Y28565
X24881Y29705
X24731Y30415
X24121Y30925
X23511Y31265
X23821Y31575
X23841Y32125
X24381Y31755
X24881Y31535
X24971Y31905
X25041Y32525
X25611Y32455
X23911Y32875
X23191Y32255
X22671Y32435
X22161Y33355
X23931Y33495
X23931Y34065
X21331Y31455
X20431Y31655
X19931Y31405
X19731Y30955
X18901Y30605
X18521Y30675
X18471Y30195
X18831Y30005
X18921Y29455
X18901Y28985
X19651Y29215
X20111Y29195
X20591Y29185
X21081Y29205
X21581Y29155
X21981Y29155
X21731Y29705
X22781Y30105
X22781Y30405
X22781Y30855
X22781Y31355
X23121Y30095
X23131Y29305
X23681Y26605
X24231Y26455
X24281Y25855
X23681Y25825
X22631Y24755
X20841Y24195
X20111Y24125
X19991Y23655
X19961Y23275
X19571Y23265
X19071Y23245
X19041Y22785
X18571Y22685
X18551Y23185
X19111Y22110
X18411Y21795
X18001Y21785
X18881Y20835
X20841Y20665
X21771Y21475
X21831Y21985
X21471Y22005
X22201Y22035
X22541Y22025
X22771Y22305
X23021Y22025
X23201Y22315
X23431Y22025
X23591Y22315
X23791Y22045
X23971Y22315
X24311Y22305
X24231Y21955
X23681Y21155
X22151Y20735
X24071Y19215
X24501Y18995
X24901Y19235
X25221Y18995
X25541Y19155
X25491Y20735
X26491Y22605
X27081Y23155
X27331Y23505
X27231Y23855
X26881Y24155
X25761Y23255
X24851Y22875
X24831Y24505
X26731Y25905
X27331Y25905
X28881Y26055
X28881Y26455
X29231Y26305
X29231Y25805
X28881Y25605
X29231Y25355
X28881Y25005
X29281Y24905
X29141Y24595
X29481Y24255
X29281Y23805
X29481Y23455
X29181Y23155
X28801Y22885
X28861Y22495
X28891Y22155
X28921Y21845
X29321Y21845
X29341Y22205
X29331Y22565
X30071Y22885
X30251Y21145
X30531Y20435
X29771Y20455
X31511Y20715
X33771Y20685
X33751Y21145
X33761Y21685
X33741Y22225
X33691Y22735
X33681Y23375
X33141Y23455
X33661Y23935
X33391Y24255
X33061Y24655
X33061Y25075
X33011Y25435
X33061Y25795
X33091Y26155
X33091Y26545
X33111Y26955
X33091Y27305
X33061Y27705
X33091Y28125
X32041Y29575
X31481Y30655
X31131Y30955
X30271Y30925
X30531Y31955
X30021Y31975
X30901Y32855
X30921Y33545
X30921Y34145
X32391Y31655
X32721Y31245
X33621Y30365
X33121Y30135
X34351Y30275
X34981Y30245
X35581Y30235
X36031Y30235
X36041Y30895
X36031Y31425
X36031Y31915
X36031Y32405
X36011Y32785
X36931Y33055
X36921Y33615
X36931Y32485
X37281Y30495
X37941Y30485
X38601Y30465
X32431Y24605
X32281Y23825
X32231Y23155
X33791Y19985
X33771Y19635
X33761Y19195
X33671Y18695
X27531Y22875
X29231Y26755
X28881Y26955
X29231Y27255
X29481Y27605
X18521Y31435
X17581Y31455
X17361Y31845
X16941Y32085
X16201Y32485
X16991Y33155
X17441Y32685
X17851Y32275
X16191Y30715
X15681Y30815
X15031Y30805
X14421Y30815
X12701Y30715
X11021Y30715
X10301Y30685
X10891Y32075
X10871Y32815
X10871Y33615
X10891Y34285
X10361Y34685
X8081Y31505
X7741Y31135
X6461Y30865
X4911Y29615
X4391Y30085
X3411Y30235
X4341Y31465
X4321Y32475
X4371Y33215
X4471Y34035
X4371Y34625
X1311Y32095
X1291Y30825
X1431Y29615
X1731Y28485
X2161Y28425
X2681Y28405
X3271Y28425
X3901Y28455
X4631Y28055
X4631Y27505
X5231Y27455
X5881Y27255
X6581Y27205
X7231Y27155
X7881Y27155
X8531Y27155
X9081Y27155
X9231Y25405
X9781Y25405
X10031Y24955
X10681Y24805
X11131Y24855
X11381Y23955
X10831Y23955
X10711Y23305
X11041Y23305
X11391Y23305
X12401Y22615
X12771Y22615
X13151Y22625
X13561Y22625
X13921Y22625
X14371Y22645
X14691Y23595
X14231Y23865
X13921Y23895
X13521Y23885
X13141Y23885
X14291Y24845
X14481Y24515
X12481Y25305
X11681Y25705
X10081Y24405
X9941Y23795
X9941Y23465
X9901Y22895
X10331Y23025
X10581Y22385
X9981Y21975
X10271Y21665
X10931Y21405
X9181Y21585
X8181Y22055
X8691Y23235
X9111Y23145
X8631Y25455
X7981Y25405
X7381Y25455
X6731Y25405
X6081Y25405
X5431Y25405
X4781Y25405
X4781Y24955
X4201Y24905
X4831Y24555
X4831Y24205
X3791Y23535
X3121Y23095
X3581Y21615
X4221Y21615
X4871Y21625
X3721Y24905
X3341Y24925
X12201Y20155
X12211Y19795
X12171Y19425
X12131Y19095
X12831Y19555
X12991Y19155
X13731Y19205
X14231Y19255
X14701Y19205
X15161Y19255
X15601Y19295
X14131Y19745
X13521Y19845
X12511Y20355
X12631Y17855
X13531Y16335
X14181Y16635
X14791Y15135
X13531Y13645
X13331Y12555
X13381Y12055
X13331Y11605
X14561Y10755
X15101Y10745
X15481Y10515
X14581Y10155
X16741Y10535
X16671Y10995
X17301Y10675
X16681Y12005
X16181Y12155
X16181Y12605
X16231Y13105
X16181Y13705
X17231Y13755
X17231Y13155
X17231Y12605
X17231Y12155
X19231Y12305
X19231Y12855
X19231Y13355
X19231Y13855
X20281Y13905
X20281Y13355
X20281Y12855
X20281Y12305
X22561Y9855
X22601Y9325
X22621Y8885
X22621Y8365
X22491Y7905
X22471Y7475
X21631Y9755
X22721Y4475
X22721Y4075
X22721Y3675
X22721Y3275
X22721Y2875
X12931Y2625
X12931Y3535
X12941Y4295
X12911Y4955
X11881Y11355
X9861Y12185
X12381Y15715
X19731Y16115
X21341Y17145
X21771Y17155
X22171Y17145
X16991Y23215
X14531Y27105
X14931Y27155
X15381Y27905
X15431Y28605
X16731Y29355
X16981Y29605
X17181Y29355
X17681Y29205
X18131Y29155
X17281Y29945
X16661Y29905
X13871Y28405
X12631Y28355
T02
X1231Y29105
X3231Y16155
X24001Y18605
X28491Y18055
X30331Y8855
X31381Y8855
T03
X36931Y9155
X36931Y11155
X33831Y27705
X33831Y29705
T04
X33731Y6705
X32731Y6705
X32231Y5705
X33231Y5705
X34231Y5705
X35231Y5705
X34731Y6705
X35731Y6705
T05
X2681Y25089
X2681Y26821
T06
X6681Y22555
X7681Y22555
X7681Y21555
X6681Y21555
X6681Y20555
X6681Y19555
X7681Y19555
X7681Y20555
X7681Y18555
X6681Y18555
X6681Y32955
X6681Y33955
X7681Y33955
X7681Y32955
X8681Y32955
X8681Y33955
X13181Y33955
X13181Y32955
X14181Y32955
X14181Y33955
X15181Y33955
X15181Y32955
X19681Y32955
X19681Y33955
X20681Y33955
X20681Y32955
X21681Y32955
X21681Y33955
X26181Y33955
X26181Y32955
X27181Y32955
X27181Y33955
X28181Y33955
X28181Y32955
X32681Y32955
X32681Y33955
X33681Y33955
X33681Y32955
X34681Y32955
X34681Y33955
T07
X28681Y29805
X27681Y29805
X26681Y29805
X25681Y29805
X20681Y29955
X20681Y30955
X16881Y30605
X14331Y29355
X13331Y29355
X12331Y29355
X11331Y29355
X10781Y27455
X9781Y27455
X8681Y29405
X7681Y29405
X6681Y29405
X5681Y29405
X1681Y22455
X1681Y21455
X1681Y20455
X1681Y19455
X1681Y18455
X1681Y17455
X3291Y17225
X5071Y17225
X5071Y19785
X3291Y19785
X15181Y14455
X15181Y13455
X15181Y12455
X15181Y11455
X18181Y11455
X18181Y12455
X18181Y13455
X18181Y14455
X21181Y14455
X21181Y13455
X21181Y12455
X21181Y11455
X24181Y11455
X24181Y12455
X24181Y13455
X24181Y14455
X26681Y14455
X26681Y13455
X26681Y12455
X26681Y11455
X28181Y11455
X28181Y12455
X28181Y13455
X28181Y14455
X29681Y14455
X29681Y13455
X29681Y12455
X29681Y11455
X31181Y11455
X31181Y12455
X31181Y13455
X31181Y14455
X33781Y15005
X30931Y16755
X30931Y17755
X30931Y18755
X33781Y25505
X26081Y8025
X25081Y8025
T08
X11627Y14398
T09
X14881Y3655
X16881Y3655
X18881Y3655
X20881Y3655
X23581Y3655
X25581Y3655
X27581Y3655
X29581Y3655
T10
X37499Y14864
X37499Y16518
X37499Y18171
X37499Y19825
X37499Y21479
X37499Y23132
X37499Y24786
X37499Y26439
X37499Y28093
X37499Y29746
X39664Y29746
X39664Y28093
X39664Y26439
X39664Y24786
X39664Y23132
X39664Y21479
X39664Y19825
X39664Y18171
X39664Y16518
X39664Y14864
T11
X11628Y6132
T12
X37680Y13014
X39181Y3455
X37680Y31597
X39181Y33955
X2681Y33955
T13
X31731Y3205
X36231Y3205
M30
