G75*
G70*
%OFA0B0*%
%FSLAX24Y24*%
%IPPOS*%
%LPD*%
%AMOC8*
5,1,8,0,0,1.08239X$1,22.5*
%
%ADD10R,0.0789X0.0710*%
%ADD11R,0.0710X0.0789*%
%ADD12C,0.0680*%
%ADD13R,0.0474X0.0513*%
%ADD14R,0.0671X0.0671*%
%ADD15C,0.0830*%
%ADD16OC8,0.0830*%
%ADD17OC8,0.0620*%
%ADD18C,0.1261*%
%ADD19R,0.0513X0.0474*%
%ADD20R,0.0671X0.0474*%
%ADD21R,0.0671X0.0356*%
%ADD22R,0.1261X0.0867*%
%ADD23C,0.0513*%
%ADD24C,0.0710*%
%ADD25R,0.0907X0.0907*%
%ADD26R,0.0946X0.0316*%
%ADD27C,0.1360*%
%ADD28C,0.0605*%
%ADD29OC8,0.1080*%
%ADD30OC8,0.0680*%
%ADD31R,0.0198X0.0710*%
%ADD32R,0.0710X0.0198*%
%ADD33R,0.1064X0.0277*%
%ADD34R,0.1064X0.0867*%
%ADD35C,0.0434*%
%ADD36R,0.0505X0.0493*%
%ADD37R,0.0493X0.0505*%
%ADD38R,0.0828X0.0513*%
%ADD39R,0.0790X0.0710*%
%ADD40R,0.0552X0.0867*%
%ADD41R,0.0316X0.0946*%
%ADD42C,0.0905*%
%ADD43R,0.0297X0.0552*%
%ADD44C,0.0350*%
%ADD45C,0.0456*%
D10*
X016981Y027654D03*
X016981Y028756D03*
X035341Y016086D03*
X035341Y014984D03*
D11*
X021983Y028455D03*
X020880Y028455D03*
D12*
X020981Y029955D02*
X020381Y029955D01*
X020381Y030955D02*
X020981Y030955D01*
X025681Y030105D02*
X025681Y029505D01*
X026681Y029505D02*
X026681Y030105D01*
X027681Y030105D02*
X027681Y029505D01*
X028681Y029505D02*
X028681Y030105D01*
X030631Y018755D02*
X031231Y018755D01*
X031231Y017755D02*
X030631Y017755D01*
X030631Y016755D02*
X031231Y016755D01*
X031481Y014455D02*
X030881Y014455D01*
X029981Y014455D02*
X029381Y014455D01*
X029381Y013455D02*
X029981Y013455D01*
X030881Y013455D02*
X031481Y013455D01*
X031481Y012455D02*
X030881Y012455D01*
X029981Y012455D02*
X029381Y012455D01*
X028481Y012455D02*
X027881Y012455D01*
X026981Y012455D02*
X026381Y012455D01*
X026381Y011455D02*
X026981Y011455D01*
X027881Y011455D02*
X028481Y011455D01*
X029381Y011455D02*
X029981Y011455D01*
X030881Y011455D02*
X031481Y011455D01*
X028481Y013455D02*
X027881Y013455D01*
X026981Y013455D02*
X026381Y013455D01*
X026381Y014455D02*
X026981Y014455D01*
X027881Y014455D02*
X028481Y014455D01*
X024481Y014455D02*
X023881Y014455D01*
X023881Y013455D02*
X024481Y013455D01*
X024481Y012455D02*
X023881Y012455D01*
X023881Y011455D02*
X024481Y011455D01*
X021481Y011455D02*
X020881Y011455D01*
X020881Y012455D02*
X021481Y012455D01*
X021481Y013455D02*
X020881Y013455D01*
X020881Y014455D02*
X021481Y014455D01*
X018481Y014455D02*
X017881Y014455D01*
X017881Y013455D02*
X018481Y013455D01*
X018481Y012455D02*
X017881Y012455D01*
X017881Y011455D02*
X018481Y011455D01*
X015481Y011455D02*
X014881Y011455D01*
X014881Y012455D02*
X015481Y012455D01*
X015481Y013455D02*
X014881Y013455D01*
X014881Y014455D02*
X015481Y014455D01*
X025081Y008325D02*
X025081Y007725D01*
X026081Y007725D02*
X026081Y008325D01*
X005071Y016925D02*
X005071Y017525D01*
X003291Y017525D02*
X003291Y016925D01*
X001981Y017455D02*
X001381Y017455D01*
X001381Y018455D02*
X001981Y018455D01*
X001981Y019455D02*
X001381Y019455D01*
X001381Y020455D02*
X001981Y020455D01*
X001981Y021455D02*
X001381Y021455D01*
X001381Y022455D02*
X001981Y022455D01*
X003291Y020085D02*
X003291Y019485D01*
X005071Y019485D02*
X005071Y020085D01*
X009781Y027155D02*
X009781Y027755D01*
X010781Y027755D02*
X010781Y027155D01*
X011331Y029055D02*
X011331Y029655D01*
X012331Y029655D02*
X012331Y029055D01*
X013331Y029055D02*
X013331Y029655D01*
X014331Y029655D02*
X014331Y029055D01*
X008681Y029105D02*
X008681Y029705D01*
X007681Y029705D02*
X007681Y029105D01*
X006681Y029105D02*
X006681Y029705D01*
X005681Y029705D02*
X005681Y029105D01*
D13*
X004416Y030855D03*
X003747Y030855D03*
X013197Y025305D03*
X013866Y025305D03*
X013866Y024555D03*
X013197Y024555D03*
X020947Y018685D03*
X021616Y018685D03*
X027347Y015755D03*
X028016Y015755D03*
X030547Y015755D03*
X031216Y015755D03*
X026086Y009745D03*
X025417Y009745D03*
X026957Y006615D03*
X027626Y006615D03*
X028407Y006615D03*
X029076Y006615D03*
X014216Y006255D03*
X013547Y006255D03*
X013547Y007155D03*
X014216Y007155D03*
X014166Y008155D03*
X013497Y008155D03*
X030217Y029775D03*
X030886Y029775D03*
D14*
X007280Y016125D03*
X005902Y016125D03*
X002720Y031405D03*
X001342Y031405D03*
D15*
X033831Y029705D03*
X036931Y011155D03*
D16*
X036931Y009155D03*
X033831Y027705D03*
D17*
X033681Y032955D03*
X032681Y032955D03*
X032681Y033955D03*
X033681Y033955D03*
X034681Y033955D03*
X034681Y032955D03*
X028181Y032955D03*
X028181Y033955D03*
X027181Y033955D03*
X026181Y033955D03*
X026181Y032955D03*
X027181Y032955D03*
X021681Y032955D03*
X020681Y032955D03*
X019681Y032955D03*
X019681Y033955D03*
X020681Y033955D03*
X021681Y033955D03*
X015181Y033955D03*
X014181Y033955D03*
X014181Y032955D03*
X015181Y032955D03*
X013181Y032955D03*
X013181Y033955D03*
X008681Y033955D03*
X007681Y033955D03*
X006681Y033955D03*
X006681Y032955D03*
X007681Y032955D03*
X008681Y032955D03*
X007681Y022555D03*
X006681Y022555D03*
X006681Y021555D03*
X007681Y021555D03*
X007681Y020555D03*
X006681Y020555D03*
X006681Y019555D03*
X007681Y019555D03*
X007681Y018555D03*
X006681Y018555D03*
D18*
X002681Y033955D03*
X037680Y031597D03*
X039181Y033955D03*
X037680Y013014D03*
X039181Y003455D03*
D19*
X030981Y009221D03*
X030981Y009890D03*
X033581Y011221D03*
X033581Y011890D03*
X029581Y005890D03*
X029581Y005221D03*
X025581Y005621D03*
X025581Y006290D03*
X023941Y008141D03*
X023941Y008810D03*
X013581Y010221D03*
X013581Y010890D03*
X008481Y015771D03*
X008481Y016440D03*
D20*
X012727Y013718D03*
X012727Y013049D03*
X012727Y012092D03*
X012727Y011108D03*
X012727Y010123D03*
X012727Y009139D03*
X012727Y008155D03*
X012727Y007171D03*
X012727Y006186D03*
D21*
X012727Y014230D03*
X012727Y014702D03*
D22*
X001822Y003600D03*
X001783Y015411D03*
D23*
X011627Y014398D03*
D24*
X011628Y006132D03*
D25*
X037499Y014864D03*
X037499Y016518D03*
X037499Y018171D03*
X037499Y019825D03*
X037499Y021479D03*
X037499Y023132D03*
X037499Y024786D03*
X037499Y026439D03*
X037499Y028093D03*
X037499Y029746D03*
X039664Y029746D03*
X039664Y028093D03*
X039664Y026439D03*
X039664Y024786D03*
X039664Y023132D03*
X039664Y021479D03*
X039664Y019825D03*
X039664Y018171D03*
X039664Y016518D03*
X039664Y014864D03*
D26*
X034305Y010355D03*
X034305Y009855D03*
X034305Y009355D03*
X034305Y008855D03*
X032258Y008855D03*
X032258Y009355D03*
X032258Y009855D03*
X032258Y010355D03*
D27*
X031731Y003205D03*
X036231Y003205D03*
D28*
X035231Y005705D03*
X034231Y005705D03*
X033231Y005705D03*
X032231Y005705D03*
X032731Y006705D03*
X033731Y006705D03*
X034731Y006705D03*
X035731Y006705D03*
D29*
X033781Y015005D03*
X033781Y025505D03*
D30*
X016881Y030605D03*
D31*
X016935Y024630D03*
X017132Y024630D03*
X017329Y024630D03*
X017526Y024630D03*
X017722Y024630D03*
X017919Y024630D03*
X018116Y024630D03*
X018313Y024630D03*
X018510Y024630D03*
X018707Y024630D03*
X018904Y024630D03*
X019100Y024630D03*
X019297Y024630D03*
X019494Y024630D03*
X019691Y024630D03*
X019888Y024630D03*
X019888Y020221D03*
X019691Y020221D03*
X019494Y020221D03*
X019297Y020221D03*
X019100Y020221D03*
X018904Y020221D03*
X018707Y020221D03*
X018510Y020221D03*
X018313Y020221D03*
X018116Y020221D03*
X017919Y020221D03*
X017722Y020221D03*
X017526Y020221D03*
X017329Y020221D03*
X017132Y020221D03*
X016935Y020221D03*
D32*
X016207Y020949D03*
X016207Y021146D03*
X016207Y021343D03*
X016207Y021539D03*
X016207Y021736D03*
X016207Y021933D03*
X016207Y022130D03*
X016207Y022327D03*
X016207Y022524D03*
X016207Y022721D03*
X016207Y022917D03*
X016207Y023114D03*
X016207Y023311D03*
X016207Y023508D03*
X016207Y023705D03*
X016207Y023902D03*
X020616Y023902D03*
X020616Y023705D03*
X020616Y023508D03*
X020616Y023311D03*
X020616Y023114D03*
X020616Y022917D03*
X020616Y022721D03*
X020616Y022524D03*
X020616Y022327D03*
X020616Y022130D03*
X020616Y021933D03*
X020616Y021736D03*
X020616Y021539D03*
X020616Y021343D03*
X020616Y021146D03*
X020616Y020949D03*
D33*
X003666Y025325D03*
X003666Y025640D03*
X003666Y025955D03*
X003666Y026270D03*
X003666Y026585D03*
D34*
X003666Y027727D03*
X001500Y027727D03*
X001500Y024184D03*
X003666Y024184D03*
D35*
X002681Y025089D03*
X002681Y026821D03*
X018331Y018705D03*
D36*
X015541Y019811D03*
X015541Y020500D03*
X014701Y020420D03*
X014701Y019731D03*
X022231Y018900D03*
X022231Y018211D03*
X022581Y020411D03*
X023231Y020411D03*
X023231Y021100D03*
X022581Y021100D03*
X024131Y021200D03*
X024131Y020511D03*
X024881Y020511D03*
X024881Y021200D03*
X023181Y025711D03*
X023181Y026400D03*
X028781Y010550D03*
X028781Y009861D03*
X023031Y007450D03*
X023031Y006761D03*
X019281Y007161D03*
X019281Y007850D03*
D37*
X017926Y005705D03*
X017237Y005705D03*
X021087Y005755D03*
X021776Y005755D03*
X024187Y006455D03*
X024876Y006455D03*
X028337Y005905D03*
X029026Y005905D03*
X024826Y009915D03*
X024137Y009915D03*
X030337Y010605D03*
X031026Y010605D03*
X029226Y021305D03*
X028537Y021305D03*
X021186Y024665D03*
X020497Y024665D03*
X016096Y024695D03*
X015407Y024695D03*
X015167Y025745D03*
X015856Y025745D03*
D38*
X018103Y027553D03*
X018103Y028458D03*
X019560Y028458D03*
X019560Y027553D03*
D39*
X035311Y026305D03*
X035311Y025185D03*
D40*
X026061Y021955D03*
X024801Y021955D03*
D41*
X022131Y008829D03*
X021631Y008829D03*
X021131Y008829D03*
X020631Y008829D03*
X018481Y008979D03*
X017981Y008979D03*
X017481Y008979D03*
X016981Y008979D03*
X016981Y006932D03*
X017481Y006932D03*
X017981Y006932D03*
X018481Y006932D03*
X020631Y006782D03*
X021131Y006782D03*
X021631Y006782D03*
X022131Y006782D03*
D42*
X020881Y004068D02*
X020881Y003243D01*
X018881Y003243D02*
X018881Y004068D01*
X016881Y004068D02*
X016881Y003243D01*
X014881Y003243D02*
X014881Y004068D01*
X023581Y004068D02*
X023581Y003243D01*
X025581Y003243D02*
X025581Y004068D01*
X027581Y004068D02*
X027581Y003243D01*
X029581Y003243D02*
X029581Y004068D01*
D43*
X023555Y018243D03*
X023181Y018243D03*
X022807Y018243D03*
X022807Y019267D03*
X023555Y019267D03*
D44*
X024071Y019215D03*
X024501Y018995D03*
X024901Y019235D03*
X025221Y018995D03*
X025541Y019155D03*
X025581Y020085D03*
X025441Y020375D03*
X025231Y020085D03*
X024871Y020075D03*
X024521Y020085D03*
X024121Y020085D03*
X023681Y020081D03*
X022911Y020005D03*
X022081Y020065D03*
X021961Y019655D03*
X021571Y020015D03*
X021181Y020185D03*
X020791Y020285D03*
X020461Y020225D03*
X020161Y019755D03*
X020501Y019535D03*
X020961Y019165D03*
X021301Y019175D03*
X020501Y019095D03*
X020471Y018725D03*
X020211Y018595D03*
X020111Y018905D03*
X019881Y019265D03*
X019201Y018325D03*
X019581Y018055D03*
X018981Y017875D03*
X018621Y017505D03*
X018241Y017795D03*
X017631Y017855D03*
X017081Y017355D03*
X016421Y019325D03*
X016041Y019485D03*
X016301Y019805D03*
X016081Y020155D03*
X016601Y020295D03*
X016831Y020875D03*
X017111Y021355D03*
X017231Y021785D03*
X016881Y021745D03*
X016991Y022135D03*
X017151Y022875D03*
X017481Y022905D03*
X017451Y023235D03*
X017331Y023545D03*
X017321Y023885D03*
X016951Y024075D03*
X016541Y024485D03*
X016141Y024255D03*
X015771Y024235D03*
X015831Y025165D03*
X015481Y025165D03*
X015051Y025105D03*
X014641Y025725D03*
X014771Y026045D03*
X014951Y026365D03*
X015501Y026245D03*
X016041Y026175D03*
X016481Y026005D03*
X016331Y025225D03*
X017681Y026655D03*
X018181Y026855D03*
X018341Y026415D03*
X019281Y026755D03*
X019821Y026795D03*
X020381Y026805D03*
X020481Y027455D03*
X020981Y027505D03*
X021551Y026795D03*
X021181Y026465D03*
X021091Y025815D03*
X020501Y025685D03*
X020411Y026005D03*
X020241Y025195D03*
X020581Y025195D03*
X021551Y025385D03*
X021601Y025725D03*
X022591Y025805D03*
X022531Y026355D03*
X022881Y026855D03*
X023181Y026805D03*
X023511Y027165D03*
X023131Y027505D03*
X022781Y027505D03*
X022581Y028455D03*
X023231Y028505D03*
X024111Y028135D03*
X024731Y027775D03*
X025581Y028005D03*
X025931Y028005D03*
X026131Y027605D03*
X026481Y027155D03*
X026641Y026795D03*
X026721Y026395D03*
X027281Y026395D03*
X027281Y026795D03*
X027331Y027305D03*
X027281Y027835D03*
X027661Y028955D03*
X026741Y028975D03*
X025171Y029105D03*
X024721Y029225D03*
X024761Y028565D03*
X024881Y029705D03*
X024731Y030415D03*
X024121Y030925D03*
X023511Y031265D03*
X023821Y031575D03*
X023841Y032125D03*
X024381Y031755D03*
X024881Y031535D03*
X024971Y031905D03*
X025041Y032525D03*
X025611Y032455D03*
X023911Y032875D03*
X023191Y032255D03*
X022671Y032435D03*
X022161Y033355D03*
X023931Y033495D03*
X023931Y034065D03*
X021331Y031455D03*
X020431Y031655D03*
X019931Y031405D03*
X019731Y030955D03*
X018901Y030605D03*
X018521Y030675D03*
X018471Y030195D03*
X018831Y030005D03*
X018921Y029455D03*
X018901Y028985D03*
X019651Y029215D03*
X020111Y029195D03*
X020591Y029185D03*
X021081Y029205D03*
X021581Y029155D03*
X021981Y029155D03*
X021731Y029705D03*
X022781Y030105D03*
X022781Y030405D03*
X022781Y030855D03*
X022781Y031355D03*
X023121Y030095D03*
X023131Y029305D03*
X023681Y026605D03*
X024231Y026455D03*
X024281Y025855D03*
X023681Y025825D03*
X022631Y024755D03*
X020841Y024195D03*
X020111Y024125D03*
X019991Y023655D03*
X019961Y023275D03*
X019571Y023265D03*
X019071Y023245D03*
X019041Y022785D03*
X018571Y022685D03*
X018551Y023185D03*
X019111Y022110D03*
X018411Y021795D03*
X018001Y021785D03*
X018881Y020835D03*
X020841Y020665D03*
X021771Y021475D03*
X021831Y021985D03*
X021471Y022005D03*
X022201Y022035D03*
X022541Y022025D03*
X022771Y022305D03*
X023021Y022025D03*
X023201Y022315D03*
X023431Y022025D03*
X023591Y022315D03*
X023791Y022045D03*
X023971Y022315D03*
X024311Y022305D03*
X024231Y021955D03*
X023681Y021155D03*
X022151Y020735D03*
X024851Y022875D03*
X025761Y023255D03*
X026491Y022605D03*
X027081Y023155D03*
X027331Y023505D03*
X027231Y023855D03*
X026881Y024155D03*
X027531Y022875D03*
X028801Y022885D03*
X028861Y022495D03*
X028891Y022155D03*
X028921Y021845D03*
X029321Y021845D03*
X029341Y022205D03*
X029331Y022565D03*
X029181Y023155D03*
X029481Y023455D03*
X029281Y023805D03*
X029481Y024255D03*
X029141Y024595D03*
X029281Y024905D03*
X028881Y025005D03*
X029231Y025355D03*
X028881Y025605D03*
X029231Y025805D03*
X028881Y026055D03*
X028881Y026455D03*
X029231Y026305D03*
X029231Y026755D03*
X028881Y026955D03*
X029231Y027255D03*
X029481Y027605D03*
X027331Y025905D03*
X026731Y025905D03*
X024831Y024505D03*
X025491Y020735D03*
X027041Y019635D03*
X027331Y020175D03*
X028141Y019695D03*
X028891Y019375D03*
X028181Y019075D03*
X027561Y018385D03*
X027031Y018345D03*
X027841Y017635D03*
X028911Y017085D03*
X029431Y017325D03*
X029881Y017295D03*
X030101Y017695D03*
X030091Y018025D03*
X029601Y018035D03*
X029051Y018035D03*
X029161Y018675D03*
X029481Y018675D03*
X029861Y018655D03*
X029761Y019335D03*
X030421Y019325D03*
X031171Y019985D03*
X031791Y019705D03*
X031621Y019315D03*
X031791Y018765D03*
X031891Y018075D03*
X033111Y018335D03*
X033651Y018055D03*
X033381Y017705D03*
X033381Y017005D03*
X033004Y015947D03*
X032904Y015368D03*
X031871Y014925D03*
X031731Y015375D03*
X031711Y016215D03*
X031951Y016445D03*
X030171Y016145D03*
X029811Y016075D03*
X029671Y016395D03*
X029161Y016385D03*
X028881Y016175D03*
X028051Y015205D03*
X027531Y016355D03*
X027181Y016325D03*
X025641Y016905D03*
X025331Y017155D03*
X025011Y017155D03*
X024611Y017155D03*
X024291Y017155D03*
X023891Y017155D03*
X023491Y017155D03*
X022821Y017135D03*
X022171Y017145D03*
X021771Y017155D03*
X021341Y017145D03*
X019731Y016115D03*
X020281Y013905D03*
X020281Y013355D03*
X020281Y012855D03*
X020281Y012305D03*
X019231Y012305D03*
X019231Y012855D03*
X019231Y013355D03*
X019231Y013855D03*
X017231Y013755D03*
X017231Y013155D03*
X017231Y012605D03*
X017231Y012155D03*
X016681Y012005D03*
X016181Y012155D03*
X016181Y012605D03*
X016231Y013105D03*
X016181Y013705D03*
X014791Y015135D03*
X013531Y016335D03*
X014181Y016635D03*
X012631Y017855D03*
X012131Y019095D03*
X012171Y019425D03*
X012211Y019795D03*
X012201Y020155D03*
X012511Y020355D03*
X012831Y019555D03*
X012991Y019155D03*
X013731Y019205D03*
X014231Y019255D03*
X014701Y019205D03*
X015161Y019255D03*
X015601Y019295D03*
X014131Y019745D03*
X013521Y019845D03*
X010931Y021405D03*
X010271Y021665D03*
X009981Y021975D03*
X010581Y022385D03*
X010331Y023025D03*
X009901Y022895D03*
X009941Y023465D03*
X009941Y023795D03*
X010711Y023305D03*
X011041Y023305D03*
X011391Y023305D03*
X011381Y023955D03*
X010831Y023955D03*
X010681Y024805D03*
X011131Y024855D03*
X010031Y024955D03*
X009781Y025405D03*
X009231Y025405D03*
X008631Y025455D03*
X007981Y025405D03*
X007381Y025455D03*
X006731Y025405D03*
X006081Y025405D03*
X005431Y025405D03*
X004781Y025405D03*
X004781Y024955D03*
X004201Y024905D03*
X004831Y024555D03*
X004831Y024205D03*
X003791Y023535D03*
X003121Y023095D03*
X003581Y021615D03*
X004221Y021615D03*
X004871Y021625D03*
X007161Y020105D03*
X007131Y019085D03*
X006441Y019075D03*
X007301Y018205D03*
X007761Y017375D03*
X008681Y017155D03*
X009001Y017375D03*
X009331Y017875D03*
X009731Y017205D03*
X009981Y016955D03*
X010581Y016655D03*
X010951Y016335D03*
X010231Y016105D03*
X010381Y015715D03*
X008981Y015905D03*
X007761Y014555D03*
X007081Y014535D03*
X008231Y013985D03*
X008321Y013605D03*
X008511Y012865D03*
X007971Y012835D03*
X006271Y012405D03*
X005631Y012695D03*
X004791Y013105D03*
X005081Y013715D03*
X005041Y014595D03*
X005291Y016125D03*
X005771Y016795D03*
X005661Y017565D03*
X006171Y017695D03*
X006610Y016711D03*
X008381Y018335D03*
X008691Y018965D03*
X007891Y019075D03*
X009181Y021585D03*
X008181Y022055D03*
X008691Y023235D03*
X009111Y023145D03*
X010081Y024405D03*
X011681Y025705D03*
X012481Y025305D03*
X013141Y023885D03*
X013521Y023885D03*
X013921Y023895D03*
X014231Y023865D03*
X014691Y023595D03*
X014481Y024515D03*
X014291Y024845D03*
X014371Y022645D03*
X013921Y022625D03*
X013561Y022625D03*
X013151Y022625D03*
X012771Y022615D03*
X012401Y022615D03*
X016991Y023215D03*
X014531Y027105D03*
X014931Y027155D03*
X015381Y027905D03*
X015431Y028605D03*
X016731Y029355D03*
X016981Y029605D03*
X017181Y029355D03*
X017681Y029205D03*
X018131Y029155D03*
X017281Y029945D03*
X016661Y029905D03*
X016191Y030715D03*
X015681Y030815D03*
X015031Y030805D03*
X014421Y030815D03*
X012701Y030715D03*
X011021Y030715D03*
X010301Y030685D03*
X010891Y032075D03*
X010871Y032815D03*
X010871Y033615D03*
X010891Y034285D03*
X010361Y034685D03*
X008081Y031505D03*
X007741Y031135D03*
X006461Y030865D03*
X004911Y029615D03*
X004391Y030085D03*
X003411Y030235D03*
X004341Y031465D03*
X004321Y032475D03*
X004371Y033215D03*
X004471Y034035D03*
X004371Y034625D03*
X001311Y032095D03*
X001291Y030825D03*
X001431Y029615D03*
X001731Y028485D03*
X002161Y028425D03*
X002681Y028405D03*
X003271Y028425D03*
X003901Y028455D03*
X004631Y028055D03*
X004631Y027505D03*
X005231Y027455D03*
X005881Y027255D03*
X006581Y027205D03*
X007231Y027155D03*
X007881Y027155D03*
X008531Y027155D03*
X009081Y027155D03*
X012631Y028355D03*
X013871Y028405D03*
X017581Y031455D03*
X017361Y031845D03*
X016941Y032085D03*
X016201Y032485D03*
X016991Y033155D03*
X017441Y032685D03*
X017851Y032275D03*
X018521Y031435D03*
X030021Y031975D03*
X030531Y031955D03*
X030901Y032855D03*
X030921Y033545D03*
X030921Y034145D03*
X032391Y031655D03*
X032721Y031245D03*
X033621Y030365D03*
X033121Y030135D03*
X032041Y029575D03*
X031481Y030655D03*
X031131Y030955D03*
X030271Y030925D03*
X033091Y028125D03*
X033061Y027705D03*
X033091Y027305D03*
X033111Y026955D03*
X033091Y026545D03*
X033091Y026155D03*
X033061Y025795D03*
X033011Y025435D03*
X033061Y025075D03*
X033061Y024655D03*
X033391Y024255D03*
X033661Y023935D03*
X033681Y023375D03*
X033141Y023455D03*
X033691Y022735D03*
X033741Y022225D03*
X033761Y021685D03*
X033751Y021145D03*
X033771Y020685D03*
X033791Y019985D03*
X033771Y019635D03*
X033761Y019195D03*
X033671Y018695D03*
X035321Y016745D03*
X034741Y016605D03*
X034611Y016055D03*
X034681Y015405D03*
X036021Y015695D03*
X036001Y016515D03*
X034001Y013505D03*
X033321Y013595D03*
X033261Y013005D03*
X033411Y012525D03*
X032881Y012455D03*
X032481Y012155D03*
X032841Y011815D03*
X032681Y010905D03*
X032231Y010905D03*
X031731Y010855D03*
X029841Y009995D03*
X029331Y009855D03*
X029281Y009355D03*
X028781Y009355D03*
X028181Y009805D03*
X028291Y010135D03*
X026801Y010395D03*
X026531Y009845D03*
X025701Y009315D03*
X024821Y009395D03*
X024331Y010445D03*
X023681Y010395D03*
X023521Y009755D03*
X023361Y009115D03*
X023361Y008635D03*
X023361Y008075D03*
X022621Y008365D03*
X022621Y008885D03*
X022601Y009325D03*
X022561Y009855D03*
X021631Y009755D03*
X019771Y009025D03*
X019231Y009255D03*
X019141Y008675D03*
X018831Y009805D03*
X018181Y009875D03*
X017731Y009655D03*
X017301Y010675D03*
X016741Y010535D03*
X016671Y010995D03*
X015481Y010515D03*
X015101Y010745D03*
X014561Y010755D03*
X014581Y010155D03*
X014581Y009405D03*
X015191Y009025D03*
X015781Y008595D03*
X015411Y008275D03*
X015491Y007245D03*
X015981Y006955D03*
X015411Y006495D03*
X014481Y007655D03*
X013431Y008705D03*
X013431Y009105D03*
X013381Y009505D03*
X012781Y009605D03*
X011461Y009145D03*
X011951Y008455D03*
X010731Y010455D03*
X009611Y010595D03*
X008931Y009975D03*
X009101Y009505D03*
X009611Y009425D03*
X007851Y009085D03*
X008001Y006735D03*
X004581Y006915D03*
X004671Y010365D03*
X009861Y012185D03*
X009881Y012935D03*
X009861Y013455D03*
X011081Y012655D03*
X011081Y012205D03*
X011081Y011655D03*
X011881Y011355D03*
X013331Y011605D03*
X013381Y012055D03*
X013331Y012555D03*
X013531Y013645D03*
X012381Y015715D03*
X016141Y009225D03*
X018081Y007905D03*
X019051Y006305D03*
X019131Y005805D03*
X019831Y005995D03*
X019981Y006705D03*
X022381Y005725D03*
X022611Y006065D03*
X023601Y006395D03*
X023681Y006955D03*
X024191Y007005D03*
X024481Y007435D03*
X024081Y007515D03*
X022471Y007475D03*
X022491Y007905D03*
X024941Y010485D03*
X025951Y012005D03*
X024911Y012955D03*
X025011Y013455D03*
X024901Y013965D03*
X023281Y013905D03*
X023281Y013355D03*
X023281Y012905D03*
X022861Y012305D03*
X023321Y012185D03*
X022731Y011885D03*
X022181Y012355D03*
X022231Y012955D03*
X022181Y013405D03*
X022231Y013855D03*
X022831Y015325D03*
X025291Y016595D03*
X029771Y020455D03*
X030531Y020435D03*
X030251Y021145D03*
X031511Y020715D03*
X030071Y022885D03*
X032231Y023155D03*
X032281Y023825D03*
X032431Y024605D03*
X034351Y030275D03*
X034981Y030245D03*
X035581Y030235D03*
X036031Y030235D03*
X036041Y030895D03*
X036031Y031425D03*
X036031Y031915D03*
X036031Y032405D03*
X036011Y032785D03*
X036931Y033055D03*
X036921Y033615D03*
X036931Y032485D03*
X037281Y030495D03*
X037941Y030485D03*
X038601Y030465D03*
X034841Y013245D03*
X034841Y012465D03*
X034871Y011875D03*
X034381Y011155D03*
X035231Y008855D03*
X035681Y007565D03*
X036861Y007605D03*
X037401Y008385D03*
X038551Y008595D03*
X038841Y009605D03*
X038841Y011195D03*
X038801Y007025D03*
X038041Y006115D03*
X037731Y005025D03*
X034901Y003285D03*
X034111Y003265D03*
X033311Y003285D03*
X031371Y005535D03*
X030481Y004555D03*
X030481Y003995D03*
X030401Y003435D03*
X030401Y002875D03*
X028561Y002875D03*
X028561Y003355D03*
X028561Y003835D03*
X028561Y004395D03*
X030081Y005835D03*
X030081Y006315D03*
X030081Y006795D03*
X029681Y006655D03*
X029841Y007195D03*
X029681Y007595D03*
X029361Y007595D03*
X029361Y008315D03*
X028961Y008315D03*
X029761Y008315D03*
X030081Y007955D03*
X028481Y007275D03*
X028081Y007275D03*
X028241Y007995D03*
X027041Y007835D03*
X027041Y008235D03*
X026721Y008555D03*
X027061Y008915D03*
X027281Y007195D03*
X026131Y006555D03*
X022721Y004475D03*
X022721Y004075D03*
X022721Y003675D03*
X022721Y003275D03*
X022721Y002875D03*
X012931Y002625D03*
X012931Y003535D03*
X012941Y004295D03*
X012911Y004955D03*
X032041Y012915D03*
X032231Y013305D03*
X003721Y024905D03*
X003341Y024925D03*
D45*
X001231Y029105D03*
X003231Y016155D03*
X024001Y018605D03*
X028491Y018055D03*
X030331Y008855D03*
X031381Y008855D03*
M02*
