%
M48
M72
T01C0.0130
T02C0.0320
T03C0.0360
T04C0.0400
T05C0.0630
T06C0.1181
%
T01
X44191Y16319
X44271Y15759
X45051Y15659
X45421Y15659
X45531Y15379
X45831Y15379
X45931Y15079
X45631Y15079
X46211Y15309
X47231Y15279
X47531Y15279
X47831Y15269
X47861Y14969
X47561Y14969
X47251Y14969
X47251Y14699
X47571Y14689
X47881Y14659
X47881Y14359
X47581Y14359
X47231Y14369
X48191Y14349
X48191Y14659
X48161Y14959
X48151Y15269
X49331Y14929
X49671Y14999
X49611Y14699
X50771Y14399
X50861Y15619
X50471Y15639
X50071Y15599
X50971Y16099
X50791Y16519
X50391Y16619
X50371Y16899
X50371Y17259
X50651Y17219
X50791Y17009
X50071Y16499
X49671Y16399
X48911Y16589
X48821Y16259
X46771Y16529
X46671Y16339
X45051Y16899
X45051Y17239
X45081Y17619
X45301Y17889
X45661Y17899
X49741Y17909
X50071Y17909
X50361Y17669
X50771Y17799
X50331Y13189
X50271Y12899
X49971Y12999
X49581Y12339
X49581Y11839
X50541Y11549
X50531Y10489
X45771Y10399
X45271Y10399
X44871Y10699
X45771Y11199
X45271Y11499
X44871Y11799
T02
X44911Y18909
X44111Y18909
T03
X42211Y11309
X41211Y11309
X40211Y11309
X40211Y10309
X41211Y10309
X42211Y10309
X46711Y10309
X47711Y10309
X48711Y10309
X48711Y11309
X47711Y11309
X46711Y11309
X35711Y11309
X34711Y11309
X33711Y11309
X33711Y10309
X34711Y10309
X35711Y10309
X29211Y10309
X28211Y10309
X27211Y10309
X27211Y11309
X28211Y11309
X29211Y11309
X22711Y11309
X21711Y11309
X20711Y11309
X20711Y10309
X21711Y10309
X22711Y10309
T04
X22211Y18809
X23211Y18809
X21211Y18809
X20211Y18809
X26711Y18809
X27711Y18809
X28711Y18809
X29711Y18809
X33211Y18809
X34211Y18809
X35211Y18809
X36211Y18809
X39711Y18809
X40711Y18809
X41711Y18809
X42711Y18809
X46211Y19109
X47211Y19109
X48211Y19109
X49211Y19109
T05
X53311Y18409
X53311Y16409
X53311Y14409
X53311Y20409
T06
X1711Y1809
X5211Y1809
X16461Y11309
X53211Y11309
M30
