G75*
G70*
%OFA0B0*%
%FSLAX24Y24*%
%IPPOS*%
%LPD*%
%AMOC8*
5,1,8,0,0,1.08239X$1,22.5*
%
%ADD10OC8,0.0620*%
%ADD11C,0.0680*%
%ADD12C,0.1261*%
%ADD13C,0.1104*%
%ADD14OC8,0.0580*%
%ADD15C,0.0580*%
%ADD16C,0.0350*%
D10*
X020711Y010309D03*
X021711Y010309D03*
X022711Y010309D03*
X022711Y011309D03*
X021711Y011309D03*
X020711Y011309D03*
X027211Y011309D03*
X028211Y011309D03*
X029211Y011309D03*
X029211Y010309D03*
X028211Y010309D03*
X027211Y010309D03*
X033711Y010309D03*
X034711Y010309D03*
X035711Y010309D03*
X035711Y011309D03*
X034711Y011309D03*
X033711Y011309D03*
X040211Y011309D03*
X041211Y011309D03*
X042211Y011309D03*
X042211Y010309D03*
X041211Y010309D03*
X040211Y010309D03*
X046711Y010309D03*
X047711Y010309D03*
X048711Y010309D03*
X048711Y011309D03*
X047711Y011309D03*
X046711Y011309D03*
D11*
X042711Y018509D02*
X042711Y019109D01*
X041711Y019109D02*
X041711Y018509D01*
X040711Y018509D02*
X040711Y019109D01*
X039711Y019109D02*
X039711Y018509D01*
X036211Y018509D02*
X036211Y019109D01*
X035211Y019109D02*
X035211Y018509D01*
X034211Y018509D02*
X034211Y019109D01*
X033211Y019109D02*
X033211Y018509D01*
X029711Y018509D02*
X029711Y019109D01*
X028711Y019109D02*
X028711Y018509D01*
X027711Y018509D02*
X027711Y019109D01*
X026711Y019109D02*
X026711Y018509D01*
X023211Y018509D02*
X023211Y019109D01*
X022211Y019109D02*
X022211Y018509D01*
X021211Y018509D02*
X021211Y019109D01*
X020211Y019109D02*
X020211Y018509D01*
X046211Y018809D02*
X046211Y019409D01*
X047211Y019409D02*
X047211Y018809D01*
X048211Y018809D02*
X048211Y019409D01*
X049211Y019409D02*
X049211Y018809D01*
D12*
X001711Y001809D03*
X005211Y001809D03*
X016461Y011309D03*
X053211Y011309D03*
D13*
X052799Y014409D02*
X053823Y014409D01*
X053823Y016409D02*
X052799Y016409D01*
X052799Y018409D02*
X053823Y018409D01*
X053823Y020409D02*
X052799Y020409D01*
D14*
X044911Y018909D03*
D15*
X044111Y018909D03*
D16*
X045301Y017889D03*
X045081Y017619D03*
X045661Y017899D03*
X045051Y017239D03*
X045051Y016899D03*
X044191Y016319D03*
X044271Y015759D03*
X045051Y015659D03*
X045421Y015659D03*
X045531Y015379D03*
X045831Y015379D03*
X045931Y015079D03*
X045631Y015079D03*
X046211Y015309D03*
X047231Y015279D03*
X047531Y015279D03*
X047831Y015269D03*
X047861Y014969D03*
X047561Y014969D03*
X047251Y014969D03*
X047251Y014699D03*
X047571Y014689D03*
X047881Y014659D03*
X047881Y014359D03*
X047581Y014359D03*
X047231Y014369D03*
X048191Y014349D03*
X048191Y014659D03*
X048161Y014959D03*
X048151Y015269D03*
X049331Y014929D03*
X049671Y014999D03*
X049611Y014699D03*
X050771Y014399D03*
X050861Y015619D03*
X050471Y015639D03*
X050071Y015599D03*
X050971Y016099D03*
X050791Y016519D03*
X050391Y016619D03*
X050371Y016899D03*
X050371Y017259D03*
X050651Y017219D03*
X050791Y017009D03*
X050071Y016499D03*
X049671Y016399D03*
X048911Y016589D03*
X048821Y016259D03*
X046771Y016529D03*
X046671Y016339D03*
X049741Y017909D03*
X050071Y017909D03*
X050361Y017669D03*
X050771Y017799D03*
X050331Y013189D03*
X050271Y012899D03*
X049971Y012999D03*
X049581Y012339D03*
X049581Y011839D03*
X050541Y011549D03*
X050531Y010489D03*
X045771Y010399D03*
X045271Y010399D03*
X044871Y010699D03*
X045771Y011199D03*
X045271Y011499D03*
X044871Y011799D03*
M02*
