G75*
G70*
%OFA0B0*%
%FSLAX24Y24*%
%IPPOS*%
%LPD*%
%AMOC8*
5,1,8,0,0,1.08239X$1,22.5*
%
%ADD10R,0.0533X0.0198*%
%ADD11R,0.0198X0.0533*%
%ADD12R,0.1320X0.1320*%
%ADD13OC8,0.0620*%
%ADD14C,0.0680*%
%ADD15R,0.0710X0.0867*%
%ADD16R,0.0493X0.0505*%
%ADD17R,0.0505X0.0493*%
%ADD18C,0.1261*%
%ADD19R,0.0474X0.0513*%
%ADD20R,0.0513X0.0474*%
%ADD21R,0.0474X0.0434*%
%ADD22R,0.0513X0.0434*%
%ADD23C,0.1104*%
%ADD24OC8,0.0580*%
%ADD25C,0.0580*%
%ADD26C,0.0350*%
D10*
X020766Y014218D03*
X020766Y014415D03*
X020766Y014612D03*
X020766Y014809D03*
X020766Y015006D03*
X020766Y015203D03*
X020766Y015399D03*
X022656Y015399D03*
X022656Y015203D03*
X022656Y015006D03*
X022656Y014809D03*
X022656Y014612D03*
X022656Y014415D03*
X022656Y014218D03*
X027266Y014218D03*
X027266Y014415D03*
X027266Y014612D03*
X027266Y014809D03*
X027266Y015006D03*
X027266Y015203D03*
X027266Y015399D03*
X029156Y015399D03*
X029156Y015203D03*
X029156Y015006D03*
X029156Y014809D03*
X029156Y014612D03*
X029156Y014415D03*
X029156Y014218D03*
X033766Y014218D03*
X033766Y014415D03*
X033766Y014612D03*
X033766Y014809D03*
X033766Y015006D03*
X033766Y015203D03*
X033766Y015399D03*
X035656Y015399D03*
X035656Y015203D03*
X035656Y015006D03*
X035656Y014809D03*
X035656Y014612D03*
X035656Y014415D03*
X035656Y014218D03*
X040266Y014218D03*
X040266Y014415D03*
X040266Y014612D03*
X040266Y014809D03*
X040266Y015006D03*
X040266Y015203D03*
X040266Y015399D03*
X042156Y015399D03*
X042156Y015203D03*
X042156Y015006D03*
X042156Y014809D03*
X042156Y014612D03*
X042156Y014415D03*
X042156Y014218D03*
X046766Y014218D03*
X046766Y014415D03*
X046766Y014612D03*
X046766Y014809D03*
X046766Y015006D03*
X046766Y015203D03*
X046766Y015399D03*
X048656Y015399D03*
X048656Y015203D03*
X048656Y015006D03*
X048656Y014809D03*
X048656Y014612D03*
X048656Y014415D03*
X048656Y014218D03*
D11*
X048302Y013864D03*
X048105Y013864D03*
X047908Y013864D03*
X047711Y013864D03*
X047514Y013864D03*
X047317Y013864D03*
X047120Y013864D03*
X047120Y015754D03*
X047317Y015754D03*
X047514Y015754D03*
X047711Y015754D03*
X047908Y015754D03*
X048105Y015754D03*
X048302Y015754D03*
X041802Y015754D03*
X041605Y015754D03*
X041408Y015754D03*
X041211Y015754D03*
X041014Y015754D03*
X040817Y015754D03*
X040620Y015754D03*
X040620Y013864D03*
X040817Y013864D03*
X041014Y013864D03*
X041211Y013864D03*
X041408Y013864D03*
X041605Y013864D03*
X041802Y013864D03*
X035302Y013864D03*
X035105Y013864D03*
X034908Y013864D03*
X034711Y013864D03*
X034514Y013864D03*
X034317Y013864D03*
X034120Y013864D03*
X034120Y015754D03*
X034317Y015754D03*
X034514Y015754D03*
X034711Y015754D03*
X034908Y015754D03*
X035105Y015754D03*
X035302Y015754D03*
X028802Y015754D03*
X028605Y015754D03*
X028408Y015754D03*
X028211Y015754D03*
X028014Y015754D03*
X027817Y015754D03*
X027620Y015754D03*
X027620Y013864D03*
X027817Y013864D03*
X028014Y013864D03*
X028211Y013864D03*
X028408Y013864D03*
X028605Y013864D03*
X028802Y013864D03*
X022302Y013864D03*
X022105Y013864D03*
X021908Y013864D03*
X021711Y013864D03*
X021514Y013864D03*
X021317Y013864D03*
X021120Y013864D03*
X021120Y015754D03*
X021317Y015754D03*
X021514Y015754D03*
X021711Y015754D03*
X021908Y015754D03*
X022105Y015754D03*
X022302Y015754D03*
D12*
X021711Y014809D03*
X028211Y014809D03*
X034711Y014809D03*
X041211Y014809D03*
X047711Y014809D03*
D13*
X047711Y011309D03*
X046711Y011309D03*
X046711Y010309D03*
X047711Y010309D03*
X048711Y010309D03*
X048711Y011309D03*
X042211Y011309D03*
X041211Y011309D03*
X040211Y011309D03*
X040211Y010309D03*
X041211Y010309D03*
X042211Y010309D03*
X035711Y010309D03*
X034711Y010309D03*
X033711Y010309D03*
X033711Y011309D03*
X034711Y011309D03*
X035711Y011309D03*
X029211Y011309D03*
X028211Y011309D03*
X027211Y011309D03*
X027211Y010309D03*
X028211Y010309D03*
X029211Y010309D03*
X022711Y010309D03*
X021711Y010309D03*
X020711Y010309D03*
X020711Y011309D03*
X021711Y011309D03*
X022711Y011309D03*
D14*
X022211Y018509D02*
X022211Y019109D01*
X023211Y019109D02*
X023211Y018509D01*
X021211Y018509D02*
X021211Y019109D01*
X020211Y019109D02*
X020211Y018509D01*
X026711Y018509D02*
X026711Y019109D01*
X027711Y019109D02*
X027711Y018509D01*
X028711Y018509D02*
X028711Y019109D01*
X029711Y019109D02*
X029711Y018509D01*
X033211Y018509D02*
X033211Y019109D01*
X034211Y019109D02*
X034211Y018509D01*
X035211Y018509D02*
X035211Y019109D01*
X036211Y019109D02*
X036211Y018509D01*
X039711Y018509D02*
X039711Y019109D01*
X040711Y019109D02*
X040711Y018509D01*
X041711Y018509D02*
X041711Y019109D01*
X042711Y019109D02*
X042711Y018509D01*
X046211Y018809D02*
X046211Y019409D01*
X047211Y019409D02*
X047211Y018809D01*
X048211Y018809D02*
X048211Y019409D01*
X049211Y019409D02*
X049211Y018809D01*
D15*
X048660Y017209D03*
X049762Y017209D03*
X046762Y017209D03*
X045660Y017209D03*
D16*
X045867Y015909D03*
X046556Y015909D03*
X048867Y015809D03*
X049556Y015809D03*
X045706Y013179D03*
X045017Y013179D03*
X048667Y012909D03*
X049356Y012909D03*
X039856Y015909D03*
X039167Y015909D03*
X026156Y015209D03*
X025467Y015209D03*
X019756Y015309D03*
X019067Y015309D03*
X024367Y010209D03*
X025056Y010209D03*
D17*
X032511Y014964D03*
X032511Y015653D03*
X045131Y014683D03*
X045711Y014403D03*
X045131Y013994D03*
X045711Y013714D03*
D18*
X001711Y001809D03*
X005211Y001809D03*
X016461Y011309D03*
X053211Y011309D03*
D19*
X049456Y013729D03*
X048786Y013729D03*
X047116Y013069D03*
X046446Y013069D03*
X047436Y012289D03*
X048106Y012289D03*
X045046Y015209D03*
X044376Y015209D03*
D20*
X050311Y014443D03*
X050311Y013774D03*
D21*
X050076Y014938D03*
X050746Y014938D03*
D22*
X050411Y016080D03*
D23*
X052799Y016409D02*
X053823Y016409D01*
X053823Y018409D02*
X052799Y018409D01*
X052799Y020409D02*
X053823Y020409D01*
X053823Y014409D02*
X052799Y014409D01*
D24*
X044911Y018909D03*
D25*
X044111Y018909D03*
D26*
X045301Y017889D03*
X045081Y017619D03*
X045661Y017899D03*
X045051Y017239D03*
X045051Y016899D03*
X044191Y016319D03*
X044271Y015759D03*
X045051Y015659D03*
X045421Y015659D03*
X045531Y015379D03*
X045831Y015379D03*
X045931Y015079D03*
X045631Y015079D03*
X046211Y015309D03*
X047231Y015279D03*
X047531Y015279D03*
X047831Y015269D03*
X047861Y014969D03*
X047561Y014969D03*
X047251Y014969D03*
X047251Y014699D03*
X047571Y014689D03*
X047881Y014659D03*
X047881Y014359D03*
X047581Y014359D03*
X047231Y014369D03*
X048191Y014349D03*
X048191Y014659D03*
X048161Y014959D03*
X048151Y015269D03*
X049331Y014929D03*
X049671Y014999D03*
X049611Y014699D03*
X050771Y014399D03*
X050861Y015619D03*
X050471Y015639D03*
X050071Y015599D03*
X050971Y016099D03*
X050791Y016519D03*
X050391Y016619D03*
X050371Y016899D03*
X050371Y017259D03*
X050651Y017219D03*
X050791Y017009D03*
X050071Y016499D03*
X049671Y016399D03*
X048911Y016589D03*
X048821Y016259D03*
X046771Y016529D03*
X046671Y016339D03*
X049741Y017909D03*
X050071Y017909D03*
X050361Y017669D03*
X050771Y017799D03*
X050331Y013189D03*
X050271Y012899D03*
X049971Y012999D03*
X049581Y012339D03*
X049581Y011839D03*
X050541Y011549D03*
X050531Y010489D03*
X045771Y010399D03*
X045271Y010399D03*
X044871Y010699D03*
X045771Y011199D03*
X045271Y011499D03*
X044871Y011799D03*
M02*
