G75*
G70*
%OFA0B0*%
%FSLAX24Y24*%
%IPPOS*%
%LPD*%
%AMOC8*
5,1,8,0,0,1.08239X$1,22.5*
%
%ADD10C,0.0000*%
%ADD11C,0.0050*%
%ADD12C,0.0020*%
%ADD13C,0.0070*%
%ADD14C,0.0040*%
%ADD15C,0.0100*%
%ADD16C,0.0030*%
%ADD17C,0.0060*%
%ADD18C,0.0080*%
D10*
X001120Y001809D02*
X001122Y001857D01*
X001128Y001905D01*
X001138Y001952D01*
X001151Y001998D01*
X001169Y002043D01*
X001189Y002087D01*
X001214Y002129D01*
X001242Y002168D01*
X001272Y002205D01*
X001306Y002239D01*
X001343Y002271D01*
X001381Y002300D01*
X001422Y002325D01*
X001465Y002347D01*
X001510Y002365D01*
X001556Y002379D01*
X001603Y002390D01*
X001651Y002397D01*
X001699Y002400D01*
X001747Y002399D01*
X001795Y002394D01*
X001843Y002385D01*
X001889Y002373D01*
X001934Y002356D01*
X001978Y002336D01*
X002020Y002313D01*
X002060Y002286D01*
X002098Y002256D01*
X002133Y002223D01*
X002165Y002187D01*
X002195Y002149D01*
X002221Y002108D01*
X002243Y002065D01*
X002263Y002021D01*
X002278Y001976D01*
X002290Y001929D01*
X002298Y001881D01*
X002302Y001833D01*
X002302Y001785D01*
X002298Y001737D01*
X002290Y001689D01*
X002278Y001642D01*
X002263Y001597D01*
X002243Y001553D01*
X002221Y001510D01*
X002195Y001469D01*
X002165Y001431D01*
X002133Y001395D01*
X002098Y001362D01*
X002060Y001332D01*
X002020Y001305D01*
X001978Y001282D01*
X001934Y001262D01*
X001889Y001245D01*
X001843Y001233D01*
X001795Y001224D01*
X001747Y001219D01*
X001699Y001218D01*
X001651Y001221D01*
X001603Y001228D01*
X001556Y001239D01*
X001510Y001253D01*
X001465Y001271D01*
X001422Y001293D01*
X001381Y001318D01*
X001343Y001347D01*
X001306Y001379D01*
X001272Y001413D01*
X001242Y001450D01*
X001214Y001489D01*
X001189Y001531D01*
X001169Y001575D01*
X001151Y001620D01*
X001138Y001666D01*
X001128Y001713D01*
X001122Y001761D01*
X001120Y001809D01*
X004620Y001809D02*
X004622Y001857D01*
X004628Y001905D01*
X004638Y001952D01*
X004651Y001998D01*
X004669Y002043D01*
X004689Y002087D01*
X004714Y002129D01*
X004742Y002168D01*
X004772Y002205D01*
X004806Y002239D01*
X004843Y002271D01*
X004881Y002300D01*
X004922Y002325D01*
X004965Y002347D01*
X005010Y002365D01*
X005056Y002379D01*
X005103Y002390D01*
X005151Y002397D01*
X005199Y002400D01*
X005247Y002399D01*
X005295Y002394D01*
X005343Y002385D01*
X005389Y002373D01*
X005434Y002356D01*
X005478Y002336D01*
X005520Y002313D01*
X005560Y002286D01*
X005598Y002256D01*
X005633Y002223D01*
X005665Y002187D01*
X005695Y002149D01*
X005721Y002108D01*
X005743Y002065D01*
X005763Y002021D01*
X005778Y001976D01*
X005790Y001929D01*
X005798Y001881D01*
X005802Y001833D01*
X005802Y001785D01*
X005798Y001737D01*
X005790Y001689D01*
X005778Y001642D01*
X005763Y001597D01*
X005743Y001553D01*
X005721Y001510D01*
X005695Y001469D01*
X005665Y001431D01*
X005633Y001395D01*
X005598Y001362D01*
X005560Y001332D01*
X005520Y001305D01*
X005478Y001282D01*
X005434Y001262D01*
X005389Y001245D01*
X005343Y001233D01*
X005295Y001224D01*
X005247Y001219D01*
X005199Y001218D01*
X005151Y001221D01*
X005103Y001228D01*
X005056Y001239D01*
X005010Y001253D01*
X004965Y001271D01*
X004922Y001293D01*
X004881Y001318D01*
X004843Y001347D01*
X004806Y001379D01*
X004772Y001413D01*
X004742Y001450D01*
X004714Y001489D01*
X004689Y001531D01*
X004669Y001575D01*
X004651Y001620D01*
X004638Y001666D01*
X004628Y001713D01*
X004622Y001761D01*
X004620Y001809D01*
X014211Y008809D02*
X014211Y022505D01*
X055211Y022509D01*
X055211Y008809D01*
X014211Y008809D01*
X015870Y011309D02*
X015872Y011357D01*
X015878Y011405D01*
X015888Y011452D01*
X015901Y011498D01*
X015919Y011543D01*
X015939Y011587D01*
X015964Y011629D01*
X015992Y011668D01*
X016022Y011705D01*
X016056Y011739D01*
X016093Y011771D01*
X016131Y011800D01*
X016172Y011825D01*
X016215Y011847D01*
X016260Y011865D01*
X016306Y011879D01*
X016353Y011890D01*
X016401Y011897D01*
X016449Y011900D01*
X016497Y011899D01*
X016545Y011894D01*
X016593Y011885D01*
X016639Y011873D01*
X016684Y011856D01*
X016728Y011836D01*
X016770Y011813D01*
X016810Y011786D01*
X016848Y011756D01*
X016883Y011723D01*
X016915Y011687D01*
X016945Y011649D01*
X016971Y011608D01*
X016993Y011565D01*
X017013Y011521D01*
X017028Y011476D01*
X017040Y011429D01*
X017048Y011381D01*
X017052Y011333D01*
X017052Y011285D01*
X017048Y011237D01*
X017040Y011189D01*
X017028Y011142D01*
X017013Y011097D01*
X016993Y011053D01*
X016971Y011010D01*
X016945Y010969D01*
X016915Y010931D01*
X016883Y010895D01*
X016848Y010862D01*
X016810Y010832D01*
X016770Y010805D01*
X016728Y010782D01*
X016684Y010762D01*
X016639Y010745D01*
X016593Y010733D01*
X016545Y010724D01*
X016497Y010719D01*
X016449Y010718D01*
X016401Y010721D01*
X016353Y010728D01*
X016306Y010739D01*
X016260Y010753D01*
X016215Y010771D01*
X016172Y010793D01*
X016131Y010818D01*
X016093Y010847D01*
X016056Y010879D01*
X016022Y010913D01*
X015992Y010950D01*
X015964Y010989D01*
X015939Y011031D01*
X015919Y011075D01*
X015901Y011120D01*
X015888Y011166D01*
X015878Y011213D01*
X015872Y011261D01*
X015870Y011309D01*
X052620Y011309D02*
X052622Y011357D01*
X052628Y011405D01*
X052638Y011452D01*
X052651Y011498D01*
X052669Y011543D01*
X052689Y011587D01*
X052714Y011629D01*
X052742Y011668D01*
X052772Y011705D01*
X052806Y011739D01*
X052843Y011771D01*
X052881Y011800D01*
X052922Y011825D01*
X052965Y011847D01*
X053010Y011865D01*
X053056Y011879D01*
X053103Y011890D01*
X053151Y011897D01*
X053199Y011900D01*
X053247Y011899D01*
X053295Y011894D01*
X053343Y011885D01*
X053389Y011873D01*
X053434Y011856D01*
X053478Y011836D01*
X053520Y011813D01*
X053560Y011786D01*
X053598Y011756D01*
X053633Y011723D01*
X053665Y011687D01*
X053695Y011649D01*
X053721Y011608D01*
X053743Y011565D01*
X053763Y011521D01*
X053778Y011476D01*
X053790Y011429D01*
X053798Y011381D01*
X053802Y011333D01*
X053802Y011285D01*
X053798Y011237D01*
X053790Y011189D01*
X053778Y011142D01*
X053763Y011097D01*
X053743Y011053D01*
X053721Y011010D01*
X053695Y010969D01*
X053665Y010931D01*
X053633Y010895D01*
X053598Y010862D01*
X053560Y010832D01*
X053520Y010805D01*
X053478Y010782D01*
X053434Y010762D01*
X053389Y010745D01*
X053343Y010733D01*
X053295Y010724D01*
X053247Y010719D01*
X053199Y010718D01*
X053151Y010721D01*
X053103Y010728D01*
X053056Y010739D01*
X053010Y010753D01*
X052965Y010771D01*
X052922Y010793D01*
X052881Y010818D01*
X052843Y010847D01*
X052806Y010879D01*
X052772Y010913D01*
X052742Y010950D01*
X052714Y010989D01*
X052689Y011031D01*
X052669Y011075D01*
X052651Y011120D01*
X052638Y011166D01*
X052628Y011213D01*
X052622Y011261D01*
X052620Y011309D01*
D11*
X050711Y012559D02*
X050211Y012559D01*
X050211Y012659D01*
X049711Y012659D01*
X049711Y012559D01*
X047961Y012559D01*
X047961Y012659D01*
X047461Y012659D01*
X047461Y012559D01*
X045711Y012559D01*
X045711Y012659D01*
X045211Y012659D01*
X045211Y012559D01*
X044711Y012559D01*
X044711Y009059D01*
X046211Y009059D01*
X046211Y009109D01*
X046711Y009109D01*
X046711Y009059D01*
X046911Y009059D01*
X046911Y009459D01*
X046911Y009559D01*
X045211Y009559D01*
X045211Y012059D01*
X050211Y012059D01*
X050211Y009559D01*
X048511Y009559D01*
X048511Y009459D01*
X048511Y009059D01*
X046911Y009059D01*
X046911Y009559D02*
X046911Y009859D01*
X048511Y009859D01*
X048511Y009559D01*
X047886Y009684D02*
X047736Y009609D01*
X047586Y009459D01*
X047811Y009459D01*
X047886Y009384D01*
X047886Y009309D01*
X047811Y009234D01*
X047661Y009234D01*
X047586Y009309D01*
X047586Y009459D01*
X048511Y009059D02*
X050711Y009059D01*
X050711Y012559D01*
X046036Y011459D02*
X046036Y011384D01*
X045736Y011084D01*
X046036Y011084D01*
X046036Y011459D02*
X045961Y011534D01*
X045811Y011534D01*
X045736Y011459D01*
X043711Y012059D02*
X043711Y009559D01*
X042011Y009559D01*
X042011Y009459D01*
X042011Y009059D01*
X040411Y009059D01*
X040211Y009059D01*
X040211Y009109D01*
X039711Y009109D01*
X039711Y009059D01*
X038211Y009059D01*
X038211Y012559D01*
X038711Y012559D01*
X038711Y012659D01*
X039211Y012659D01*
X039211Y012559D01*
X040961Y012559D01*
X040961Y012659D01*
X041461Y012659D01*
X041461Y012559D01*
X043211Y012559D01*
X043211Y012659D01*
X043711Y012659D01*
X043711Y012559D01*
X044211Y012559D01*
X044211Y009059D01*
X042011Y009059D01*
X041386Y009309D02*
X041386Y009384D01*
X041311Y009459D01*
X041086Y009459D01*
X041086Y009309D01*
X041161Y009234D01*
X041311Y009234D01*
X041386Y009309D01*
X041236Y009609D02*
X041086Y009459D01*
X041236Y009609D02*
X041386Y009684D01*
X042011Y009559D02*
X042011Y009859D01*
X040411Y009859D01*
X040411Y009559D01*
X040411Y009459D01*
X040411Y009059D01*
X040411Y009559D02*
X038711Y009559D01*
X038711Y012059D01*
X043711Y012059D01*
X045736Y010384D02*
X045886Y010534D01*
X045886Y010084D01*
X045736Y010084D02*
X046036Y010084D01*
X039536Y010084D02*
X039236Y010084D01*
X039386Y010084D02*
X039386Y010534D01*
X039236Y010384D01*
X039236Y011084D02*
X039536Y011384D01*
X039536Y011459D01*
X039461Y011534D01*
X039311Y011534D01*
X039236Y011459D01*
X039236Y011084D02*
X039536Y011084D01*
X037211Y012059D02*
X037211Y009559D01*
X035511Y009559D01*
X035511Y009459D01*
X035511Y009059D01*
X033911Y009059D01*
X033711Y009059D01*
X033711Y009109D01*
X033211Y009109D01*
X033211Y009059D01*
X031711Y009059D01*
X031711Y012559D01*
X032211Y012559D01*
X032211Y012659D01*
X032711Y012659D01*
X032711Y012559D01*
X034461Y012559D01*
X034461Y012659D01*
X034961Y012659D01*
X034961Y012559D01*
X036711Y012559D01*
X036711Y012659D01*
X037211Y012659D01*
X037211Y012559D01*
X037711Y012559D01*
X037711Y009059D01*
X035511Y009059D01*
X034886Y009309D02*
X034886Y009384D01*
X034811Y009459D01*
X034586Y009459D01*
X034586Y009309D01*
X034661Y009234D01*
X034811Y009234D01*
X034886Y009309D01*
X034736Y009609D02*
X034586Y009459D01*
X034736Y009609D02*
X034886Y009684D01*
X035511Y009559D02*
X035511Y009859D01*
X033911Y009859D01*
X033911Y009559D01*
X033911Y009459D01*
X033911Y009059D01*
X033911Y009559D02*
X032211Y009559D01*
X032211Y012059D01*
X037211Y012059D01*
X033036Y011459D02*
X033036Y011384D01*
X032736Y011084D01*
X033036Y011084D01*
X033036Y011459D02*
X032961Y011534D01*
X032811Y011534D01*
X032736Y011459D01*
X032886Y010534D02*
X032886Y010084D01*
X032736Y010084D02*
X033036Y010084D01*
X032736Y010384D02*
X032886Y010534D01*
X030711Y009559D02*
X029011Y009559D01*
X029011Y009459D01*
X029011Y009059D01*
X027411Y009059D01*
X027211Y009059D01*
X027211Y009109D01*
X026711Y009109D01*
X026711Y009059D01*
X025211Y009059D01*
X025211Y012559D01*
X025711Y012559D01*
X025711Y012659D01*
X026211Y012659D01*
X026211Y012559D01*
X027961Y012559D01*
X027961Y012659D01*
X028461Y012659D01*
X028461Y012559D01*
X030211Y012559D01*
X030211Y012659D01*
X030711Y012659D01*
X030711Y012559D01*
X031211Y012559D01*
X031211Y009059D01*
X029011Y009059D01*
X028386Y009309D02*
X028386Y009384D01*
X028311Y009459D01*
X028086Y009459D01*
X028086Y009309D01*
X028161Y009234D01*
X028311Y009234D01*
X028386Y009309D01*
X028236Y009609D02*
X028086Y009459D01*
X028236Y009609D02*
X028386Y009684D01*
X029011Y009559D02*
X029011Y009859D01*
X027411Y009859D01*
X027411Y009559D01*
X027411Y009459D01*
X027411Y009059D01*
X027411Y009559D02*
X025711Y009559D01*
X025711Y012059D01*
X030711Y012059D01*
X030711Y009559D01*
X026536Y010084D02*
X026236Y010084D01*
X026386Y010084D02*
X026386Y010534D01*
X026236Y010384D01*
X026236Y011084D02*
X026536Y011384D01*
X026536Y011459D01*
X026461Y011534D01*
X026311Y011534D01*
X026236Y011459D01*
X026236Y011084D02*
X026536Y011084D01*
X024211Y012059D02*
X024211Y009559D01*
X022511Y009559D01*
X022511Y009459D01*
X022511Y009059D01*
X020911Y009059D01*
X020711Y009059D01*
X020711Y009109D01*
X020211Y009109D01*
X020211Y009059D01*
X018711Y009059D01*
X018711Y012559D01*
X019211Y012559D01*
X019211Y012659D01*
X019711Y012659D01*
X019711Y012559D01*
X021461Y012559D01*
X021461Y012659D01*
X021961Y012659D01*
X021961Y012559D01*
X023711Y012559D01*
X023711Y012659D01*
X024211Y012659D01*
X024211Y012559D01*
X024711Y012559D01*
X024711Y009059D01*
X022511Y009059D01*
X021886Y009309D02*
X021886Y009384D01*
X021811Y009459D01*
X021586Y009459D01*
X021586Y009309D01*
X021661Y009234D01*
X021811Y009234D01*
X021886Y009309D01*
X021736Y009609D02*
X021586Y009459D01*
X021736Y009609D02*
X021886Y009684D01*
X022511Y009559D02*
X022511Y009859D01*
X020911Y009859D01*
X020911Y009559D01*
X020911Y009459D01*
X020911Y009059D01*
X020911Y009559D02*
X019211Y009559D01*
X019211Y012059D01*
X024211Y012059D01*
X020036Y011459D02*
X020036Y011384D01*
X019736Y011084D01*
X020036Y011084D01*
X020036Y011459D02*
X019961Y011534D01*
X019811Y011534D01*
X019736Y011459D01*
X019886Y010534D02*
X019886Y010084D01*
X019736Y010084D02*
X020036Y010084D01*
X019736Y010384D02*
X019886Y010534D01*
X019711Y017659D02*
X020661Y017659D01*
X020211Y019809D02*
X020211Y019959D01*
X020311Y019959D01*
X026211Y017659D02*
X027161Y017659D01*
X026711Y019809D02*
X026711Y019959D01*
X026811Y019959D01*
X032711Y017659D02*
X033661Y017659D01*
X033211Y019809D02*
X033211Y019959D01*
X033311Y019959D01*
X039211Y017659D02*
X040161Y017659D01*
X039711Y019809D02*
X039711Y019959D01*
X039811Y019959D01*
X045536Y019709D02*
X045536Y019409D01*
X045611Y019334D01*
X045761Y019334D01*
X045836Y019409D01*
X045996Y019334D02*
X046297Y019334D01*
X046146Y019334D02*
X046146Y019784D01*
X045996Y019634D01*
X045836Y019709D02*
X045761Y019784D01*
X045611Y019784D01*
X045536Y019709D01*
X046457Y019709D02*
X046532Y019784D01*
X046682Y019784D01*
X046757Y019709D01*
X046757Y019634D01*
X046457Y019334D01*
X046757Y019334D01*
X046211Y020109D02*
X046211Y020259D01*
X046311Y020259D01*
X046661Y017959D02*
X045711Y017959D01*
X049820Y016099D02*
X049820Y014918D01*
X051002Y014918D01*
X051002Y016099D01*
X049820Y016099D01*
D12*
X050311Y012159D02*
X045111Y012159D01*
X045111Y009459D01*
X046911Y009459D01*
X048511Y009459D02*
X050311Y009459D01*
X050311Y012159D01*
X043811Y012159D02*
X038611Y012159D01*
X038611Y009459D01*
X040411Y009459D01*
X042011Y009459D02*
X043811Y009459D01*
X043811Y012159D01*
X037311Y012159D02*
X037311Y009459D01*
X035511Y009459D01*
X033911Y009459D02*
X032111Y009459D01*
X032111Y012159D01*
X037311Y012159D01*
X030811Y012159D02*
X030811Y009459D01*
X029011Y009459D01*
X027411Y009459D02*
X025611Y009459D01*
X025611Y012159D01*
X030811Y012159D01*
X024311Y012159D02*
X024311Y009459D01*
X022511Y009459D01*
X020911Y009459D02*
X019111Y009459D01*
X019111Y012159D01*
X024311Y012159D01*
D13*
X025246Y012949D02*
X025351Y012844D01*
X025561Y012844D01*
X025666Y012949D01*
X025666Y013054D01*
X025561Y013159D01*
X025351Y013159D01*
X025246Y013264D01*
X025246Y013369D01*
X025351Y013474D01*
X025561Y013474D01*
X025666Y013369D01*
X025891Y013474D02*
X025891Y013054D01*
X026101Y012844D01*
X026311Y013054D01*
X026311Y013474D01*
X026535Y013474D02*
X026535Y013159D01*
X026745Y013264D01*
X026850Y013264D01*
X026955Y013159D01*
X026955Y012949D01*
X026850Y012844D01*
X026640Y012844D01*
X026535Y012949D01*
X026535Y013474D02*
X026955Y013474D01*
X031746Y013369D02*
X031746Y013264D01*
X031851Y013159D01*
X032061Y013159D01*
X032166Y013054D01*
X032166Y012949D01*
X032061Y012844D01*
X031851Y012844D01*
X031746Y012949D01*
X032391Y013054D02*
X032601Y012844D01*
X032811Y013054D01*
X032811Y013474D01*
X033035Y013159D02*
X033455Y013159D01*
X033350Y012844D02*
X033350Y013474D01*
X033035Y013159D01*
X032391Y013054D02*
X032391Y013474D01*
X032166Y013369D02*
X032061Y013474D01*
X031851Y013474D01*
X031746Y013369D01*
X038246Y013369D02*
X038246Y013264D01*
X038351Y013159D01*
X038561Y013159D01*
X038666Y013054D01*
X038666Y012949D01*
X038561Y012844D01*
X038351Y012844D01*
X038246Y012949D01*
X038891Y013054D02*
X039101Y012844D01*
X039311Y013054D01*
X039311Y013474D01*
X039535Y013369D02*
X039640Y013474D01*
X039850Y013474D01*
X039955Y013369D01*
X039955Y013264D01*
X039850Y013159D01*
X039955Y013054D01*
X039955Y012949D01*
X039850Y012844D01*
X039640Y012844D01*
X039535Y012949D01*
X039745Y013159D02*
X039850Y013159D01*
X038891Y013054D02*
X038891Y013474D01*
X038666Y013369D02*
X038561Y013474D01*
X038351Y013474D01*
X038246Y013369D01*
X044746Y013369D02*
X044746Y013264D01*
X044851Y013159D01*
X045061Y013159D01*
X045166Y013054D01*
X045166Y012949D01*
X045061Y012844D01*
X044851Y012844D01*
X044746Y012949D01*
X044746Y013369D02*
X044851Y013474D01*
X045061Y013474D01*
X045166Y013369D01*
X045391Y013474D02*
X045391Y013054D01*
X045601Y012844D01*
X045811Y013054D01*
X045811Y013474D01*
X046035Y013369D02*
X046140Y013474D01*
X046350Y013474D01*
X046455Y013369D01*
X046455Y013264D01*
X046035Y012844D01*
X046455Y012844D01*
X043772Y018553D02*
X043485Y018553D01*
X043629Y018553D02*
X043629Y018984D01*
X043485Y018840D01*
X045285Y019088D02*
X045572Y019088D01*
X045501Y018873D02*
X045501Y019304D01*
X045285Y019088D01*
X049985Y019140D02*
X050129Y019284D01*
X050129Y018853D01*
X050272Y018853D02*
X049985Y018853D01*
X039072Y018788D02*
X038785Y018788D01*
X039001Y019004D01*
X039001Y018573D01*
X037272Y018553D02*
X036985Y018553D01*
X037129Y018553D02*
X037129Y018984D01*
X036985Y018840D01*
X032572Y018788D02*
X032285Y018788D01*
X032501Y019004D01*
X032501Y018573D01*
X030772Y018553D02*
X030485Y018553D01*
X030629Y018553D02*
X030629Y018984D01*
X030485Y018840D01*
X026072Y018788D02*
X025785Y018788D01*
X026001Y019004D01*
X026001Y018573D01*
X024272Y018553D02*
X023985Y018553D01*
X024129Y018553D02*
X024129Y018984D01*
X023985Y018840D01*
X019572Y018788D02*
X019285Y018788D01*
X019501Y019004D01*
X019501Y018573D01*
X019391Y013474D02*
X019391Y013054D01*
X019601Y012844D01*
X019811Y013054D01*
X019811Y013474D01*
X020035Y013159D02*
X020350Y013159D01*
X020455Y013054D01*
X020455Y012949D01*
X020350Y012844D01*
X020140Y012844D01*
X020035Y012949D01*
X020035Y013159D01*
X020245Y013369D01*
X020455Y013474D01*
X019166Y013369D02*
X019061Y013474D01*
X018851Y013474D01*
X018746Y013369D01*
X018746Y013264D01*
X018851Y013159D01*
X019061Y013159D01*
X019166Y013054D01*
X019166Y012949D01*
X019061Y012844D01*
X018851Y012844D01*
X018746Y012949D01*
D14*
X019802Y020118D02*
X019862Y020118D01*
X019922Y020178D01*
X019922Y020479D01*
X019862Y020479D02*
X019982Y020479D01*
X020110Y020479D02*
X020110Y020298D01*
X020230Y020358D01*
X020290Y020358D01*
X020350Y020298D01*
X020350Y020178D01*
X020290Y020118D01*
X020170Y020118D01*
X020110Y020178D01*
X020110Y020479D02*
X020350Y020479D01*
X019802Y020118D02*
X019742Y020178D01*
X026242Y020178D02*
X026302Y020118D01*
X026362Y020118D01*
X026422Y020178D01*
X026422Y020479D01*
X026362Y020479D02*
X026482Y020479D01*
X026610Y020298D02*
X026850Y020298D01*
X026790Y020118D02*
X026790Y020479D01*
X026610Y020298D01*
X032742Y020178D02*
X032802Y020118D01*
X032862Y020118D01*
X032922Y020178D01*
X032922Y020479D01*
X032862Y020479D02*
X032982Y020479D01*
X033110Y020418D02*
X033170Y020479D01*
X033290Y020479D01*
X033350Y020418D01*
X033350Y020358D01*
X033290Y020298D01*
X033350Y020238D01*
X033350Y020178D01*
X033290Y020118D01*
X033170Y020118D01*
X033110Y020178D01*
X033230Y020298D02*
X033290Y020298D01*
X039242Y020178D02*
X039302Y020118D01*
X039362Y020118D01*
X039422Y020178D01*
X039422Y020479D01*
X039362Y020479D02*
X039482Y020479D01*
X039610Y020418D02*
X039670Y020479D01*
X039790Y020479D01*
X039850Y020418D01*
X039850Y020358D01*
X039610Y020118D01*
X039850Y020118D01*
X045742Y020478D02*
X045802Y020418D01*
X045862Y020418D01*
X045922Y020478D01*
X045922Y020779D01*
X045862Y020779D02*
X045982Y020779D01*
X046110Y020658D02*
X046230Y020779D01*
X046230Y020418D01*
X046110Y020418D02*
X046350Y020418D01*
X048731Y018189D02*
X048961Y018189D01*
X049038Y018112D01*
X049038Y017959D01*
X048961Y017882D01*
X048731Y017882D01*
X048731Y017729D02*
X048731Y018189D01*
X048884Y017882D02*
X049038Y017729D01*
X049191Y017729D02*
X049498Y017729D01*
X049345Y017729D02*
X049345Y018189D01*
X049191Y018036D01*
X046578Y016612D02*
X046501Y016689D01*
X046347Y016689D01*
X046271Y016612D01*
X046117Y016612D02*
X046117Y016459D01*
X046040Y016382D01*
X045810Y016382D01*
X045810Y016229D02*
X045810Y016689D01*
X046040Y016689D01*
X046117Y016612D01*
X045964Y016382D02*
X046117Y016229D01*
X046271Y016229D02*
X046578Y016536D01*
X046578Y016612D01*
X046578Y016229D02*
X046271Y016229D01*
X044828Y014939D02*
X044521Y014939D01*
X044521Y014709D01*
X044674Y014786D01*
X044751Y014786D01*
X044828Y014709D01*
X044828Y014556D01*
X044751Y014479D01*
X044597Y014479D01*
X044521Y014556D01*
X044367Y014479D02*
X044214Y014632D01*
X044290Y014632D02*
X044060Y014632D01*
X044060Y014479D02*
X044060Y014939D01*
X044290Y014939D01*
X044367Y014862D01*
X044367Y014709D01*
X044290Y014632D01*
X046551Y013799D02*
X046781Y013799D01*
X046858Y013722D01*
X046858Y013569D01*
X046781Y013492D01*
X046551Y013492D01*
X046551Y013339D02*
X046551Y013799D01*
X047011Y013569D02*
X047318Y013569D01*
X047242Y013339D02*
X047242Y013799D01*
X047011Y013569D01*
X046858Y013339D02*
X046704Y013492D01*
X047541Y013019D02*
X047771Y013019D01*
X047848Y012942D01*
X047848Y012789D01*
X047771Y012712D01*
X047541Y012712D01*
X047541Y012559D02*
X047541Y013019D01*
X047694Y012712D02*
X047848Y012559D01*
X048001Y012636D02*
X048078Y012559D01*
X048232Y012559D01*
X048308Y012636D01*
X048308Y012712D01*
X048232Y012789D01*
X048001Y012789D01*
X048001Y012636D01*
X048001Y012789D02*
X048155Y012942D01*
X048308Y013019D01*
X048470Y012999D02*
X048470Y013459D01*
X048700Y013459D01*
X048777Y013382D01*
X048777Y013229D01*
X048700Y013152D01*
X048470Y013152D01*
X048624Y013152D02*
X048777Y012999D01*
X048931Y013076D02*
X049007Y012999D01*
X049161Y012999D01*
X049238Y013076D01*
X049238Y013152D01*
X049161Y013229D01*
X049084Y013229D01*
X049161Y013229D02*
X049238Y013306D01*
X049238Y013382D01*
X049161Y013459D01*
X049007Y013459D01*
X048931Y013382D01*
X050581Y013535D02*
X050581Y013688D01*
X050657Y013765D01*
X050964Y013458D01*
X051041Y013535D01*
X051041Y013688D01*
X050964Y013765D01*
X050657Y013765D01*
X050581Y013918D02*
X051041Y013918D01*
X050888Y013918D02*
X050581Y014225D01*
X050811Y013995D02*
X051041Y014225D01*
X050964Y013458D02*
X050657Y013458D01*
X050581Y013535D01*
X050657Y013305D02*
X050581Y013228D01*
X050581Y013074D01*
X050657Y012998D01*
X050657Y013305D02*
X050734Y013305D01*
X051041Y012998D01*
X051041Y013305D01*
X053910Y012389D02*
X054217Y011929D01*
X054371Y011929D02*
X054678Y011929D01*
X054524Y011929D02*
X054524Y012389D01*
X054371Y012236D01*
X054217Y012389D02*
X053910Y011929D01*
D15*
X043211Y017659D02*
X042961Y017659D01*
X042961Y017909D01*
X042461Y017909D01*
X042461Y017659D01*
X041961Y017659D01*
X041961Y017909D01*
X041461Y017909D01*
X041461Y017659D01*
X040961Y017659D01*
X039461Y017659D01*
X039461Y017909D01*
X039961Y017909D01*
X039961Y017659D01*
X040461Y017659D01*
X040461Y017909D01*
X040961Y017909D01*
X040961Y017659D01*
X040161Y017659D02*
X043211Y017659D01*
X043211Y018809D01*
X043211Y019959D01*
X040211Y019959D01*
X039711Y019959D01*
X039711Y019559D01*
X039811Y019359D01*
X042611Y019359D01*
X042711Y019559D01*
X042711Y019959D01*
X042611Y019959D02*
X042611Y019559D01*
X042711Y019559D01*
X042611Y019559D02*
X039811Y019559D01*
X039811Y019959D01*
X039711Y019959D02*
X039211Y019959D01*
X039211Y018809D01*
X039211Y017659D01*
X039311Y017659D02*
X039461Y017659D01*
X036711Y017659D02*
X036711Y018809D01*
X036711Y019959D01*
X033711Y019959D01*
X033211Y019959D01*
X033211Y019559D01*
X033311Y019359D01*
X036111Y019359D01*
X036211Y019559D01*
X036211Y019959D01*
X036111Y019959D02*
X036111Y019559D01*
X036211Y019559D01*
X036111Y019559D02*
X033311Y019559D01*
X033311Y019959D01*
X033211Y019959D02*
X032711Y019959D01*
X032711Y018809D01*
X032711Y017659D01*
X032811Y017659D02*
X032961Y017659D01*
X034461Y017659D01*
X034961Y017659D01*
X034961Y017909D01*
X035461Y017909D01*
X035461Y017659D01*
X035961Y017659D01*
X035961Y017909D01*
X036461Y017909D01*
X036461Y017659D01*
X036711Y017659D01*
X033661Y017659D01*
X033461Y017659D02*
X033961Y017659D01*
X033961Y017909D01*
X034461Y017909D01*
X034461Y017659D01*
X033461Y017659D02*
X033461Y017909D01*
X032961Y017909D01*
X032961Y017659D01*
X030211Y017659D02*
X030211Y018809D01*
X030211Y019959D01*
X027211Y019959D01*
X026711Y019959D01*
X026711Y019559D01*
X026811Y019359D01*
X029611Y019359D01*
X029711Y019559D01*
X029711Y019959D01*
X029611Y019959D02*
X029611Y019559D01*
X029711Y019559D01*
X029611Y019559D02*
X026811Y019559D01*
X026811Y019959D01*
X026711Y019959D02*
X026211Y019959D01*
X026211Y018809D01*
X026211Y017659D01*
X026311Y017659D02*
X026461Y017659D01*
X027961Y017659D01*
X028461Y017659D01*
X028461Y017909D01*
X028961Y017909D01*
X028961Y017659D01*
X029461Y017659D01*
X029461Y017909D01*
X029961Y017909D01*
X029961Y017659D01*
X030211Y017659D01*
X027161Y017659D01*
X026961Y017659D02*
X027461Y017659D01*
X027461Y017909D01*
X027961Y017909D01*
X027961Y017659D01*
X026961Y017659D02*
X026961Y017909D01*
X026461Y017909D01*
X026461Y017659D01*
X023711Y017659D02*
X023711Y018809D01*
X023711Y019959D01*
X020711Y019959D01*
X020211Y019959D01*
X020211Y019559D01*
X020311Y019359D01*
X023111Y019359D01*
X023211Y019559D01*
X023211Y019959D01*
X023111Y019959D02*
X023111Y019559D01*
X023211Y019559D01*
X023111Y019559D02*
X020311Y019559D01*
X020311Y019959D01*
X020211Y019959D02*
X019711Y019959D01*
X019711Y018809D01*
X019711Y017659D01*
X019811Y017659D02*
X019961Y017659D01*
X021461Y017659D01*
X021961Y017659D01*
X021961Y017909D01*
X022461Y017909D01*
X022461Y017659D01*
X022961Y017659D01*
X022961Y017909D01*
X023461Y017909D01*
X023461Y017659D01*
X023711Y017659D01*
X020661Y017659D01*
X020461Y017659D02*
X020961Y017659D01*
X020961Y017909D01*
X021461Y017909D01*
X021461Y017659D01*
X020461Y017659D02*
X020461Y017909D01*
X019961Y017909D01*
X019961Y017659D01*
X020211Y019559D02*
X020311Y019559D01*
X026711Y019559D02*
X026811Y019559D01*
X033211Y019559D02*
X033311Y019559D01*
X039711Y019559D02*
X039811Y019559D01*
X045711Y019109D02*
X045711Y017959D01*
X045811Y017959D02*
X045961Y017959D01*
X047461Y017959D01*
X047961Y017959D01*
X047961Y018209D01*
X048461Y018209D01*
X048461Y017959D01*
X048961Y017959D01*
X048961Y018209D01*
X049461Y018209D01*
X049461Y017959D01*
X049711Y017959D01*
X046661Y017959D01*
X046461Y017959D02*
X046961Y017959D01*
X046961Y018209D01*
X047461Y018209D01*
X047461Y017959D01*
X046461Y017959D02*
X046461Y018209D01*
X045961Y018209D01*
X045961Y017959D01*
X045711Y019109D02*
X045711Y020259D01*
X046211Y020259D01*
X046211Y019859D01*
X046311Y019659D01*
X049111Y019659D01*
X049211Y019859D01*
X049211Y020259D01*
X049111Y020259D02*
X049111Y019859D01*
X049211Y019859D01*
X049111Y019859D02*
X046311Y019859D01*
X046311Y020259D01*
X046211Y020259D02*
X046711Y020259D01*
X049711Y020259D01*
X049711Y019109D01*
X049711Y017959D01*
X046311Y019859D02*
X046211Y019859D01*
D16*
X046096Y016550D02*
X045973Y016550D01*
X045911Y016488D01*
X045911Y016241D01*
X045973Y016180D01*
X046096Y016180D01*
X046158Y016241D01*
X046279Y016180D02*
X046526Y016180D01*
X046648Y016180D02*
X046895Y016180D01*
X046771Y016180D02*
X046771Y016550D01*
X046648Y016427D01*
X046403Y016550D02*
X046403Y016180D01*
X046279Y016427D02*
X046403Y016550D01*
X046158Y016488D02*
X046096Y016550D01*
X048436Y015476D02*
X048436Y015230D01*
X048498Y015168D01*
X048621Y015168D01*
X048683Y015230D01*
X048804Y015168D02*
X049051Y015168D01*
X048928Y015168D02*
X048928Y015538D01*
X048804Y015415D01*
X048683Y015476D02*
X048621Y015538D01*
X048498Y015538D01*
X048436Y015476D01*
X049173Y015476D02*
X049173Y015230D01*
X049420Y015476D01*
X049420Y015230D01*
X049358Y015168D01*
X049234Y015168D01*
X049173Y015230D01*
X049173Y015476D02*
X049234Y015538D01*
X049358Y015538D01*
X049420Y015476D01*
X046352Y014206D02*
X046290Y014267D01*
X046043Y014267D01*
X045982Y014206D01*
X045982Y014082D01*
X046043Y014020D01*
X046105Y014020D01*
X046167Y014082D01*
X046167Y014267D01*
X046352Y014206D02*
X046352Y014082D01*
X046290Y014020D01*
X046290Y013899D02*
X046352Y013837D01*
X046352Y013714D01*
X046290Y013652D01*
X046043Y013652D01*
X045982Y013714D01*
X045982Y013837D01*
X046043Y013899D01*
X045676Y013820D02*
X045676Y013758D01*
X045429Y013511D01*
X045429Y013450D01*
X045308Y013511D02*
X045246Y013450D01*
X045123Y013450D01*
X045061Y013511D01*
X045061Y013758D01*
X045123Y013820D01*
X045246Y013820D01*
X045308Y013758D01*
X045429Y013820D02*
X045676Y013820D01*
X044860Y014101D02*
X044860Y014224D01*
X044798Y014286D01*
X044798Y014407D02*
X044737Y014407D01*
X044675Y014469D01*
X044675Y014592D01*
X044737Y014654D01*
X044798Y014654D01*
X044860Y014592D01*
X044860Y014469D01*
X044798Y014407D01*
X044675Y014469D02*
X044613Y014407D01*
X044552Y014407D01*
X044490Y014469D01*
X044490Y014592D01*
X044552Y014654D01*
X044613Y014654D01*
X044675Y014592D01*
X044552Y014286D02*
X044490Y014224D01*
X044490Y014101D01*
X044552Y014039D01*
X044798Y014039D01*
X044860Y014101D01*
X048604Y012576D02*
X048666Y012638D01*
X048790Y012638D01*
X048851Y012576D01*
X048973Y012515D02*
X049096Y012638D01*
X049096Y012268D01*
X048973Y012268D02*
X049220Y012268D01*
X048851Y012330D02*
X048790Y012268D01*
X048666Y012268D01*
X048604Y012330D01*
X048604Y012576D01*
X039720Y015268D02*
X039473Y015268D01*
X039720Y015515D01*
X039720Y015576D01*
X039658Y015638D01*
X039534Y015638D01*
X039473Y015576D01*
X039351Y015576D02*
X039290Y015638D01*
X039166Y015638D01*
X039104Y015576D01*
X039104Y015330D01*
X039166Y015268D01*
X039290Y015268D01*
X039351Y015330D01*
X033152Y015332D02*
X033090Y015270D01*
X033152Y015332D02*
X033152Y015456D01*
X033090Y015517D01*
X033029Y015517D01*
X032967Y015456D01*
X032967Y015394D01*
X032967Y015456D02*
X032905Y015517D01*
X032843Y015517D01*
X032782Y015456D01*
X032782Y015332D01*
X032843Y015270D01*
X032843Y015149D02*
X032782Y015087D01*
X032782Y014964D01*
X032843Y014902D01*
X033090Y014902D01*
X033152Y014964D01*
X033152Y015087D01*
X033090Y015149D01*
X026126Y015665D02*
X025879Y015665D01*
X026065Y015850D01*
X026065Y015480D01*
X025758Y015541D02*
X025696Y015480D01*
X025573Y015480D01*
X025511Y015541D01*
X025511Y015788D01*
X025573Y015850D01*
X025696Y015850D01*
X025758Y015788D01*
X019726Y015765D02*
X019726Y015641D01*
X019665Y015580D01*
X019541Y015580D01*
X019479Y015641D01*
X019358Y015641D02*
X019296Y015580D01*
X019173Y015580D01*
X019111Y015641D01*
X019111Y015888D01*
X019173Y015950D01*
X019296Y015950D01*
X019358Y015888D01*
X019479Y015950D02*
X019479Y015765D01*
X019603Y015827D01*
X019665Y015827D01*
X019726Y015765D01*
X019726Y015950D02*
X019479Y015950D01*
X024473Y010850D02*
X024411Y010788D01*
X024411Y010541D01*
X024473Y010480D01*
X024596Y010480D01*
X024658Y010541D01*
X024779Y010541D02*
X024841Y010480D01*
X024965Y010480D01*
X025026Y010541D01*
X025026Y010603D01*
X024965Y010665D01*
X024779Y010665D01*
X024779Y010541D01*
X024779Y010665D02*
X024903Y010788D01*
X025026Y010850D01*
X024658Y010788D02*
X024596Y010850D01*
X024473Y010850D01*
D17*
X015111Y011309D02*
X015113Y011382D01*
X015119Y011455D01*
X015129Y011527D01*
X015143Y011599D01*
X015160Y011670D01*
X015182Y011740D01*
X015207Y011809D01*
X015236Y011876D01*
X015268Y011941D01*
X015304Y012005D01*
X015344Y012067D01*
X015386Y012126D01*
X015432Y012183D01*
X015481Y012237D01*
X015533Y012289D01*
X015587Y012338D01*
X015644Y012384D01*
X015703Y012426D01*
X015765Y012466D01*
X015829Y012502D01*
X015894Y012534D01*
X015961Y012563D01*
X016030Y012588D01*
X016100Y012610D01*
X016171Y012627D01*
X016243Y012641D01*
X016315Y012651D01*
X016388Y012657D01*
X016461Y012659D01*
X016534Y012657D01*
X016607Y012651D01*
X016679Y012641D01*
X016751Y012627D01*
X016822Y012610D01*
X016892Y012588D01*
X016961Y012563D01*
X017028Y012534D01*
X017093Y012502D01*
X017157Y012466D01*
X017219Y012426D01*
X017278Y012384D01*
X017335Y012338D01*
X017389Y012289D01*
X017441Y012237D01*
X017490Y012183D01*
X017536Y012126D01*
X017578Y012067D01*
X017618Y012005D01*
X017654Y011941D01*
X017686Y011876D01*
X017715Y011809D01*
X017740Y011740D01*
X017762Y011670D01*
X017779Y011599D01*
X017793Y011527D01*
X017803Y011455D01*
X017809Y011382D01*
X017811Y011309D01*
X017809Y011236D01*
X017803Y011163D01*
X017793Y011091D01*
X017779Y011019D01*
X017762Y010948D01*
X017740Y010878D01*
X017715Y010809D01*
X017686Y010742D01*
X017654Y010677D01*
X017618Y010613D01*
X017578Y010551D01*
X017536Y010492D01*
X017490Y010435D01*
X017441Y010381D01*
X017389Y010329D01*
X017335Y010280D01*
X017278Y010234D01*
X017219Y010192D01*
X017157Y010152D01*
X017093Y010116D01*
X017028Y010084D01*
X016961Y010055D01*
X016892Y010030D01*
X016822Y010008D01*
X016751Y009991D01*
X016679Y009977D01*
X016607Y009967D01*
X016534Y009961D01*
X016461Y009959D01*
X016388Y009961D01*
X016315Y009967D01*
X016243Y009977D01*
X016171Y009991D01*
X016100Y010008D01*
X016030Y010030D01*
X015961Y010055D01*
X015894Y010084D01*
X015829Y010116D01*
X015765Y010152D01*
X015703Y010192D01*
X015644Y010234D01*
X015587Y010280D01*
X015533Y010329D01*
X015481Y010381D01*
X015432Y010435D01*
X015386Y010492D01*
X015344Y010551D01*
X015304Y010613D01*
X015268Y010677D01*
X015236Y010742D01*
X015207Y010809D01*
X015182Y010878D01*
X015160Y010948D01*
X015143Y011019D01*
X015129Y011091D01*
X015119Y011163D01*
X015113Y011236D01*
X015111Y011309D01*
X003861Y001809D02*
X003863Y001882D01*
X003869Y001955D01*
X003879Y002027D01*
X003893Y002099D01*
X003910Y002170D01*
X003932Y002240D01*
X003957Y002309D01*
X003986Y002376D01*
X004018Y002441D01*
X004054Y002505D01*
X004094Y002567D01*
X004136Y002626D01*
X004182Y002683D01*
X004231Y002737D01*
X004283Y002789D01*
X004337Y002838D01*
X004394Y002884D01*
X004453Y002926D01*
X004515Y002966D01*
X004579Y003002D01*
X004644Y003034D01*
X004711Y003063D01*
X004780Y003088D01*
X004850Y003110D01*
X004921Y003127D01*
X004993Y003141D01*
X005065Y003151D01*
X005138Y003157D01*
X005211Y003159D01*
X005284Y003157D01*
X005357Y003151D01*
X005429Y003141D01*
X005501Y003127D01*
X005572Y003110D01*
X005642Y003088D01*
X005711Y003063D01*
X005778Y003034D01*
X005843Y003002D01*
X005907Y002966D01*
X005969Y002926D01*
X006028Y002884D01*
X006085Y002838D01*
X006139Y002789D01*
X006191Y002737D01*
X006240Y002683D01*
X006286Y002626D01*
X006328Y002567D01*
X006368Y002505D01*
X006404Y002441D01*
X006436Y002376D01*
X006465Y002309D01*
X006490Y002240D01*
X006512Y002170D01*
X006529Y002099D01*
X006543Y002027D01*
X006553Y001955D01*
X006559Y001882D01*
X006561Y001809D01*
X006559Y001736D01*
X006553Y001663D01*
X006543Y001591D01*
X006529Y001519D01*
X006512Y001448D01*
X006490Y001378D01*
X006465Y001309D01*
X006436Y001242D01*
X006404Y001177D01*
X006368Y001113D01*
X006328Y001051D01*
X006286Y000992D01*
X006240Y000935D01*
X006191Y000881D01*
X006139Y000829D01*
X006085Y000780D01*
X006028Y000734D01*
X005969Y000692D01*
X005907Y000652D01*
X005843Y000616D01*
X005778Y000584D01*
X005711Y000555D01*
X005642Y000530D01*
X005572Y000508D01*
X005501Y000491D01*
X005429Y000477D01*
X005357Y000467D01*
X005284Y000461D01*
X005211Y000459D01*
X005138Y000461D01*
X005065Y000467D01*
X004993Y000477D01*
X004921Y000491D01*
X004850Y000508D01*
X004780Y000530D01*
X004711Y000555D01*
X004644Y000584D01*
X004579Y000616D01*
X004515Y000652D01*
X004453Y000692D01*
X004394Y000734D01*
X004337Y000780D01*
X004283Y000829D01*
X004231Y000881D01*
X004182Y000935D01*
X004136Y000992D01*
X004094Y001051D01*
X004054Y001113D01*
X004018Y001177D01*
X003986Y001242D01*
X003957Y001309D01*
X003932Y001378D01*
X003910Y001448D01*
X003893Y001519D01*
X003879Y001591D01*
X003869Y001663D01*
X003863Y001736D01*
X003861Y001809D01*
X000361Y001809D02*
X000363Y001882D01*
X000369Y001955D01*
X000379Y002027D01*
X000393Y002099D01*
X000410Y002170D01*
X000432Y002240D01*
X000457Y002309D01*
X000486Y002376D01*
X000518Y002441D01*
X000554Y002505D01*
X000594Y002567D01*
X000636Y002626D01*
X000682Y002683D01*
X000731Y002737D01*
X000783Y002789D01*
X000837Y002838D01*
X000894Y002884D01*
X000953Y002926D01*
X001015Y002966D01*
X001079Y003002D01*
X001144Y003034D01*
X001211Y003063D01*
X001280Y003088D01*
X001350Y003110D01*
X001421Y003127D01*
X001493Y003141D01*
X001565Y003151D01*
X001638Y003157D01*
X001711Y003159D01*
X001784Y003157D01*
X001857Y003151D01*
X001929Y003141D01*
X002001Y003127D01*
X002072Y003110D01*
X002142Y003088D01*
X002211Y003063D01*
X002278Y003034D01*
X002343Y003002D01*
X002407Y002966D01*
X002469Y002926D01*
X002528Y002884D01*
X002585Y002838D01*
X002639Y002789D01*
X002691Y002737D01*
X002740Y002683D01*
X002786Y002626D01*
X002828Y002567D01*
X002868Y002505D01*
X002904Y002441D01*
X002936Y002376D01*
X002965Y002309D01*
X002990Y002240D01*
X003012Y002170D01*
X003029Y002099D01*
X003043Y002027D01*
X003053Y001955D01*
X003059Y001882D01*
X003061Y001809D01*
X003059Y001736D01*
X003053Y001663D01*
X003043Y001591D01*
X003029Y001519D01*
X003012Y001448D01*
X002990Y001378D01*
X002965Y001309D01*
X002936Y001242D01*
X002904Y001177D01*
X002868Y001113D01*
X002828Y001051D01*
X002786Y000992D01*
X002740Y000935D01*
X002691Y000881D01*
X002639Y000829D01*
X002585Y000780D01*
X002528Y000734D01*
X002469Y000692D01*
X002407Y000652D01*
X002343Y000616D01*
X002278Y000584D01*
X002211Y000555D01*
X002142Y000530D01*
X002072Y000508D01*
X002001Y000491D01*
X001929Y000477D01*
X001857Y000467D01*
X001784Y000461D01*
X001711Y000459D01*
X001638Y000461D01*
X001565Y000467D01*
X001493Y000477D01*
X001421Y000491D01*
X001350Y000508D01*
X001280Y000530D01*
X001211Y000555D01*
X001144Y000584D01*
X001079Y000616D01*
X001015Y000652D01*
X000953Y000692D01*
X000894Y000734D01*
X000837Y000780D01*
X000783Y000829D01*
X000731Y000881D01*
X000682Y000935D01*
X000636Y000992D01*
X000594Y001051D01*
X000554Y001113D01*
X000518Y001177D01*
X000486Y001242D01*
X000457Y001309D01*
X000432Y001378D01*
X000410Y001448D01*
X000393Y001519D01*
X000379Y001591D01*
X000369Y001663D01*
X000363Y001736D01*
X000361Y001809D01*
X044011Y019609D02*
X044211Y019609D01*
X044111Y019509D02*
X044111Y019709D01*
X043511Y018909D02*
X043513Y018972D01*
X043519Y019034D01*
X043529Y019096D01*
X043542Y019158D01*
X043560Y019218D01*
X043581Y019277D01*
X043606Y019335D01*
X043635Y019391D01*
X043667Y019445D01*
X043702Y019497D01*
X043740Y019546D01*
X043782Y019594D01*
X043826Y019638D01*
X043874Y019680D01*
X043923Y019718D01*
X043975Y019753D01*
X044029Y019785D01*
X044085Y019814D01*
X044143Y019839D01*
X044202Y019860D01*
X044262Y019878D01*
X044324Y019891D01*
X044386Y019901D01*
X044448Y019907D01*
X044511Y019909D01*
X044574Y019907D01*
X044636Y019901D01*
X044698Y019891D01*
X044760Y019878D01*
X044820Y019860D01*
X044879Y019839D01*
X044937Y019814D01*
X044993Y019785D01*
X045047Y019753D01*
X045099Y019718D01*
X045148Y019680D01*
X045196Y019638D01*
X045240Y019594D01*
X045282Y019546D01*
X045320Y019497D01*
X045355Y019445D01*
X045387Y019391D01*
X045416Y019335D01*
X045441Y019277D01*
X045462Y019218D01*
X045480Y019158D01*
X045493Y019096D01*
X045503Y019034D01*
X045509Y018972D01*
X045511Y018909D01*
X045509Y018846D01*
X045503Y018784D01*
X045493Y018722D01*
X045480Y018660D01*
X045462Y018600D01*
X045441Y018541D01*
X045416Y018483D01*
X045387Y018427D01*
X045355Y018373D01*
X045320Y018321D01*
X045282Y018272D01*
X045240Y018224D01*
X045196Y018180D01*
X045148Y018138D01*
X045099Y018100D01*
X045047Y018065D01*
X044993Y018033D01*
X044937Y018004D01*
X044879Y017979D01*
X044820Y017958D01*
X044760Y017940D01*
X044698Y017927D01*
X044636Y017917D01*
X044574Y017911D01*
X044511Y017909D01*
X044448Y017911D01*
X044386Y017917D01*
X044324Y017927D01*
X044262Y017940D01*
X044202Y017958D01*
X044143Y017979D01*
X044085Y018004D01*
X044029Y018033D01*
X043975Y018065D01*
X043923Y018100D01*
X043874Y018138D01*
X043826Y018180D01*
X043782Y018224D01*
X043740Y018272D01*
X043702Y018321D01*
X043667Y018373D01*
X043635Y018427D01*
X043606Y018483D01*
X043581Y018541D01*
X043560Y018600D01*
X043542Y018660D01*
X043529Y018722D01*
X043519Y018784D01*
X043513Y018846D01*
X043511Y018909D01*
X051861Y011309D02*
X051863Y011382D01*
X051869Y011455D01*
X051879Y011527D01*
X051893Y011599D01*
X051910Y011670D01*
X051932Y011740D01*
X051957Y011809D01*
X051986Y011876D01*
X052018Y011941D01*
X052054Y012005D01*
X052094Y012067D01*
X052136Y012126D01*
X052182Y012183D01*
X052231Y012237D01*
X052283Y012289D01*
X052337Y012338D01*
X052394Y012384D01*
X052453Y012426D01*
X052515Y012466D01*
X052579Y012502D01*
X052644Y012534D01*
X052711Y012563D01*
X052780Y012588D01*
X052850Y012610D01*
X052921Y012627D01*
X052993Y012641D01*
X053065Y012651D01*
X053138Y012657D01*
X053211Y012659D01*
X053284Y012657D01*
X053357Y012651D01*
X053429Y012641D01*
X053501Y012627D01*
X053572Y012610D01*
X053642Y012588D01*
X053711Y012563D01*
X053778Y012534D01*
X053843Y012502D01*
X053907Y012466D01*
X053969Y012426D01*
X054028Y012384D01*
X054085Y012338D01*
X054139Y012289D01*
X054191Y012237D01*
X054240Y012183D01*
X054286Y012126D01*
X054328Y012067D01*
X054368Y012005D01*
X054404Y011941D01*
X054436Y011876D01*
X054465Y011809D01*
X054490Y011740D01*
X054512Y011670D01*
X054529Y011599D01*
X054543Y011527D01*
X054553Y011455D01*
X054559Y011382D01*
X054561Y011309D01*
X054559Y011236D01*
X054553Y011163D01*
X054543Y011091D01*
X054529Y011019D01*
X054512Y010948D01*
X054490Y010878D01*
X054465Y010809D01*
X054436Y010742D01*
X054404Y010677D01*
X054368Y010613D01*
X054328Y010551D01*
X054286Y010492D01*
X054240Y010435D01*
X054191Y010381D01*
X054139Y010329D01*
X054085Y010280D01*
X054028Y010234D01*
X053969Y010192D01*
X053907Y010152D01*
X053843Y010116D01*
X053778Y010084D01*
X053711Y010055D01*
X053642Y010030D01*
X053572Y010008D01*
X053501Y009991D01*
X053429Y009977D01*
X053357Y009967D01*
X053284Y009961D01*
X053211Y009959D01*
X053138Y009961D01*
X053065Y009967D01*
X052993Y009977D01*
X052921Y009991D01*
X052850Y010008D01*
X052780Y010030D01*
X052711Y010055D01*
X052644Y010084D01*
X052579Y010116D01*
X052515Y010152D01*
X052453Y010192D01*
X052394Y010234D01*
X052337Y010280D01*
X052283Y010329D01*
X052231Y010381D01*
X052182Y010435D01*
X052136Y010492D01*
X052094Y010551D01*
X052054Y010613D01*
X052018Y010677D01*
X051986Y010742D01*
X051957Y010809D01*
X051932Y010878D01*
X051910Y010948D01*
X051893Y011019D01*
X051879Y011091D01*
X051869Y011163D01*
X051863Y011236D01*
X051861Y011309D01*
D18*
X001081Y001809D02*
X001083Y001859D01*
X001089Y001909D01*
X001099Y001958D01*
X001113Y002006D01*
X001130Y002053D01*
X001151Y002098D01*
X001176Y002142D01*
X001204Y002183D01*
X001236Y002222D01*
X001270Y002259D01*
X001307Y002293D01*
X001347Y002323D01*
X001389Y002350D01*
X001433Y002374D01*
X001479Y002395D01*
X001526Y002411D01*
X001574Y002424D01*
X001624Y002433D01*
X001673Y002438D01*
X001724Y002439D01*
X001774Y002436D01*
X001823Y002429D01*
X001872Y002418D01*
X001920Y002403D01*
X001966Y002385D01*
X002011Y002363D01*
X002054Y002337D01*
X002095Y002308D01*
X002134Y002276D01*
X002170Y002241D01*
X002202Y002203D01*
X002232Y002163D01*
X002259Y002120D01*
X002282Y002076D01*
X002301Y002030D01*
X002317Y001982D01*
X002329Y001933D01*
X002337Y001884D01*
X002341Y001834D01*
X002341Y001784D01*
X002337Y001734D01*
X002329Y001685D01*
X002317Y001636D01*
X002301Y001588D01*
X002282Y001542D01*
X002259Y001498D01*
X002232Y001455D01*
X002202Y001415D01*
X002170Y001377D01*
X002134Y001342D01*
X002095Y001310D01*
X002054Y001281D01*
X002011Y001255D01*
X001966Y001233D01*
X001920Y001215D01*
X001872Y001200D01*
X001823Y001189D01*
X001774Y001182D01*
X001724Y001179D01*
X001673Y001180D01*
X001624Y001185D01*
X001574Y001194D01*
X001526Y001207D01*
X001479Y001223D01*
X001433Y001244D01*
X001389Y001268D01*
X001347Y001295D01*
X001307Y001325D01*
X001270Y001359D01*
X001236Y001396D01*
X001204Y001435D01*
X001176Y001476D01*
X001151Y001520D01*
X001130Y001565D01*
X001113Y001612D01*
X001099Y001660D01*
X001089Y001709D01*
X001083Y001759D01*
X001081Y001809D01*
X004581Y001809D02*
X004583Y001859D01*
X004589Y001909D01*
X004599Y001958D01*
X004613Y002006D01*
X004630Y002053D01*
X004651Y002098D01*
X004676Y002142D01*
X004704Y002183D01*
X004736Y002222D01*
X004770Y002259D01*
X004807Y002293D01*
X004847Y002323D01*
X004889Y002350D01*
X004933Y002374D01*
X004979Y002395D01*
X005026Y002411D01*
X005074Y002424D01*
X005124Y002433D01*
X005173Y002438D01*
X005224Y002439D01*
X005274Y002436D01*
X005323Y002429D01*
X005372Y002418D01*
X005420Y002403D01*
X005466Y002385D01*
X005511Y002363D01*
X005554Y002337D01*
X005595Y002308D01*
X005634Y002276D01*
X005670Y002241D01*
X005702Y002203D01*
X005732Y002163D01*
X005759Y002120D01*
X005782Y002076D01*
X005801Y002030D01*
X005817Y001982D01*
X005829Y001933D01*
X005837Y001884D01*
X005841Y001834D01*
X005841Y001784D01*
X005837Y001734D01*
X005829Y001685D01*
X005817Y001636D01*
X005801Y001588D01*
X005782Y001542D01*
X005759Y001498D01*
X005732Y001455D01*
X005702Y001415D01*
X005670Y001377D01*
X005634Y001342D01*
X005595Y001310D01*
X005554Y001281D01*
X005511Y001255D01*
X005466Y001233D01*
X005420Y001215D01*
X005372Y001200D01*
X005323Y001189D01*
X005274Y001182D01*
X005224Y001179D01*
X005173Y001180D01*
X005124Y001185D01*
X005074Y001194D01*
X005026Y001207D01*
X004979Y001223D01*
X004933Y001244D01*
X004889Y001268D01*
X004847Y001295D01*
X004807Y001325D01*
X004770Y001359D01*
X004736Y001396D01*
X004704Y001435D01*
X004676Y001476D01*
X004651Y001520D01*
X004630Y001565D01*
X004613Y001612D01*
X004599Y001660D01*
X004589Y001709D01*
X004583Y001759D01*
X004581Y001809D01*
X015831Y011309D02*
X015833Y011359D01*
X015839Y011409D01*
X015849Y011458D01*
X015863Y011506D01*
X015880Y011553D01*
X015901Y011598D01*
X015926Y011642D01*
X015954Y011683D01*
X015986Y011722D01*
X016020Y011759D01*
X016057Y011793D01*
X016097Y011823D01*
X016139Y011850D01*
X016183Y011874D01*
X016229Y011895D01*
X016276Y011911D01*
X016324Y011924D01*
X016374Y011933D01*
X016423Y011938D01*
X016474Y011939D01*
X016524Y011936D01*
X016573Y011929D01*
X016622Y011918D01*
X016670Y011903D01*
X016716Y011885D01*
X016761Y011863D01*
X016804Y011837D01*
X016845Y011808D01*
X016884Y011776D01*
X016920Y011741D01*
X016952Y011703D01*
X016982Y011663D01*
X017009Y011620D01*
X017032Y011576D01*
X017051Y011530D01*
X017067Y011482D01*
X017079Y011433D01*
X017087Y011384D01*
X017091Y011334D01*
X017091Y011284D01*
X017087Y011234D01*
X017079Y011185D01*
X017067Y011136D01*
X017051Y011088D01*
X017032Y011042D01*
X017009Y010998D01*
X016982Y010955D01*
X016952Y010915D01*
X016920Y010877D01*
X016884Y010842D01*
X016845Y010810D01*
X016804Y010781D01*
X016761Y010755D01*
X016716Y010733D01*
X016670Y010715D01*
X016622Y010700D01*
X016573Y010689D01*
X016524Y010682D01*
X016474Y010679D01*
X016423Y010680D01*
X016374Y010685D01*
X016324Y010694D01*
X016276Y010707D01*
X016229Y010723D01*
X016183Y010744D01*
X016139Y010768D01*
X016097Y010795D01*
X016057Y010825D01*
X016020Y010859D01*
X015986Y010896D01*
X015954Y010935D01*
X015926Y010976D01*
X015901Y011020D01*
X015880Y011065D01*
X015863Y011112D01*
X015849Y011160D01*
X015839Y011209D01*
X015833Y011259D01*
X015831Y011309D01*
X051724Y013688D02*
X051724Y021129D01*
X052512Y021917D01*
X054898Y021917D01*
X054898Y012901D01*
X052512Y012901D01*
X051724Y013688D01*
X052581Y011309D02*
X052583Y011359D01*
X052589Y011409D01*
X052599Y011458D01*
X052613Y011506D01*
X052630Y011553D01*
X052651Y011598D01*
X052676Y011642D01*
X052704Y011683D01*
X052736Y011722D01*
X052770Y011759D01*
X052807Y011793D01*
X052847Y011823D01*
X052889Y011850D01*
X052933Y011874D01*
X052979Y011895D01*
X053026Y011911D01*
X053074Y011924D01*
X053124Y011933D01*
X053173Y011938D01*
X053224Y011939D01*
X053274Y011936D01*
X053323Y011929D01*
X053372Y011918D01*
X053420Y011903D01*
X053466Y011885D01*
X053511Y011863D01*
X053554Y011837D01*
X053595Y011808D01*
X053634Y011776D01*
X053670Y011741D01*
X053702Y011703D01*
X053732Y011663D01*
X053759Y011620D01*
X053782Y011576D01*
X053801Y011530D01*
X053817Y011482D01*
X053829Y011433D01*
X053837Y011384D01*
X053841Y011334D01*
X053841Y011284D01*
X053837Y011234D01*
X053829Y011185D01*
X053817Y011136D01*
X053801Y011088D01*
X053782Y011042D01*
X053759Y010998D01*
X053732Y010955D01*
X053702Y010915D01*
X053670Y010877D01*
X053634Y010842D01*
X053595Y010810D01*
X053554Y010781D01*
X053511Y010755D01*
X053466Y010733D01*
X053420Y010715D01*
X053372Y010700D01*
X053323Y010689D01*
X053274Y010682D01*
X053224Y010679D01*
X053173Y010680D01*
X053124Y010685D01*
X053074Y010694D01*
X053026Y010707D01*
X052979Y010723D01*
X052933Y010744D01*
X052889Y010768D01*
X052847Y010795D01*
X052807Y010825D01*
X052770Y010859D01*
X052736Y010896D01*
X052704Y010935D01*
X052676Y010976D01*
X052651Y011020D01*
X052630Y011065D01*
X052613Y011112D01*
X052599Y011160D01*
X052589Y011209D01*
X052583Y011259D01*
X052581Y011309D01*
M02*
